<?xml version="1.0" standalone="no"?>
<!DOCTYPE svg PUBLIC "-//W3C//DTD SVG 1.1//EN" "http://www.w3.org/Graphics/SVG/1.1/DTD/svg11.dtd" >
<svg xmlns="http://www.w3.org/2000/svg" xmlns:xlink="http://www.w3.org/1999/xlink" version="1.1">
<metadata>
Created by FontForge 20200427 at Wed Feb 25 23:04:06 2015
 By www
Copyright (c) 2012 by ARS Type-Angus R. Shamal. All rights reserved.
</metadata>
<defs>
<font id="SQMarket-Bold" horiz-adv-x="576" >
  <font-face 
    font-family="SQ Market Bold"
    font-weight="700"
    font-stretch="normal"
    units-per-em="1000"
    panose-1="2 0 9 3 4 0 0 2 0 4"
    ascent="800"
    descent="-200"
    x-height="534"
    cap-height="714"
    bbox="-170 -200 3036 1000"
    underline-thickness="50"
    underline-position="-100"
    unicode-range="U+0002-FEFF"
  />
<missing-glyph horiz-adv-x="574" 
d="M40 714h494v-714h-494v714zM88 684l416 -628v628h-416zM70 30h415l-415 628v-628z" />
    <glyph glyph-name="fi" unicode="fi" horiz-adv-x="624" 
d="M347 600q-6 2 -18.5 5t-29.5 3q-23 0 -37 -8.5t-14 -29.5v-36h107v-121h-107v-413h-153v413h-76v121h76v42q0 80 42 115.5t130 35.5q29 0 52 -3.5t44 -9.5zM414 590v124h154v-124h-154zM414 0v534h154v-534h-154z" />
    <glyph glyph-name="fl" unicode="fl" horiz-adv-x="624" 
d="M347 600q-6 2 -18.5 5t-29.5 3q-23 0 -37 -8.5t-14 -29.5v-36h107v-121h-107v-413h-153v413h-76v121h76v42q0 80 42 115.5t130 35.5q29 0 52 -3.5t44 -9.5zM414 0v714h154v-714h-154z" />
    <glyph glyph-name="r_f" unicode="rf" horiz-adv-x="767" 
d="M380 413q-34 0 -65 -8t-54 -28t-37 -53t-14 -84v-240h-154v534h154v-64q22 39 57.5 56.5t78.5 17.5q14 0 22 -1.5t12 -3.5v-126zM742 600q-6 2 -18.5 5t-29.5 3q-23 0 -37 -8.5t-14 -29.5v-36h107v-121h-107v-413h-153v413h-76v121h76v42q0 80 42 115.5t130 35.5
q29 0 52 -3.5t44 -9.5z" />
    <glyph glyph-name="r_t" unicode="rt" horiz-adv-x="825" 
d="M380 413q-34 0 -65 -8t-54 -28t-37 -53t-14 -84v-240h-154v534h154v-64q22 39 57.5 56.5t78.5 17.5q14 0 22 -1.5t12 -3.5v-126zM807 17q-17 -11 -49 -20t-77 -9q-83 0 -127 39.5t-44 130.5v255h-96v121h96v180h153v-180h127v-121h-127v-230q0 -20 5 -33t13 -20t19 -9.5
t22 -2.5q19 0 32 5t22 11z" />
    <glyph glyph-name="uniFDFC" unicode="&#xfdfc;" horiz-adv-x="1030" arabic-form="isolated" 
d="M196 -13q-55 0 -92.5 17.5t-60.5 43t-33 55t-10 52.5l124 52q0 -41 17.5 -68t57.5 -27q29 0 48 18t19 63v521h144v-493q0 -112 -57.5 -173t-156.5 -61zM460 112h96v-112h-96v112zM604 112h96v-112h-96v112zM722 -184q-29 0 -63 5t-55 17v114q19 -10 47.5 -16t58.5 -6
q34 0 65.5 9.5t55.5 30t38 53t14 77.5q0 30 -5 45t-8 25v168q25 -14 50.5 -38t45 -56.5t32 -72t12.5 -85.5q0 -60 -22 -110t-60.5 -85.5t-91.5 -55t-114 -19.5zM672 170q-103 0 -157.5 55.5t-54.5 158.5v330h144v-344q0 -39 14 -55t44 -16h38v28q0 23 -9.5 39.5t-21.5 28.5
l44 76q15 -8 33.5 -22t35 -34t27.5 -45t11 -55v-145h-148z" />
    <glyph glyph-name=".notdef" horiz-adv-x="574" 
d="M40 714h494v-714h-494v714zM88 684l416 -628v628h-416zM70 30h415l-415 628v-628z" />
    <glyph glyph-name=".null" horiz-adv-x="0" 
 />
    <glyph glyph-name="nonmarkingreturn" unicode="&#xd;" horiz-adv-x="270" 
 />
    <glyph glyph-name="NULL" horiz-adv-x="0" 
 />
    <glyph glyph-name="NULL" horiz-adv-x="0" 
 />
    <glyph glyph-name="uni0002" horiz-adv-x="270" 
 />
    <glyph glyph-name="space" unicode=" " horiz-adv-x="270" 
 />
    <glyph glyph-name="exclam" unicode="!" horiz-adv-x="285" 
d="M183 230h-80l-43 330v154h165v-154zM60 0v164h165v-164h-165z" />
    <glyph glyph-name="quotedbl" unicode="&#x22;" horiz-adv-x="440" 
d="M60 418v296h120v-296h-120zM260 418v296h120v-296h-120z" />
    <glyph glyph-name="numbersign" unicode="#" horiz-adv-x="574" 
d="M457 434l-26 -153h115v-87h-131l-35 -194h-97l35 194h-120l-35 -194h-98l34 194h-72v87h88l27 153h-115v87h131l35 193h97l-34 -193h120l35 193h97l-35 -193h73v-87h-89zM240 434l-26 -153h120l27 153h-121z" />
    <glyph glyph-name="dollar" unicode="$" 
d="M262 -58v47q-85 6 -150 44.5t-100 106.5l116 70q24 -51 60 -72.5t74 -26.5v179q-32 7 -71 21t-72.5 39.5t-56 64t-22.5 94.5q0 46 16 84t45.5 65t70 42.5t90.5 17.5v47h60v-50q60 -8 115 -38.5t93 -91.5l-108 -63q-23 29 -46 45t-54 24v-163q37 -9 76.5 -25t71.5 -41.5
t53 -63t21 -89.5q0 -42 -14.5 -80t-43 -67.5t-69.5 -48.5t-95 -23v-48h-60zM405 193q0 36 -22.5 54t-60.5 29v-167q42 5 62.5 27.5t20.5 56.5zM182 521q0 -34 22 -51t58 -28v154q-32 -2 -56 -19.5t-24 -55.5z" />
    <glyph glyph-name="percent" unicode="%" horiz-adv-x="810" 
d="M378 548q0 -36 -13.5 -68t-36.5 -55.5t-55 -37t-68 -13.5q-37 0 -68.5 13.5t-55 37t-37 55.5t-13.5 68q0 37 13.5 69t37 55.5t55 37t68.5 13.5q36 0 68 -13.5t55 -37t36.5 -55.5t13.5 -69zM240 0h-115l446 714h115zM780 166q0 -37 -13.5 -69t-36.5 -55.5t-54.5 -37
t-68.5 -13.5q-36 0 -68 13.5t-55 37t-36.5 55.5t-13.5 69q0 36 13.5 68t36.5 55.5t55 37t68 13.5q37 0 68.5 -13.5t54.5 -37t36.5 -55.5t13.5 -68zM278 548q0 32 -20.5 53.5t-52.5 21.5t-53 -21.5t-21 -53.5t21 -53.5t53 -21.5t52.5 21.5t20.5 53.5zM680 166q0 32 -20.5 53
t-52.5 21t-52.5 -21t-20.5 -53t20.5 -53.5t52.5 -21.5t52.5 21.5t20.5 53.5z" />
    <glyph glyph-name="ampersand" unicode="&#x26;" horiz-adv-x="696" 
d="M516 570q0 -32 -11 -57.5t-29.5 -48t-44 -42.5t-54.5 -39l127 -152q20 24 32 45.5t20 38.5l107 -57q-11 -26 -32 -57t-50 -63l115 -138h-178l-40 48q-55 -36 -105 -48.5t-95 -12.5q-57 0 -101 14.5t-74.5 41.5t-46.5 64.5t-16 83.5q0 37 10.5 66.5t30.5 54t48.5 45.5
t64.5 43q-29 36 -47.5 71.5t-18.5 80.5q0 40 15.5 72.5t42.5 55t63 35t77 12.5q37 0 71.5 -10.5t60.5 -30.5t42 -49t16 -67zM299 111q20 0 46 6.5t57 24.5l-136 168q-36 -26 -53.5 -49t-17.5 -55q0 -43 28.5 -69t75.5 -26zM268 558q0 -24 11 -46t28 -44q38 25 57 46t19 49
q0 29 -17.5 43.5t-38.5 14.5q-23 0 -41 -16.5t-18 -46.5z" />
    <glyph glyph-name="quotesingle" unicode="'" horiz-adv-x="240" 
d="M60 418v296h120v-296h-120z" />
    <glyph glyph-name="parenleft" unicode="(" horiz-adv-x="316" 
d="M217 -138q-53 66 -87.5 128.5t-54.5 121.5t-28.5 114.5t-8.5 106.5t8.5 106.5t28.5 114.5t54.5 121.5t87.5 128.5l89 -58q-42 -59 -69 -112.5t-42.5 -104.5t-22 -99.5t-6.5 -96.5t6.5 -96.5t22 -99.5t42.5 -104.5t69 -112.5z" />
    <glyph glyph-name="parenright" unicode=")" horiz-adv-x="316" 
d="M10 -80q42 59 69 112.5t42.5 104.5t22 99.5t6.5 96.5t-6.5 96.5t-22 99.5t-42.5 104.5t-69 112.5l89 58q52 -66 87 -128.5t55 -121.5t28.5 -114.5t8.5 -106.5t-8.5 -106.5t-28.5 -114.5t-55 -121.5t-87 -128.5z" />
    <glyph glyph-name="asterisk" unicode="*" horiz-adv-x="403" 
d="M218 518q9 -23 14.5 -40.5t8.5 -33t4.5 -31.5t1.5 -35h-92q0 19 1.5 35t5 31.5t9 33t14.5 40.5q-15 -19 -27.5 -32.5t-24.5 -24.5t-25 -20t-29 -19l-46 80q17 10 31 16.5t29.5 11t33.5 8.5t42 8q-24 4 -42 8t-33.5 8.5t-29.5 11t-31 16.5l46 80q16 -10 29 -19t25 -20
t24.5 -24.5t27.5 -32.5q-9 23 -14.5 40.5t-9 33t-5 31t-1.5 35.5h92q0 -20 -1.5 -35.5t-4.5 -31t-8.5 -33t-14.5 -40.5q15 19 27.5 32.5t24.5 24.5t24.5 20t29.5 19l46 -80q-17 -10 -31 -16.5t-29.5 -11t-33.5 -8.5t-43 -8q25 -4 43 -8t33.5 -8.5t29.5 -11t31 -16.5l-46 -80
q-17 10 -29.5 19t-24.5 20t-24.5 24.5t-27.5 32.5z" />
    <glyph glyph-name="plus" unicode="+" 
d="M351 203v-203h-127v203h-204v127h204v204h127v-204h204v-127h-204z" />
    <glyph glyph-name="comma" unicode="," horiz-adv-x="250" 
d="M208 45q0 -69 -27.5 -122t-92.5 -102l-48 60q33 23 54 53.5t21 61.5v4h-74v164h167v-119z" />
    <glyph glyph-name="hyphen" unicode="-" horiz-adv-x="387" 
d="M48 203v127h290v-127h-290z" />
    <glyph glyph-name="period" unicode="." horiz-adv-x="250" 
d="M42 0v164h166v-164h-166z" />
    <glyph glyph-name="slash" unicode="/" horiz-adv-x="400" 
d="M154 0h-127l220 714h127z" />
    <glyph glyph-name="zero" unicode="0" 
d="M548 356q0 -72 -14 -139t-44.5 -118t-80.5 -81.5t-122 -30.5t-121.5 30.5t-80 81.5t-44 118t-13.5 139t13.5 139t44 118.5t80 82.5t121.5 31t122 -31t80.5 -82.5t44.5 -118.5t14 -139zM387 357q0 52 -4.5 96t-16 76.5t-31 50.5t-48.5 18t-48.5 -18t-30.5 -50.5
t-15.5 -76.5t-4.5 -96t4.5 -96t15.5 -76.5t30.5 -50.5t48.5 -18t48.5 18t31 50.5t16 76.5t4.5 96z" />
    <glyph glyph-name="one" unicode="1" horiz-adv-x="480" 
d="M27 569l215 145h138v-714h-158v530l-117 -81z" />
    <glyph glyph-name="two" unicode="2" 
d="M25 0v20q0 36 11 71t35 71t61.5 76t90.5 87q31 27 57 50t45.5 44.5t30.5 42.5t11 44q0 40 -28.5 61t-68.5 21q-42 0 -78 -24t-54 -69l-125 70q17 34 43 64t60 51.5t76 34t92 12.5q56 0 102 -16t79 -45t51.5 -70.5t18.5 -93.5q0 -36 -8.5 -65t-24.5 -53.5t-38.5 -47
t-50.5 -44.5q-27 -22 -55 -41.5t-53.5 -38t-47 -36t-36.5 -33.5h318v-143h-514z" />
    <glyph glyph-name="three" unicode="3" 
d="M176 382l148 188h-274v144h470v-98l-132 -169q35 -8 65 -25.5t51.5 -44.5t34 -62.5t12.5 -77.5q0 -49 -17.5 -94t-52 -79.5t-86 -55.5t-119.5 -21q-52 0 -92.5 12t-72 34t-55.5 51t-42 64l120 71q19 -38 52.5 -66t84.5 -28q53 0 86 31t33 82q0 45 -26 72.5t-67 27.5
q-31 0 -57 -18z" />
    <glyph glyph-name="four" unicode="4" 
d="M473 148v-148h-157v148h-296v118l286 448h167v-435h79v-131h-79zM319 279v244l-155 -244h155z" />
    <glyph glyph-name="five" unicode="5" 
d="M553 242q0 -49 -17 -95t-51 -81.5t-85 -57t-119 -21.5q-94 0 -158 42t-95 120l130 65q12 -37 41.5 -63t77.5 -26q51 0 83 31.5t32 83.5t-33 82.5t-87 30.5q-43 0 -75.5 -18t-57.5 -46l-84 40l25 385h435v-144h-311l-13 -129q21 17 54.5 25t68.5 8q50 0 93.5 -16t76 -46
t51 -73t18.5 -97z" />
    <glyph glyph-name="six" unicode="6" 
d="M463 557q-29 20 -60 27t-57 7q-75 0 -119 -41.5t-44 -124.5q7 7 19 16t29.5 16.5t41 13t53.5 5.5q50 0 92.5 -16.5t74 -47t49 -74t17.5 -96.5q0 -51 -17.5 -97.5t-51 -81.5t-83 -55.5t-113.5 -20.5q-127 0 -198 91t-71 267q0 179 75 277q38 50 96.5 77t139.5 27
q47 0 95 -11t89 -38zM186 244q0 -23 6.5 -45t20 -39t34.5 -28t50 -11q51 0 76.5 32.5t25.5 80.5q0 24 -6.5 45.5t-19.5 38t-33 26t-47 9.5q-47 0 -77 -28.5t-30 -80.5z" />
    <glyph glyph-name="seven" unicode="7" 
d="M551 602l-308 -602h-173l300 570h-337v144h518v-112z" />
    <glyph glyph-name="eight" unicode="8" 
d="M287 110q41 0 67.5 25t26.5 78q0 52 -26 77.5t-68 25.5t-68 -26t-26 -77q0 -54 27 -78.5t67 -24.5zM287 431q16 0 31 4.5t27 14.5t19 26.5t7 40.5q0 48 -25.5 68t-58.5 20t-58 -20t-25 -68q0 -24 7 -40.5t18.5 -26.5t26.5 -14.5t31 -4.5zM287 -13q-62 0 -110 17t-80.5 46
t-49 69t-16.5 85q0 63 29.5 108.5t80.5 66.5q-38 20 -66.5 58t-28.5 98q0 47 19.5 83t52.5 60t76.5 36.5t92.5 12.5t93 -12.5t77 -36.5t52.5 -60t19.5 -83q0 -60 -28.5 -98t-67.5 -58q52 -21 81.5 -66.5t29.5 -107.5q0 -46 -16.5 -85.5t-49 -69t-80.5 -46.5t-111 -17z" />
    <glyph glyph-name="nine" unicode="9" 
d="M113 157q29 -20 60 -27t57 -7q75 0 119 41.5t44 124.5q-7 -7 -19 -16t-29.5 -16.5t-41 -13t-53.5 -5.5q-50 0 -92.5 16.5t-74 47t-49 74t-17.5 96.5q0 51 17.5 97.5t51 81.5t83 55.5t113.5 20.5q127 0 198 -91t71 -267q0 -180 -75 -277q-38 -50 -96.5 -77t-139.5 -27
q-47 0 -95 11t-89 38zM390 470q0 22 -6.5 44.5t-20 39.5t-34.5 28t-50 11q-51 0 -76.5 -32.5t-25.5 -80.5q0 -24 6.5 -45.5t19.5 -38t33 -26t47 -9.5q47 0 77 28.5t30 80.5z" />
    <glyph glyph-name="colon" unicode=":" horiz-adv-x="294" 
d="M64 0v164h167v-164h-167zM64 370v164h167v-164h-167z" />
    <glyph glyph-name="semicolon" unicode=";" horiz-adv-x="294" 
d="M231 48q0 -69 -27.5 -122t-92.5 -102l-49 60q34 23 55 53.5t21 61.5v1h-75v164h168v-116zM63 370v164h168v-164h-168z" />
    <glyph glyph-name="less" unicode="&#x3c;" 
d="M383 -12l-279 279l279 279l89 -90l-188 -189l188 -189z" />
    <glyph glyph-name="equal" unicode="=" 
d="M32 310v127h511v-127h-511zM32 97v127h511v-127h-511z" />
    <glyph glyph-name="greater" unicode="&#x3e;" 
d="M104 78l188 189l-188 189l89 90l279 -279l-279 -279z" />
    <glyph glyph-name="question" unicode="?" horiz-adv-x="549" 
d="M505 516q0 -42 -13.5 -73t-33.5 -54t-43.5 -40t-43.5 -33t-33.5 -33t-13.5 -38v-15h-160v11q0 38 13 66t33 49.5t42.5 39.5t42.5 35.5t33 37t13 44.5q0 40 -29.5 60t-73.5 20q-43 0 -74.5 -17t-57.5 -41l-78 107q40 35 97 60t134 25q55 0 100 -14.5t77.5 -41.5
t50.5 -66.5t18 -88.5zM164 0v164h165v-164h-165z" />
    <glyph glyph-name="at" unicode="@" horiz-adv-x="856" 
d="M527 206q-23 -35 -55 -50.5t-72 -15.5q-41 0 -74 16t-56 43.5t-35 65t-12 81.5q0 45 12.5 82.5t35.5 65.5t55.5 43.5t73.5 15.5q59 0 100 -49v41h118v-275q0 -25 10.5 -43.5t40.5 -18.5q20 0 35.5 11t26 30t15.5 44.5t5 55.5q0 69 -20.5 126.5t-60.5 99t-98 64.5t-133 23
q-74 0 -132.5 -25t-99 -68t-61.5 -99.5t-21 -120.5q0 -65 21.5 -121.5t62 -99t98.5 -67t132 -24.5q45 0 86.5 11t75.5 35l30 -59q-41 -24 -91 -38t-105 -14q-91 0 -164 28.5t-124.5 79t-79 119.5t-27.5 150q0 80 27.5 149t79 120t125 80t164.5 29q89 0 160.5 -29t122 -79
t77.5 -119t27 -148q0 -47 -12 -86t-34.5 -66.5t-55 -43t-72.5 -15.5q-33 0 -67.5 13.5t-54.5 51.5zM500 346q0 22 -5 42t-15 35t-25 24t-34 9t-33 -9t-23.5 -24t-14.5 -35t-5 -42t5 -41.5t14.5 -34.5t23.5 -23.5t33 -8.5q40 0 59.5 32t19.5 76z" />
    <glyph glyph-name="A" unicode="A" horiz-adv-x="704" 
d="M525 0l-49 160h-253l-49 -160h-174l257 714h191l256 -714h-179zM350 579l-90 -290h178z" />
    <glyph glyph-name="B" unicode="B" horiz-adv-x="686" 
d="M655 207q0 -47 -16 -85t-47.5 -65t-77 -42t-103.5 -15h-347v714h327q115 0 177 -49.5t62 -134.5q0 -50 -23.5 -90t-66.5 -64q57 -23 86 -67t29 -102zM470 506q0 36 -23.5 53t-66.5 17h-156v-146h159q42 0 64.5 20t22.5 56zM492 220q0 38 -23 60t-66 22h-179v-164h175
q43 0 68 21t25 61z" />
    <glyph glyph-name="C" unicode="C" horiz-adv-x="701" 
d="M556 480q-32 56 -75 81t-99 25q-44 0 -79 -17t-59.5 -47.5t-37.5 -72.5t-13 -91q0 -50 13 -92t37.5 -73t60 -48t79.5 -17q64 0 106.5 32t67.5 80l129 -69q-48 -88 -124 -136t-182 -48q-78 0 -143 26.5t-111.5 75.5t-72 117.5t-25.5 151.5t25.5 151t72 116.5t111 75
t141.5 26.5q93 0 171.5 -41t132.5 -132z" />
    <glyph glyph-name="D" unicode="D" horiz-adv-x="738" 
d="M353 143q94 0 142.5 57.5t48.5 156.5t-48.5 156t-142.5 57h-129v-427h129zM64 0v714h289q87 0 153.5 -27t111.5 -75t68 -113.5t23 -141.5t-23 -141.5t-68 -113.5t-111.5 -75t-153.5 -27h-289z" />
    <glyph glyph-name="E" unicode="E" horiz-adv-x="636" 
d="M64 0v714h521v-144h-361v-140h321v-128h-321v-159h371v-143h-531z" />
    <glyph glyph-name="F" unicode="F" horiz-adv-x="610" 
d="M224 570v-140h321v-128h-321v-302h-160v714h520v-144h-360z" />
    <glyph glyph-name="G" unicode="G" horiz-adv-x="743" 
d="M384 586q-47 0 -82.5 -17t-59.5 -47t-36.5 -72t-12.5 -91q0 -109 51.5 -170t140.5 -61q68 0 115 33.5t55 101.5h-164v128h326q3 -12 4.5 -30t1.5 -32q0 -71 -22 -133t-65 -108.5t-107 -73.5t-147 -27q-80 0 -145 27t-111.5 76t-72 117.5t-25.5 151.5t25.5 151t72.5 116
t112.5 74.5t146.5 26.5q101 0 177.5 -44.5t122.5 -123.5l-134 -71q-28 53 -70.5 75.5t-96.5 22.5z" />
    <glyph glyph-name="H" unicode="H" horiz-adv-x="747" 
d="M524 0v302h-300v-302h-160v714h160v-269h300v269h159v-714h-159z" />
    <glyph glyph-name="I" unicode="I" horiz-adv-x="288" 
d="M64 0v714h160v-714h-160z" />
    <glyph glyph-name="J" unicode="J" horiz-adv-x="551" 
d="M333 714h159v-463q0 -119 -59 -187q-32 -38 -81 -57.5t-111 -19.5q-91 0 -152.5 41t-89.5 117l129 63q12 -44 40 -63t66 -19q49 0 74 28.5t25 82.5v477z" />
    <glyph glyph-name="K" unicode="K" horiz-adv-x="706" 
d="M523 0l-195 308l-104 -124v-184h-160v714h160v-321l269 321h193l-246 -287l273 -427h-190z" />
    <glyph glyph-name="L" unicode="L" horiz-adv-x="574" 
d="M64 0v714h160v-571h338v-143h-498z" />
    <glyph glyph-name="M" unicode="M" horiz-adv-x="904" 
d="M683 0v484l-178 -484h-108l-178 481v-481h-155v714h220l169 -467l170 467h217v-714h-157z" />
    <glyph glyph-name="N" unicode="N" horiz-adv-x="747" 
d="M509 0l-291 493v-493h-154v714h192l274 -464v464h153v-714h-174z" />
    <glyph glyph-name="O" unicode="O" horiz-adv-x="766" 
d="M739 357q0 -78 -24.5 -145.5t-70.5 -117.5t-112 -78.5t-149 -28.5t-149 28.5t-112 78.5t-70.5 117.5t-24.5 145.5t24.5 145.5t70.5 117.5t112 78.5t149 28.5t149 -28.5t112 -78.5t70.5 -117.5t24.5 -145.5zM574 357q0 47 -12.5 87.5t-37 70t-60 46.5t-81.5 17t-81.5 -17
t-59.5 -46.5t-36.5 -70t-12.5 -87.5t12.5 -87.5t36.5 -70t59.5 -46.5t81.5 -17t81.5 17t60 46.5t37 70t12.5 87.5z" />
    <glyph glyph-name="P" unicode="P" horiz-adv-x="659" 
d="M380 382q49 0 76.5 23.5t27.5 71.5q0 47 -28 70t-76 23h-156v-188h156zM224 238v-238h-160v714h318q61 0 110 -17t83.5 -48t52.5 -75t18 -98t-18 -98t-52 -75t-83 -48t-111 -17h-158z" />
    <glyph glyph-name="Q" unicode="Q" horiz-adv-x="766" 
d="M739 358q0 -81 -26 -150t-74 -120l55 -63l-103 -86l-62 77q-66 -29 -146 -29q-83 0 -149 29t-112 79t-70.5 117.5t-24.5 145.5q0 77 24.5 144.5t70.5 117.5t112 78.5t149 28.5t149 -28.5t112 -78.5t70.5 -117.5t24.5 -144.5zM574 358q0 47 -12.5 87t-37 69.5t-60 46.5
t-81.5 17t-81.5 -17t-59.5 -46.5t-36.5 -69.5t-12.5 -87t12.5 -88t36.5 -71t59.5 -47.5t81.5 -17.5q23 0 45 8l-69 87l93 76l79 -95q20 29 31.5 66.5t11.5 81.5z" />
    <glyph glyph-name="R" unicode="R" horiz-adv-x="677" 
d="M483 0l-131 254h-128v-254h-160v714h327q63 0 111.5 -16.5t81.5 -46t49.5 -71t16.5 -90.5q0 -80 -40 -131t-100 -77l148 -282h-175zM487 477q0 45 -28 69t-72 24h-163v-188h162q45 0 73 25t28 70z" />
    <glyph glyph-name="S" unicode="S" horiz-adv-x="640" 
d="M308 594q-46 0 -79 -18t-33 -53q0 -17 9 -29t24.5 -20.5t36.5 -14.5t45 -11q30 -6 64.5 -13.5t68 -18t64.5 -26.5t54.5 -39t37.5 -55t14 -74q0 -50 -19.5 -93t-56.5 -74.5t-91 -49.5t-123 -18q-105 0 -185 41.5t-122 113.5l123 82q14 -27 35.5 -46.5t46.5 -32.5t52.5 -19
t54.5 -6q60 0 94 22.5t34 61.5q0 23 -12.5 37.5t-33.5 23.5t-48.5 15t-56.5 11q-50 9 -98 23.5t-86 39.5t-61.5 63t-23.5 94q0 51 20.5 91.5t57 68t86.5 42t109 14.5q41 0 81.5 -7.5t78.5 -24t71 -43t59 -64.5l-118 -79q-26 40 -72.5 62.5t-101.5 22.5z" />
    <glyph glyph-name="T" unicode="T" horiz-adv-x="650" 
d="M404 570v-570h-159v570h-219v144h598v-144h-220z" />
    <glyph glyph-name="U" unicode="U" horiz-adv-x="708" 
d="M650 273q0 -69 -21.5 -122t-60.5 -89.5t-93.5 -55.5t-121.5 -19t-121.5 19t-93 55.5t-59.5 89.5t-21 122v441h159v-441q0 -68 35 -104t102 -36q66 0 101.5 36t35.5 104v441h159v-441z" />
    <glyph glyph-name="V" unicode="V" horiz-adv-x="660" 
d="M664 714l-252 -714h-164l-253 714h172l163 -507l161 507h173z" />
    <glyph glyph-name="W" unicode="W" horiz-adv-x="975" 
d="M774 0h-166l-123 457l-125 -457h-166l-181 714h173l102 -476l133 476h130l133 -478l102 478h176z" />
    <glyph glyph-name="X" unicode="X" horiz-adv-x="679" 
d="M492 0l-153 256l-154 -256h-192l244 373l-226 341h189l141 -232l139 232h187l-224 -341l243 -373h-194z" />
    <glyph glyph-name="Y" unicode="Y" horiz-adv-x="659" 
d="M409 297v-297h-160v296l-255 418h185l151 -268l151 268h184z" />
    <glyph glyph-name="Z" unicode="Z" horiz-adv-x="657" 
d="M35 0v125l354 445h-339v144h561v-118l-359 -453h368v-143h-585z" />
    <glyph glyph-name="bracketleft" unicode="[" horiz-adv-x="308" 
d="M48 -134v934h239v-98h-110v-738h110v-98h-239z" />
    <glyph glyph-name="backslash" unicode="\" horiz-adv-x="400" 
d="M246 0l-220 714h127l220 -714h-127z" />
    <glyph glyph-name="bracketright" unicode="]" horiz-adv-x="308" 
d="M21 -134v98h110v738h-110v98h239v-934h-239z" />
    <glyph glyph-name="asciicircum" unicode="^" 
d="M484 393l-196 196l-196 -196l-89 89l232 232h106l232 -232z" />
    <glyph glyph-name="underscore" unicode="_" horiz-adv-x="581" 
d="M-8 -125v50h597v-50h-597z" />
    <glyph glyph-name="grave" unicode="`" horiz-adv-x="324" 
d="M215 589h-99l-102 138l116 57z" />
    <glyph glyph-name="a" unicode="a" horiz-adv-x="550" 
d="M345 249q-14 -10 -38 -15t-57 -11q-14 -3 -27.5 -6.5t-24 -10.5t-16.5 -17.5t-6 -27.5q0 -57 68 -57q20 0 38 5.5t32 17.5t22.5 30t8.5 42v50zM262 421q-38 0 -83.5 -12.5t-82.5 -35.5l-52 111q44 27 105.5 44.5t125.5 17.5q49 0 90 -10t70.5 -32t46 -57t16.5 -85v-362
h-143v51q-22 -27 -55.5 -45t-89.5 -18q-41 0 -75 11t-59 32t-38.5 52t-13.5 71q0 50 20 81t49 48t63 24.5t61 11.5q28 4 51.5 7t40.5 8.5t26.5 15t9.5 24.5q0 14 -8 23t-20 14.5t-26.5 7.5t-28.5 2z" />
    <glyph glyph-name="b" unicode="b" horiz-adv-x="630" 
d="M210 714v-239q26 35 66 53t88 18q54 0 98 -21t75.5 -58.5t48.5 -88.5t17 -110q0 -60 -17 -111t-48 -88.5t-75.5 -59t-98.5 -21.5q-48 0 -88 18t-66 53v-59h-154v714h154zM210 266q0 -30 7.5 -57t22 -46.5t36.5 -31t51 -11.5t50.5 11.5t36 31.5t21.5 46.5t7 56.5t-7 57
t-21.5 47t-36 32t-50.5 12t-51 -12t-36.5 -32t-22 -47t-7.5 -57z" />
    <glyph glyph-name="c" unicode="c" horiz-adv-x="542" 
d="M416 345q-18 33 -45.5 51t-63.5 18q-57 0 -88.5 -41t-31.5 -105q0 -67 32.5 -107.5t90.5 -40.5q40 0 68 19t49 48l101 -84q-17 -23 -39 -44t-50.5 -36.5t-63.5 -25t-77 -9.5q-62 0 -112.5 21t-86 58.5t-55 88t-19.5 110.5t19.5 111t55 88.5t85 59t110.5 21.5
q45 0 81 -11.5t64.5 -30t50 -42t35.5 -48.5z" />
    <glyph glyph-name="d" unicode="d" horiz-adv-x="630" 
d="M421 0v59q-26 -35 -66.5 -53t-88.5 -18q-54 0 -98 21t-75.5 58.5t-48.5 88t-17 110.5q0 59 17 110.5t48.5 89t75.5 59t98 21.5q48 0 88.5 -18.5t66.5 -53.5v240h153v-714h-153zM421 266q0 30 -7.5 57t-22.5 47.5t-37.5 32t-51.5 11.5t-50 -12t-35 -32t-21 -47t-7 -57
t7 -56.5t21 -46.5t35 -31.5t50 -11.5q30 0 52 11.5t37 31.5t22.5 46.5t7.5 56.5z" />
    <glyph glyph-name="e" unicode="e" horiz-adv-x="580" 
d="M402 331q-4 50 -32.5 75.5t-71.5 25.5q-46 0 -75 -27.5t-33 -73.5h212zM25 265q0 60 18 111t52.5 89t84.5 59.5t114 21.5q61 0 109.5 -20t81.5 -55.5t50.5 -84.5t17.5 -107q0 -17 -1 -29.5t-2 -22.5h-360q2 -54 36.5 -79t85.5 -25q82 0 130 62l95 -92
q-45 -54 -103.5 -79.5t-130.5 -25.5q-67 0 -118.5 21t-87 58t-54 87.5t-18.5 110.5z" />
    <glyph glyph-name="f" unicode="f" horiz-adv-x="372" 
d="M347 600q-6 2 -18.5 5t-29.5 3q-23 0 -37 -8.5t-14 -29.5v-36h107v-121h-107v-413h-153v413h-76v121h76v42q0 80 42 115.5t130 35.5q29 0 52 -3.5t44 -9.5z" />
    <glyph glyph-name="g" unicode="g" horiz-adv-x="630" 
d="M421 288q0 27 -7.5 51t-22 42t-36.5 28.5t-51 10.5q-56 0 -85 -38t-29 -94q0 -57 28.5 -96t85.5 -39t87 39t30 96zM421 98q-25 -34 -65.5 -52t-90.5 -18q-53 0 -96.5 20t-75 54.5t-48.5 82t-17 101.5t17.5 101.5t49 83t75 55.5t96.5 20q50 0 90 -18.5t65 -53.5v60h154
v-431q0 -57 -11.5 -107.5t-46.5 -90.5q-44 -50 -106.5 -69.5t-130.5 -19.5q-70 0 -127.5 15.5t-103.5 49.5l69 113q31 -23 68.5 -36.5t88.5 -13.5q71 0 108.5 30t37.5 96v28z" />
    <glyph glyph-name="h" unicode="h" horiz-adv-x="591" 
d="M56 0v714h154v-238q24 31 63.5 50.5t89.5 19.5q43 0 75.5 -15t55 -40.5t34 -60.5t11.5 -75v-355h-154v320q0 17 -3.5 33.5t-12 29t-23.5 20t-38 7.5q-42 0 -70 -27t-28 -79v-304h-154z" />
    <glyph glyph-name="i" unicode="i" horiz-adv-x="266" 
d="M56 590v124h154v-124h-154zM56 0v534h154v-534h-154z" />
    <glyph glyph-name="j" unicode="j" horiz-adv-x="265" 
d="M56 592v122h153v-122h-153zM209 -4q0 -91 -41.5 -135.5t-130.5 -44.5q-26 0 -50 3.5t-43 11.5l21 114q7 -3 15.5 -6t23.5 -3q26 0 39 14t13 53v531h153v-538z" />
    <glyph glyph-name="k" unicode="k" horiz-adv-x="599" 
d="M401 534h180l-190 -209l212 -325h-182l-134 223l-77 -87v-136h-154v714h154v-403z" />
    <glyph glyph-name="l" unicode="l" horiz-adv-x="266" 
d="M56 0v714h154v-714h-154z" />
    <glyph glyph-name="m" unicode="m" horiz-adv-x="899" 
d="M375 0v321q0 17 -3 33t-11 28.5t-22.5 20t-37.5 7.5q-41 0 -66 -26.5t-25 -77.5v-306h-154v534h154v-57q25 33 63.5 51t83.5 18q54 0 91 -24t54 -64q32 46 76.5 67t93.5 21q43 0 76 -14.5t55 -40t33 -60t11 -74.5v-357h-153v321q0 17 -3 33t-11.5 28.5t-23 20t-37.5 7.5
q-40 0 -65.5 -26.5t-25.5 -77.5v-306h-153z" />
    <glyph glyph-name="n" unicode="n" horiz-adv-x="591" 
d="M56 0v534h154v-58q24 31 63.5 50.5t89.5 19.5q43 0 75.5 -15t55 -40.5t34 -60.5t11.5 -75v-355h-154v320q0 17 -3.5 33.5t-12 29t-23.5 20t-38 7.5q-42 0 -70 -27t-28 -79v-304h-154z" />
    <glyph glyph-name="o" unicode="o" horiz-adv-x="604" 
d="M579 266q0 -62 -19.5 -113.5t-55.5 -88t-87.5 -56.5t-114.5 -20t-114 20t-87.5 56.5t-56 88t-19.5 113.5q0 63 19.5 114.5t56 88t87.5 57t114 20.5t114.5 -20.5t87.5 -57t55.5 -88t19.5 -114.5zM417 267q0 66 -29 108.5t-86 42.5q-56 0 -85 -42.5t-29 -108.5t29 -108.5
t85 -42.5q57 0 86 42.5t29 108.5z" />
    <glyph glyph-name="p" unicode="p" horiz-adv-x="630" 
d="M210 534v-59q26 35 66 53t88 18q54 0 98 -21t75.5 -58.5t48.5 -88.5t17 -110q0 -60 -17 -111t-48 -88.5t-75.5 -59t-98.5 -21.5q-48 0 -88 18t-66 53v-233h-154v708h154zM210 268q0 -30 7.5 -57t22.5 -47.5t37 -32t51 -11.5t50.5 12t35.5 32t21 47t7 57t-7 56.5t-21 46.5
t-35.5 31.5t-50.5 11.5q-30 0 -52 -11.5t-36.5 -31t-22 -46.5t-7.5 -57z" />
    <glyph glyph-name="q" unicode="q" horiz-adv-x="630" 
d="M421 -174v233q-26 -35 -66.5 -53t-88.5 -18q-54 0 -98 21t-75.5 58.5t-48.5 88t-17 110.5q0 59 17 110.5t48.5 89t75.5 59t98 21.5q48 0 88.5 -18.5t66.5 -53.5v60h153v-708h-153zM421 266q0 30 -7.5 57t-22.5 47.5t-37.5 32t-51.5 11.5t-50 -12t-35 -32t-21 -47t-7 -57
t7 -56.5t21 -46.5t35 -31.5t50 -11.5q30 0 52 11.5t37 31.5t22.5 46.5t7.5 56.5z" />
    <glyph glyph-name="r" unicode="r" horiz-adv-x="420" 
d="M395 388q-10 7 -28 10.5t-35 3.5q-53 0 -87.5 -40.5t-34.5 -126.5v-235h-154v534h154v-66q25 35 61 55t78 20q22 0 41 -5t28 -12z" />
    <glyph glyph-name="s" unicode="s" horiz-adv-x="525" 
d="M498 174q0 -44 -17 -78.5t-48.5 -58.5t-76 -36.5t-99.5 -12.5q-76 0 -138.5 23.5t-107.5 68.5l79 95q38 -38 85.5 -53.5t92.5 -15.5q34 0 58.5 10.5t24.5 36.5q0 13 -7 21t-21.5 13.5t-37.5 9.5t-55 9q-39 6 -75 16t-64.5 29t-45.5 48.5t-17 73.5q0 45 18.5 78t49.5 54
t72 31t87 10q81 0 138.5 -26t92.5 -57l-78 -95q-23 26 -67 43.5t-93 17.5q-32 0 -54.5 -9.5t-22.5 -30.5q0 -14 10 -22t26 -13t37 -8l42 -6q52 -8 92 -21t66.5 -32.5t40 -47t13.5 -65.5z" />
    <glyph glyph-name="t" unicode="t" horiz-adv-x="426" 
d="M408 17q-17 -11 -49 -20t-77 -9q-83 0 -127 39.5t-44 130.5v255h-96v121h96v180h153v-180h127v-121h-127v-230q0 -20 5 -33t13 -20t19 -9.5t22 -2.5q19 0 32 5t22 11z" />
    <glyph glyph-name="u" unicode="u" horiz-adv-x="590" 
d="M534 534v-534h-153v58q-24 -32 -64 -51t-90 -19q-42 0 -75 15t-55.5 40.5t-34 60.5t-11.5 75v355h154v-319q0 -17 3.5 -33.5t12 -29.5t23.5 -20.5t38 -7.5q42 0 70.5 27t28.5 79v304h153z" />
    <glyph glyph-name="v" unicode="v" horiz-adv-x="552" 
d="M355 0h-157l-201 534h171l110 -356l108 356h169z" />
    <glyph glyph-name="w" unicode="w" horiz-adv-x="802" 
d="M645 0h-156l-88 326l-90 -326h-155l-143 534h166l70 -321l90 321h127l89 -321l70 321h165z" />
    <glyph glyph-name="x" unicode="x" horiz-adv-x="570" 
d="M385 0l-101 180l-100 -180h-185l183 279l-167 255h180l92 -165l89 165h179l-167 -255l182 -279h-185z" />
    <glyph glyph-name="y" unicode="y" horiz-adv-x="551" 
d="M354 -3q-21 -56 -42.5 -91.5t-46 -55.5t-53 -27t-64.5 -7t-58 5t-34 11l33 120q17 -10 39 -10q28 0 43 17t29 52l-205 523h174l110 -339l110 339h165z" />
    <glyph glyph-name="z" unicode="z" horiz-adv-x="523" 
d="M31 0v110l234 292h-223v132h438v-105l-236 -297h244v-132h-457z" />
    <glyph glyph-name="braceleft" unicode="{" horiz-adv-x="351" 
d="M264 -134q-69 0 -112 42.5t-43 123.5v177q0 32 -12.5 54t-49.5 22h-30v96h30q37 0 49.5 22t12.5 54v177q0 81 43 123.5t112 42.5h55v-96h-12q-40 0 -55 -21.5t-15 -57.5v-153q0 -51 -22 -87t-71 -52q49 -16 71 -51.5t22 -86.5v-154q0 -36 15 -57.5t55 -21.5h12v-96h-55z
" />
    <glyph glyph-name="bar" unicode="|" horiz-adv-x="214" 
d="M48 -48v810h118v-810h-118z" />
    <glyph glyph-name="braceright" unicode="}" horiz-adv-x="356" 
d="M311 285q-40 0 -53.5 -22t-13.5 -54v-177q0 -81 -44.5 -123.5t-117.5 -42.5h-52v96h11q43 0 59 21.5t16 57.5v153q0 51 22.5 86.5t72.5 52.5q-50 16 -72.5 51.5t-22.5 86.5v154q0 36 -16 57.5t-59 21.5h-11v96h52q73 0 117.5 -42.5t44.5 -123.5v-177q0 -33 13.5 -54.5
t53.5 -21.5h30v-96h-30z" />
    <glyph glyph-name="asciitilde" unicode="~" 
d="M21 297q13 18 29.5 36.5t36 33t43 24t52.5 9.5q27 0 52.5 -8.5t63.5 -25.5q32 -14 55 -22t44 -8q20 0 49 9.5t61 32.5l47 -64q-13 -17 -29.5 -35.5t-36.5 -33.5t-44 -25t-53 -10q-27 0 -52 9t-62 26q-64 29 -100 29q-21 0 -50.5 -10t-59.5 -33z" />
    <glyph glyph-name="uni00A0" unicode="&#xa0;" horiz-adv-x="270" 
 />
    <glyph glyph-name="exclamdown" unicode="&#xa1;" horiz-adv-x="285" 
d="M225 -26v-148h-165v148l43 330h80zM225 534v-164h-165v164h165z" />
    <glyph glyph-name="cent" unicode="&#xa2;" 
d="M426 346q-14 26 -34.5 44t-48.5 24v-297q31 7 55 25.5t41 43.5l99 -83q-30 -42 -77.5 -73.5t-117.5 -39.5v-84h-60v84q-57 4 -102.5 26.5t-78 59t-49.5 85t-17 105.5t17.5 106t49.5 86t78 59.5t102 26.5v83h60v-85q36 -5 66 -17t54 -29.5t42 -38.5t31 -43zM187 268
q0 -60 25 -98.5t71 -49.5v294q-45 -11 -70.5 -48.5t-25.5 -97.5z" />
    <glyph glyph-name="sterling" unicode="&#xa3;" 
d="M543 143v-143h-533v121q59 25 81 54.5t22 61.5q0 11 -1 25.5t-8 29.5h-94v96h59q-11 33 -17.5 57.5t-6.5 55.5q0 51 18 93t51 71.5t79.5 45.5t103.5 16q86 0 153.5 -39t107.5 -124l-132 -65q-14 38 -43.5 61t-72.5 23q-42 0 -69.5 -24t-27.5 -74q0 -25 7 -48.5t17 -48.5
h171v-96h-147q0 -43 -10 -80t-39 -69h331z" />
    <glyph glyph-name="currency" unicode="&#xa4;" horiz-adv-x="574" 
d="M185 303q0 -21 8 -39.5t21.5 -32t32 -21.5t39.5 -8t39.5 8t32 21.5t21.5 32t8 39.5t-8 39.5t-21.5 32t-32 21.5t-39.5 8t-39.5 -8t-32 -21.5t-21.5 -32t-8 -39.5zM81 303q0 51 23 94l-79 79l89 90l80 -80q42 22 92 22q51 0 92 -23l81 81l89 -90l-80 -81q11 -20 17 -43.5
t6 -48.5t-6 -48t-16 -43l79 -80l-89 -90l-80 79q-20 -11 -43.5 -17t-49.5 -6q-25 0 -48.5 6t-44.5 17l-79 -79l-89 90l79 78q-23 43 -23 93z" />
    <glyph glyph-name="yen" unicode="&#xa5;" 
d="M414 380h132v-68h-167l-13 -27v-51h180v-68h-180v-166h-159v166h-182v68h182v49l-14 29h-168v68h134l-159 334h182l106 -280l105 280h180z" />
    <glyph glyph-name="brokenbar" unicode="&#xa6;" horiz-adv-x="233" 
d="M69 442v320h95v-320h-95zM69 -60v320h95v-320h-95z" />
    <glyph glyph-name="section" unicode="&#xa7;" horiz-adv-x="596" 
d="M555 196q0 -59 -19.5 -109t-56.5 -87t-89.5 -58t-118.5 -21t-125 22.5t-108 67.5l82 103q30 -30 67 -48t84 -18q61 0 97 36l-102 62q-39 24 -79 53t-72.5 66t-53 83.5t-20.5 104.5t20 108.5t56.5 87.5t89.5 58t119 21q67 0 126 -22.5t107 -67.5l-82 -103q-30 30 -67 48
t-84 18q-61 0 -98 -36l105 -63q40 -24 79.5 -53.5t71 -66.5t51.5 -83t20 -103zM424 202q0 36 -12 63.5t-34.5 52.5t-54 49t-70.5 51l-77 54q-3 -11 -3 -19q0 -38 12 -67t34 -54t53.5 -49t71.5 -52l77 -54q3 13 3 25z" />
    <glyph glyph-name="dieresis" unicode="&#xa8;" horiz-adv-x="370" 
d="M230 594v120h120v-120h-120zM20 594v120h120v-120h-120z" />
    <glyph glyph-name="copyright" unicode="&#xa9;" horiz-adv-x="826" 
d="M607 259q-35 -60 -85.5 -88t-107.5 -28q-44 0 -83 16.5t-68 45.5t-46 68t-17 84t17 84t46 68.5t68 46t83 16.5q57 0 105.5 -28t85.5 -88l-93 -60q-18 33 -43 47.5t-54 14.5q-21 0 -39 -8t-31.5 -21.5t-21 -32t-7.5 -39.5t7.5 -39.5t21 -32.5t31.5 -22.5t39 -8.5
q61 0 98 66zM37 357q0 78 29.5 146.5t80.5 119.5t119.5 80.5t146.5 29.5t146.5 -29.5t119.5 -80.5t80.5 -119.5t29.5 -146.5t-29.5 -146.5t-80.5 -119.5t-119.5 -80.5t-146.5 -29.5t-146.5 29.5t-119.5 80.5t-80.5 119.5t-29.5 146.5zM94 357q0 -66 25 -124.5t68.5 -101.5
t101.5 -68t124 -25t124.5 25t101.5 68t68 101.5t25 124.5t-25 124t-68 101.5t-101.5 68.5t-124.5 25t-124 -25t-101.5 -68.5t-68.5 -101.5t-25 -124z" />
    <glyph glyph-name="ordfeminine" unicode="&#xaa;" horiz-adv-x="407" 
d="M247 369v34q-17 -23 -41 -32t-50 -9q-54 0 -90 28.5t-36 82.5q0 37 16 57.5t39.5 31.5t51 14.5t51 6t39.5 7t16 17.5q0 9 -5.5 14.5t-13.5 8.5t-17.5 4t-18.5 1q-26 0 -56 -8.5t-56 -25.5l-36 83q35 21 79 30.5t83 9.5q72 0 113.5 -30t41.5 -99v-226h-110zM243 527
q-11 -7 -23.5 -9t-31.5 -5q-20 -4 -35 -10t-15 -26q0 -18 12.5 -25.5t29.5 -7.5q27 0 45 13.5t18 42.5v27z" />
    <glyph glyph-name="guillemotleft" unicode="&#xab;" horiz-adv-x="567" 
d="M36 315l168 217l75 -57l-119 -188l119 -188l-75 -56l-168 216v56zM270 315l168 217l75 -57l-119 -188l119 -188l-75 -56l-168 216v56z" />
    <glyph glyph-name="logicalnot" unicode="&#xac;" 
d="M417 45v195h-392v127h518v-322h-126z" />
    <glyph glyph-name="uni00AD" unicode="&#xad;" horiz-adv-x="364" 
d="M50 241v127h264v-127h-264z" />
    <glyph glyph-name="registered" unicode="&#xae;" horiz-adv-x="418" 
d="M383 551q0 -36 -13.5 -68t-37.5 -55.5t-55.5 -37.5t-67.5 -14t-68 14t-56 37.5t-37.5 55.5t-13.5 68t13.5 68t37.5 56t56 37.5t68 13.5t67.5 -13.5t55.5 -37.5t37.5 -56t13.5 -68zM355 551q0 30 -11.5 57t-31.5 46.5t-46.5 31t-56.5 11.5t-57 -11.5t-46.5 -31t-31 -46.5
t-11.5 -57t11.5 -56.5t31 -46.5t46.5 -31.5t57 -11.5t56.5 11.5t46.5 31.5t31.5 46.5t11.5 56.5zM301 455h-57l-32 62h-28v-62h-55v195h95q36 0 55 -18t19 -46q0 -23 -11.5 -37t-24.5 -20zM240 582q0 11 -6 17.5t-15 6.5h-35v-45h35q9 0 15 5t6 16z" />
    <glyph glyph-name="macron" unicode="&#xaf;" horiz-adv-x="347" 
d="M23 600v100h299v-100h-299z" />
    <glyph glyph-name="degree" unicode="&#xb0;" horiz-adv-x="356" 
d="M339 564q0 -33 -12.5 -62.5t-34.5 -51t-51.5 -34.5t-62.5 -13t-62.5 13t-51.5 34.5t-34.5 51t-12.5 62.5t12.5 62.5t34.5 51.5t51.5 35t62.5 13t62.5 -13t51.5 -35t34.5 -51.5t12.5 -62.5zM249 564q0 29 -21 50t-50 21t-49.5 -21t-20.5 -50t20.5 -49.5t49.5 -20.5
t50 20.5t21 49.5z" />
    <glyph glyph-name="plusminus" unicode="&#xb1;" 
d="M40 0v127h495v-127h-495zM351 363v-183h-127v183h-184v127h184v184h127v-184h184v-127h-184z" />
    <glyph glyph-name="twosuperior" unicode="&#xb2;" horiz-adv-x="452" 
d="M45 380v14q0 46 31.5 89t102.5 96q21 15 39 27.5t30.5 23.5t20 22t7.5 24q0 19 -15.5 30.5t-43.5 11.5t-52.5 -14t-37.5 -46l-90 48q25 48 73 79t118 31q75 0 121.5 -38t46.5 -104q0 -42 -21 -70.5t-63 -54.5q-14 -8 -30 -17t-31.5 -18t-30 -17.5t-23.5 -15.5h201v-101
h-353z" />
    <glyph glyph-name="threesuperior" unicode="&#xb3;" horiz-adv-x="452" 
d="M155 607l97 99h-182v102h322v-68l-87 -91q50 -13 79 -45.5t29 -80.5q0 -30 -12 -57.5t-35.5 -48t-58.5 -33t-80 -12.5q-37 0 -65.5 8t-50.5 22.5t-38 33.5t-28 41l84 52q6 -10 14.5 -20.5t19.5 -19.5t26.5 -14.5t36.5 -5.5q35 0 53.5 15.5t18.5 40.5q0 24 -17 37t-42 13
q-21 0 -39 -10z" />
    <glyph glyph-name="acute" unicode="&#xb4;" horiz-adv-x="324" 
d="M194 784l116 -57l-102 -138h-99z" />
    <glyph glyph-name="mu" unicode="&#xb5;" 
d="M18 -174v708h152v-324q0 -40 17.5 -66.5t61.5 -26.5q38 0 66.5 26t28.5 80v311h152v-402q0 -18 6.5 -25.5t18.5 -7.5q14 0 23 6l11 -99q-15 -8 -36 -11t-38 -3q-38 0 -68.5 17t-42.5 52q-23 -38 -59.5 -55.5t-70.5 -17.5q-23 0 -40.5 7.5t-29.5 19.5v-189h-152z" />
    <glyph glyph-name="paragraph" unicode="&#xb6;" horiz-adv-x="562" 
d="M448 -91v712h-58v-712h-100v366h-39q-47 0 -87 15.5t-69.5 44t-46.5 69.5t-17 91t17.5 90.5t47.5 69t70 44t85 15.5h251v-805h-54z" />
    <glyph glyph-name="periodcentered" unicode="&#xb7;" horiz-adv-x="255" 
d="M223 266q0 -20 -7.5 -37t-21 -30.5t-31 -21t-36.5 -7.5q-20 0 -37 7.5t-30.5 21t-21 30.5t-7.5 37t7.5 37.5t21 30.5t30.5 20.5t37 7.5q19 0 36.5 -7.5t31 -20.5t21 -30.5t7.5 -37.5z" />
    <glyph glyph-name="cedilla" unicode="&#xb8;" horiz-adv-x="324" 
d="M143 -200q-47 0 -77 14v66q13 -10 30 -13.5t30 -3.5q23 0 35 8.5t12 19.5q0 8 -4 10h-47v63q9 8 24.5 11.5t32.5 3.5q21 0 41 -5.5t35.5 -16.5t25 -27t9.5 -36q0 -43 -41 -68.5t-106 -25.5z" />
    <glyph glyph-name="onesuperior" unicode="&#xb9;" horiz-adv-x="390" 
d="M47 719l148 89h99v-428h-113v298l-78 -45z" />
    <glyph glyph-name="ordmasculine" unicode="&#xba;" horiz-adv-x="430" 
d="M408 543q0 -41 -13.5 -74t-39 -57t-61 -37t-79.5 -13t-79.5 13t-60.5 37t-38.5 57t-13.5 74q0 40 13.5 73.5t38.5 57.5t60.5 37t79.5 13t79.5 -13t61 -37t39 -57.5t13.5 -73.5zM289 543q0 38 -18.5 62.5t-55.5 24.5q-35 0 -54 -24.5t-19 -62.5t19 -62t54 -24
q37 0 55.5 24t18.5 62z" />
    <glyph glyph-name="guillemotright" unicode="&#xbb;" horiz-adv-x="549" 
d="M513 259l-168 -216l-75 56l119 188l-119 188l75 57l168 -217v-56zM279 259l-168 -216l-75 56l119 188l-119 188l75 57l168 -217v-56z" />
    <glyph glyph-name="onequarter" unicode="&#xbc;" horiz-adv-x="1044" 
d="M47 625l148 89h99v-428h-113v298l-78 -45zM343 0h-113l450 714h113zM947 83v-83h-113v83h-199v82l192 263h120v-253h52v-92h-52zM836 175v128l-96 -128h96z" />
    <glyph glyph-name="onehalf" unicode="&#xbd;" horiz-adv-x="1084" 
d="M47 625l148 89h99v-428h-113v298l-78 -45zM343 0h-113l450 714h113zM677 0v14q0 46 31.5 89t102.5 96q21 15 39 27.5t30.5 23.5t20 22t7.5 24q0 19 -15.5 30.5t-43.5 11.5t-52.5 -14t-37.5 -46l-90 48q25 48 73 79t118 31q75 0 121.5 -38t46.5 -104q0 -42 -21 -70.5
t-63 -54.5q-14 -8 -30 -17t-31.5 -18t-30 -17.5t-23.5 -15.5h201v-101h-353z" />
    <glyph glyph-name="threequarters" unicode="&#xbe;" horiz-adv-x="1106" 
d="M395 0h-113l450 714h113zM1009 83v-83h-113v83h-199v82l192 263h120v-253h52v-92h-52zM898 175v128l-96 -128h96zM155 513l97 99h-182v102h322v-68l-87 -91q50 -13 79 -45.5t29 -80.5q0 -30 -12 -57.5t-35.5 -48t-58.5 -33t-80 -12.5q-37 0 -65.5 8t-50.5 22.5t-38 33.5
t-28 41l84 52q6 -10 14.5 -20.5t19.5 -19.5t26.5 -14.5t36.5 -5.5q35 0 53.5 15.5t18.5 40.5q0 24 -17 37t-42 13q-21 0 -39 -10z" />
    <glyph glyph-name="questiondown" unicode="&#xbf;" horiz-adv-x="549" 
d="M44 27q0 41 13.5 70.5t33.5 52t43.5 39t43.5 32t33.5 31.5t13.5 37v15h160v-11q0 -36 -13 -63t-33 -48.5t-42.5 -38.5t-42.5 -34.5t-33 -36t-13 -42.5q0 -40 29.5 -60t73.5 -20q43 0 74.5 17t57.5 41l78 -107q-40 -35 -97 -60t-134 -25q-55 0 -100 14.5t-77.5 41.5
t-50.5 66t-18 89zM385 534v-164h-165v164h165z" />
    <glyph glyph-name="Agrave" unicode="&#xc0;" horiz-adv-x="704" 
d="M525 0l-49 160h-253l-49 -160h-174l257 714h191l256 -714h-179zM350 579l-90 -290h178zM411 757h-99l-102 138l116 57z" />
    <glyph glyph-name="Aacute" unicode="&#xc1;" horiz-adv-x="704" 
d="M525 0l-49 160h-253l-49 -160h-174l257 714h191l256 -714h-179zM350 579l-90 -290h178zM366 952l116 -57l-102 -138h-99z" />
    <glyph glyph-name="Acircumflex" unicode="&#xc2;" horiz-adv-x="704" 
d="M525 0l-49 160h-253l-49 -160h-174l257 714h191l256 -714h-179zM350 579l-90 -290h178zM553 757h-99l-102 90l-101 -90h-99l128 185h145z" />
    <glyph glyph-name="Atilde" unicode="&#xc3;" horiz-adv-x="704" 
d="M525 0l-49 160h-253l-49 -160h-174l257 714h191l256 -714h-179zM350 579l-90 -290h178zM140 790q18 51 50 84.5t88 33.5q24 0 44 -6t40 -17t36 -17t33 -6q26 0 41 14.5t20 31.5l77 -36q-18 -51 -50 -84.5t-88 -33.5q-24 0 -44 6t-40 17t-36 17t-33 6q-26 0 -41 -14.5
t-20 -31.5z" />
    <glyph glyph-name="Adieresis" unicode="&#xc4;" horiz-adv-x="704" 
d="M525 0l-49 160h-253l-49 -160h-174l257 714h191l256 -714h-179zM350 579l-90 -290h178zM397 762v120h120v-120h-120zM187 762v120h120v-120h-120z" />
    <glyph glyph-name="Aring" unicode="&#xc5;" horiz-adv-x="704" 
d="M350 579l-90 -290h178zM402 763q0 20 -14.5 34.5t-34.5 14.5t-34 -14.5t-14 -34.5t14 -34.5t34 -14.5t34.5 14.5t14.5 34.5zM472 763q0 -34 -19 -64l251 -699h-179l-49 160h-253l-49 -160h-174l252 700q-18 27 -18 63q0 25 9.5 46.5t25.5 38t38 26t46 9.5t46 -9.5t38 -26
t25.5 -38t9.5 -46.5z" />
    <glyph glyph-name="AE" unicode="&#xc6;" horiz-adv-x="1002" 
d="M476 0v160h-225l-88 -160h-173l405 714h556v-144h-316v-134h277v-128h-277v-165h326v-143h-485zM476 587l-156 -298h156v298z" />
    <glyph glyph-name="Ccedilla" unicode="&#xc7;" horiz-adv-x="701" 
d="M556 480q-32 56 -75 81t-99 25q-44 0 -79 -17t-59.5 -47.5t-37.5 -72.5t-13 -91q0 -50 13 -92t37.5 -73t60 -48t79.5 -17q64 0 106.5 32t67.5 80l129 -69q-48 -88 -124 -136t-182 -48q-78 0 -143 26.5t-111.5 75.5t-72 117.5t-25.5 151.5t25.5 151t72 116.5t111 75
t141.5 26.5q93 0 171.5 -41t132.5 -132zM330 -200q-47 0 -77 14v66q13 -10 30 -13.5t30 -3.5q23 0 35 8.5t12 19.5q0 8 -4 10h-47v63q9 8 24.5 11.5t32.5 3.5q21 0 41 -5.5t35.5 -16.5t25 -27t9.5 -36q0 -43 -41 -68.5t-106 -25.5z" />
    <glyph glyph-name="Egrave" unicode="&#xc8;" horiz-adv-x="636" 
d="M64 0v714h521v-144h-361v-140h321v-128h-321v-159h371v-143h-531zM401 757h-99l-102 138l116 57z" />
    <glyph glyph-name="Eacute" unicode="&#xc9;" horiz-adv-x="636" 
d="M64 0v714h521v-144h-361v-140h321v-128h-321v-159h371v-143h-531zM355 952l116 -57l-102 -138h-99z" />
    <glyph glyph-name="Ecircumflex" unicode="&#xca;" horiz-adv-x="636" 
d="M64 0v714h521v-144h-361v-140h321v-128h-321v-159h371v-143h-531zM526 766h-99l-102 90l-101 -90h-99l128 185h145z" />
    <glyph glyph-name="Edieresis" unicode="&#xcb;" horiz-adv-x="636" 
d="M64 0v714h521v-144h-361v-140h321v-128h-321v-159h371v-143h-531zM375 762v120h120v-120h-120zM165 762v120h120v-120h-120z" />
    <glyph glyph-name="Igrave" unicode="&#xcc;" horiz-adv-x="288" 
d="M64 0v714h160v-714h-160zM201 757h-99l-102 138l116 57z" />
    <glyph glyph-name="Iacute" unicode="&#xcd;" horiz-adv-x="288" 
d="M64 0v714h160v-714h-160zM172 952l116 -57l-102 -138h-99z" />
    <glyph glyph-name="Icircumflex" unicode="&#xce;" horiz-adv-x="288" 
d="M64 0v714h160v-714h-160zM345 757h-99l-102 90l-101 -90h-99l128 185h145z" />
    <glyph glyph-name="Idieresis" unicode="&#xcf;" horiz-adv-x="288" 
d="M64 0v714h160v-714h-160zM189 762v120h120v-120h-120zM-21 762v120h120v-120h-120z" />
    <glyph glyph-name="Eth" unicode="&#xd0;" horiz-adv-x="763" 
d="M734 357q0 -77 -23 -142t-68 -113t-111 -75t-153 -27h-290v298h-66v127h66v289h290q87 0 153 -27t111 -75t68 -113.5t23 -141.5zM568 357q0 100 -48.5 156.5t-140.5 56.5h-130v-145h163v-127h-163v-155h130q92 0 140.5 56.5t48.5 157.5z" />
    <glyph glyph-name="Ntilde" unicode="&#xd1;" horiz-adv-x="747" 
d="M509 0l-291 493v-493h-154v714h192l274 -464v464h153v-714h-174zM156 790q18 51 50 84.5t88 33.5q24 0 44 -6t40 -17t36 -17t33 -6q26 0 41 14.5t20 31.5l77 -36q-18 -51 -50 -84.5t-88 -33.5q-24 0 -44 6t-40 17t-36 17t-33 6q-26 0 -41 -14.5t-20 -31.5z" />
    <glyph glyph-name="Ograve" unicode="&#xd2;" horiz-adv-x="766" 
d="M739 357q0 -78 -24.5 -145.5t-70.5 -117.5t-112 -78.5t-149 -28.5t-149 28.5t-112 78.5t-70.5 117.5t-24.5 145.5t24.5 145.5t70.5 117.5t112 78.5t149 28.5t149 -28.5t112 -78.5t70.5 -117.5t24.5 -145.5zM574 357q0 47 -12.5 87.5t-37 70t-60 46.5t-81.5 17t-81.5 -17
t-59.5 -46.5t-36.5 -70t-12.5 -87.5t12.5 -87.5t36.5 -70t59.5 -46.5t81.5 -17t81.5 17t60 46.5t37 70t12.5 87.5zM451 757h-99l-102 138l116 57z" />
    <glyph glyph-name="Oacute" unicode="&#xd3;" horiz-adv-x="766" 
d="M739 357q0 -78 -24.5 -145.5t-70.5 -117.5t-112 -78.5t-149 -28.5t-149 28.5t-112 78.5t-70.5 117.5t-24.5 145.5t24.5 145.5t70.5 117.5t112 78.5t149 28.5t149 -28.5t112 -78.5t70.5 -117.5t24.5 -145.5zM574 357q0 47 -12.5 87.5t-37 70t-60 46.5t-81.5 17t-81.5 -17
t-59.5 -46.5t-36.5 -70t-12.5 -87.5t12.5 -87.5t36.5 -70t59.5 -46.5t81.5 -17t81.5 17t60 46.5t37 70t12.5 87.5zM395 952l116 -57l-102 -138h-99z" />
    <glyph glyph-name="Ocircumflex" unicode="&#xd4;" horiz-adv-x="766" 
d="M739 357q0 -78 -24.5 -145.5t-70.5 -117.5t-112 -78.5t-149 -28.5t-149 28.5t-112 78.5t-70.5 117.5t-24.5 145.5t24.5 145.5t70.5 117.5t112 78.5t149 28.5t149 -28.5t112 -78.5t70.5 -117.5t24.5 -145.5zM574 357q0 47 -12.5 87.5t-37 70t-60 46.5t-81.5 17t-81.5 -17
t-59.5 -46.5t-36.5 -70t-12.5 -87.5t12.5 -87.5t36.5 -70t59.5 -46.5t81.5 -17t81.5 17t60 46.5t37 70t12.5 87.5zM584 766h-99l-102 90l-101 -90h-99l128 185h145z" />
    <glyph glyph-name="Otilde" unicode="&#xd5;" horiz-adv-x="766" 
d="M739 357q0 -78 -24.5 -145.5t-70.5 -117.5t-112 -78.5t-149 -28.5t-149 28.5t-112 78.5t-70.5 117.5t-24.5 145.5t24.5 145.5t70.5 117.5t112 78.5t149 28.5t149 -28.5t112 -78.5t70.5 -117.5t24.5 -145.5zM574 357q0 47 -12.5 87.5t-37 70t-60 46.5t-81.5 17t-81.5 -17
t-59.5 -46.5t-36.5 -70t-12.5 -87.5t12.5 -87.5t36.5 -70t59.5 -46.5t81.5 -17t81.5 17t60 46.5t37 70t12.5 87.5zM169 790q18 51 50 84.5t88 33.5q24 0 44 -6t40 -17t36 -17t33 -6q26 0 41 14.5t20 31.5l77 -36q-18 -51 -50 -84.5t-88 -33.5q-24 0 -44 6t-40 17t-36 17
t-33 6q-26 0 -41 -14.5t-20 -31.5z" />
    <glyph glyph-name="Odieresis" unicode="&#xd6;" horiz-adv-x="766" 
d="M739 357q0 -78 -24.5 -145.5t-70.5 -117.5t-112 -78.5t-149 -28.5t-149 28.5t-112 78.5t-70.5 117.5t-24.5 145.5t24.5 145.5t70.5 117.5t112 78.5t149 28.5t149 -28.5t112 -78.5t70.5 -117.5t24.5 -145.5zM574 357q0 47 -12.5 87.5t-37 70t-60 46.5t-81.5 17t-81.5 -17
t-59.5 -46.5t-36.5 -70t-12.5 -87.5t12.5 -87.5t36.5 -70t59.5 -46.5t81.5 -17t81.5 17t60 46.5t37 70t12.5 87.5zM428 762v120h120v-120h-120zM218 762v120h120v-120h-120z" />
    <glyph glyph-name="multiply" unicode="&#xd7;" 
d="M470 -5l-182 182l-183 -182l-89 90l182 182l-182 182l89 90l183 -182l182 182l89 -90l-181 -182l181 -182z" />
    <glyph glyph-name="Oslash" unicode="&#xd8;" horiz-adv-x="766" 
d="M105 29l34 47q-54 51 -83 123.5t-29 157.5q0 78 24.5 145.5t70.5 117.5t112 78.5t149 28.5q52 0 97 -12t83 -33l33 48l65 -45l-34 -49q55 -51 83.5 -122.5t28.5 -156.5q0 -78 -24.5 -145.5t-70.5 -117.5t-112 -78.5t-149 -28.5q-52 0 -97 11.5t-83 31.5l-33 -46zM574 357
q0 42 -11 79t-31 66l-241 -346q37 -22 92 -22q46 0 81.5 17t60 47t37 71t12.5 88zM193 357q0 -43 10 -80t30 -66l242 346q-20 11 -43 17t-49 6q-46 0 -81.5 -17.5t-59.5 -47.5t-36.5 -70.5t-12.5 -87.5z" />
    <glyph glyph-name="Ugrave" unicode="&#xd9;" horiz-adv-x="708" 
d="M650 273q0 -69 -21.5 -122t-60.5 -89.5t-93.5 -55.5t-121.5 -19t-121.5 19t-93 55.5t-59.5 89.5t-21 122v441h159v-441q0 -68 35 -104t102 -36q66 0 101.5 36t35.5 104v441h159v-441zM416 757h-99l-102 138l116 57z" />
    <glyph glyph-name="Uacute" unicode="&#xda;" horiz-adv-x="708" 
d="M650 273q0 -69 -21.5 -122t-60.5 -89.5t-93.5 -55.5t-121.5 -19t-121.5 19t-93 55.5t-59.5 89.5t-21 122v441h159v-441q0 -68 35 -104t102 -36q66 0 101.5 36t35.5 104v441h159v-441zM375 952l116 -57l-102 -138h-99z" />
    <glyph glyph-name="Ucircumflex" unicode="&#xdb;" horiz-adv-x="708" 
d="M650 273q0 -69 -21.5 -122t-60.5 -89.5t-93.5 -55.5t-121.5 -19t-121.5 19t-93 55.5t-59.5 89.5t-21 122v441h159v-441q0 -68 35 -104t102 -36q66 0 101.5 36t35.5 104v441h159v-441zM555 766h-99l-102 90l-101 -90h-99l128 185h145z" />
    <glyph glyph-name="Udieresis" unicode="&#xdc;" horiz-adv-x="708" 
d="M650 273q0 -69 -21.5 -122t-60.5 -89.5t-93.5 -55.5t-121.5 -19t-121.5 19t-93 55.5t-59.5 89.5t-21 122v441h159v-441q0 -68 35 -104t102 -36q66 0 101.5 36t35.5 104v441h159v-441zM399 762v120h120v-120h-120zM189 762v120h120v-120h-120z" />
    <glyph glyph-name="Yacute" unicode="&#xdd;" horiz-adv-x="659" 
d="M409 297v-297h-160v296l-255 418h185l151 -268l151 268h184zM359 952l116 -57l-102 -138h-99z" />
    <glyph glyph-name="Thorn" unicode="&#xde;" horiz-adv-x="659" 
d="M224 152v-152h-160v714h160v-86h158q61 0 110 -17t83.5 -48t52.5 -75t18 -98t-18 -98t-52 -75t-83 -48t-111 -17h-158zM380 296q49 0 76.5 23.5t27.5 71.5q0 47 -28 70t-76 23h-156v-188h156z" />
    <glyph glyph-name="germandbls" unicode="&#xdf;" horiz-adv-x="631" 
d="M606 204q0 -50 -18 -89.5t-50 -67.5t-76.5 -42.5t-97.5 -14.5q-32 0 -61.5 5t-49.5 13l21 133q11 -7 30 -12t42 -5q44 0 71 23.5t27 70.5q0 51 -34 71.5t-88 20.5h-45v126h51q43 0 71 19t28 61q0 22 -8.5 38t-23 26t-33.5 14.5t-40 4.5q-55 0 -83.5 -29.5t-28.5 -84.5
v-485h-154v487q0 112 68 175.5t199 63.5q56 0 103 -12.5t81.5 -36.5t54 -60t19.5 -83q0 -54 -25.5 -92.5t-66.5 -60.5q22 -9 43 -23.5t37.5 -36t26.5 -50.5t10 -67z" />
    <glyph glyph-name="agrave" unicode="&#xe0;" horiz-adv-x="550" 
d="M345 249q-14 -10 -38 -15t-57 -11q-14 -3 -27.5 -6.5t-24 -10.5t-16.5 -17.5t-6 -27.5q0 -57 68 -57q20 0 38 5.5t32 17.5t22.5 30t8.5 42v50zM262 421q-38 0 -83.5 -12.5t-82.5 -35.5l-52 111q44 27 105.5 44.5t125.5 17.5q49 0 90 -10t70.5 -32t46 -57t16.5 -85v-362
h-143v51q-22 -27 -55.5 -45t-89.5 -18q-41 0 -75 11t-59 32t-38.5 52t-13.5 71q0 50 20 81t49 48t63 24.5t61 11.5q28 4 51.5 7t40.5 8.5t26.5 15t9.5 24.5q0 14 -8 23t-20 14.5t-26.5 7.5t-28.5 2zM330 589h-99l-102 138l116 57z" />
    <glyph glyph-name="aacute" unicode="&#xe1;" horiz-adv-x="550" 
d="M345 249q-14 -10 -38 -15t-57 -11q-14 -3 -27.5 -6.5t-24 -10.5t-16.5 -17.5t-6 -27.5q0 -57 68 -57q20 0 38 5.5t32 17.5t22.5 30t8.5 42v50zM262 421q-38 0 -83.5 -12.5t-82.5 -35.5l-52 111q44 27 105.5 44.5t125.5 17.5q49 0 90 -10t70.5 -32t46 -57t16.5 -85v-362
h-143v51q-22 -27 -55.5 -45t-89.5 -18q-41 0 -75 11t-59 32t-38.5 52t-13.5 71q0 50 20 81t49 48t63 24.5t61 11.5q28 4 51.5 7t40.5 8.5t26.5 15t9.5 24.5q0 14 -8 23t-20 14.5t-26.5 7.5t-28.5 2zM291 784l116 -57l-102 -138h-99z" />
    <glyph glyph-name="acircumflex" unicode="&#xe2;" horiz-adv-x="550" 
d="M345 249q-14 -10 -38 -15t-57 -11q-14 -3 -27.5 -6.5t-24 -10.5t-16.5 -17.5t-6 -27.5q0 -57 68 -57q20 0 38 5.5t32 17.5t22.5 30t8.5 42v50zM262 421q-38 0 -83.5 -12.5t-82.5 -35.5l-52 111q44 27 105.5 44.5t125.5 17.5q49 0 90 -10t70.5 -32t46 -57t16.5 -85v-362
h-143v51q-22 -27 -55.5 -45t-89.5 -18q-41 0 -75 11t-59 32t-38.5 52t-13.5 71q0 50 20 81t49 48t63 24.5t61 11.5q28 4 51.5 7t40.5 8.5t26.5 15t9.5 24.5q0 14 -8 23t-20 14.5t-26.5 7.5t-28.5 2zM466 589h-99l-102 90l-101 -90h-99l128 185h145z" />
    <glyph glyph-name="atilde" unicode="&#xe3;" horiz-adv-x="550" 
d="M345 249q-14 -10 -38 -15t-57 -11q-14 -3 -27.5 -6.5t-24 -10.5t-16.5 -17.5t-6 -27.5q0 -57 68 -57q20 0 38 5.5t32 17.5t22.5 30t8.5 42v50zM262 421q-38 0 -83.5 -12.5t-82.5 -35.5l-52 111q44 27 105.5 44.5t125.5 17.5q49 0 90 -10t70.5 -32t46 -57t16.5 -85v-362
h-143v51q-22 -27 -55.5 -45t-89.5 -18q-41 0 -75 11t-59 32t-38.5 52t-13.5 71q0 50 20 81t49 48t63 24.5t61 11.5q28 4 51.5 7t40.5 8.5t26.5 15t9.5 24.5q0 14 -8 23t-20 14.5t-26.5 7.5t-28.5 2zM53 622q18 51 50 84.5t88 33.5q24 0 44 -6t40 -17t36 -17t33 -6
q26 0 41 14.5t20 31.5l77 -36q-18 -51 -50 -84.5t-88 -33.5q-24 0 -44 6t-40 17t-36 17t-33 6q-26 0 -41 -14.5t-20 -31.5z" />
    <glyph glyph-name="adieresis" unicode="&#xe4;" horiz-adv-x="550" 
d="M345 249q-14 -10 -38 -15t-57 -11q-14 -3 -27.5 -6.5t-24 -10.5t-16.5 -17.5t-6 -27.5q0 -57 68 -57q20 0 38 5.5t32 17.5t22.5 30t8.5 42v50zM262 421q-38 0 -83.5 -12.5t-82.5 -35.5l-52 111q44 27 105.5 44.5t125.5 17.5q49 0 90 -10t70.5 -32t46 -57t16.5 -85v-362
h-143v51q-22 -27 -55.5 -45t-89.5 -18q-41 0 -75 11t-59 32t-38.5 52t-13.5 71q0 50 20 81t49 48t63 24.5t61 11.5q28 4 51.5 7t40.5 8.5t26.5 15t9.5 24.5q0 14 -8 23t-20 14.5t-26.5 7.5t-28.5 2zM310 594v120h120v-120h-120zM100 594v120h120v-120h-120z" />
    <glyph glyph-name="aring" unicode="&#xe5;" horiz-adv-x="550" 
d="M345 249q-14 -10 -38 -15t-57 -11q-14 -3 -27.5 -6.5t-24 -10.5t-16.5 -17.5t-6 -27.5q0 -57 68 -57q20 0 38 5.5t32 17.5t22.5 30t8.5 42v50zM262 421q-38 0 -83.5 -12.5t-82.5 -35.5l-52 111q44 27 105.5 44.5t125.5 17.5q49 0 90 -10t70.5 -32t46 -57t16.5 -85v-362
h-143v51q-22 -27 -55.5 -45t-89.5 -18q-41 0 -75 11t-59 32t-38.5 52t-13.5 71q0 50 20 81t49 48t63 24.5t61 11.5q28 4 51.5 7t40.5 8.5t26.5 15t9.5 24.5q0 14 -8 23t-20 14.5t-26.5 7.5t-28.5 2zM383 676q0 -24 -9.5 -46t-25.5 -38t-38 -25.5t-46 -9.5t-46 9.5t-38 25.5
t-25.5 38t-9.5 46q0 25 9.5 46.5t25.5 38t38 26t46 9.5t46 -9.5t38 -26t25.5 -38t9.5 -46.5zM313 676q0 20 -14.5 34.5t-34.5 14.5t-34 -14.5t-14 -34.5t14 -34.5t34 -14.5t34.5 14.5t14.5 34.5z" />
    <glyph glyph-name="ae" unicode="&#xe6;" horiz-adv-x="888" 
d="M262 421q-38 0 -83.5 -12.5t-82.5 -35.5l-52 111q44 27 105.5 44.5t126.5 17.5q54 0 97 -14t72 -43q32 26 72.5 41.5t92.5 15.5q59 0 105.5 -20t79 -55.5t49.5 -84.5t17 -107q0 -17 -1 -29.5t-2 -22.5h-360q2 -54 36.5 -79t85.5 -25q82 0 130 62l95 -92
q-45 -54 -103.5 -79.5t-129.5 -25.5q-63 0 -111 19.5t-82 54.5q-68 -74 -192 -74q-98 0 -150.5 42.5t-52.5 122.5q0 51 19.5 81.5t49 48t63 25t61.5 11.5t51.5 7t40.5 8.5t26.5 15t9.5 24.5q0 14 -8 23t-20 14.5t-26.5 7.5t-28.5 2zM345 249q-14 -10 -38 -15t-57 -11
q-14 -3 -27.5 -6.5t-24 -10.5t-16.5 -17.5t-6 -27.5q0 -57 68 -57q20 0 38 5.5t32 17.5t22.5 30t8.5 42v50zM710 331q-4 50 -32.5 75.5t-71.5 25.5q-46 0 -75 -27.5t-33 -73.5h212z" />
    <glyph glyph-name="ccedilla" unicode="&#xe7;" horiz-adv-x="542" 
d="M416 345q-18 33 -45.5 51t-63.5 18q-57 0 -88.5 -41t-31.5 -105q0 -67 32.5 -107.5t90.5 -40.5q40 0 68 19t49 48l101 -84q-17 -23 -39 -44t-50.5 -36.5t-63.5 -25t-77 -9.5q-62 0 -112.5 21t-86 58.5t-55 88t-19.5 110.5t19.5 111t55 88.5t85 59t110.5 21.5
q45 0 81 -11.5t64.5 -30t50 -42t35.5 -48.5zM243 -200q-47 0 -77 14v66q13 -10 30 -13.5t30 -3.5q23 0 35 8.5t12 19.5q0 8 -4 10h-47v63q9 8 24.5 11.5t32.5 3.5q21 0 41 -5.5t35.5 -16.5t25 -27t9.5 -36q0 -43 -41 -68.5t-106 -25.5z" />
    <glyph glyph-name="egrave" unicode="&#xe8;" horiz-adv-x="580" 
d="M402 331q-4 50 -32.5 75.5t-71.5 25.5q-46 0 -75 -27.5t-33 -73.5h212zM25 265q0 60 18 111t52.5 89t84.5 59.5t114 21.5q61 0 109.5 -20t81.5 -55.5t50.5 -84.5t17.5 -107q0 -17 -1 -29.5t-2 -22.5h-360q2 -54 36.5 -79t85.5 -25q82 0 130 62l95 -92
q-45 -54 -103.5 -79.5t-130.5 -25.5q-67 0 -118.5 21t-87 58t-54 87.5t-18.5 110.5zM351 589h-99l-102 138l116 57z" />
    <glyph glyph-name="eacute" unicode="&#xe9;" horiz-adv-x="580" 
d="M402 331q-4 50 -32.5 75.5t-71.5 25.5q-46 0 -75 -27.5t-33 -73.5h212zM25 265q0 60 18 111t52.5 89t84.5 59.5t114 21.5q61 0 109.5 -20t81.5 -55.5t50.5 -84.5t17.5 -107q0 -17 -1 -29.5t-2 -22.5h-360q2 -54 36.5 -79t85.5 -25q82 0 130 62l95 -92
q-45 -54 -103.5 -79.5t-130.5 -25.5q-67 0 -118.5 21t-87 58t-54 87.5t-18.5 110.5zM305 784l116 -57l-102 -138h-99z" />
    <glyph glyph-name="ecircumflex" unicode="&#xea;" horiz-adv-x="580" 
d="M402 331q-4 50 -32.5 75.5t-71.5 25.5q-46 0 -75 -27.5t-33 -73.5h212zM25 265q0 60 18 111t52.5 89t84.5 59.5t114 21.5q61 0 109.5 -20t81.5 -55.5t50.5 -84.5t17.5 -107q0 -17 -1 -29.5t-2 -22.5h-360q2 -54 36.5 -79t85.5 -25q82 0 130 62l95 -92
q-45 -54 -103.5 -79.5t-130.5 -25.5q-67 0 -118.5 21t-87 58t-54 87.5t-18.5 110.5zM490 589h-99l-102 90l-101 -90h-99l128 185h145z" />
    <glyph glyph-name="edieresis" unicode="&#xeb;" horiz-adv-x="580" 
d="M402 331q-4 50 -32.5 75.5t-71.5 25.5q-46 0 -75 -27.5t-33 -73.5h212zM25 265q0 60 18 111t52.5 89t84.5 59.5t114 21.5q61 0 109.5 -20t81.5 -55.5t50.5 -84.5t17.5 -107q0 -17 -1 -29.5t-2 -22.5h-360q2 -54 36.5 -79t85.5 -25q82 0 130 62l95 -92
q-45 -54 -103.5 -79.5t-130.5 -25.5q-67 0 -118.5 21t-87 58t-54 87.5t-18.5 110.5zM334 594v120h120v-120h-120zM124 594v120h120v-120h-120z" />
    <glyph glyph-name="igrave" unicode="&#xec;" horiz-adv-x="266" 
d="M56 0v534h154v-534h-154zM201 589h-99l-102 138l116 57z" />
    <glyph glyph-name="iacute" unicode="&#xed;" horiz-adv-x="266" 
d="M56 0v534h154v-534h-154zM150 784l116 -57l-102 -138h-99z" />
    <glyph glyph-name="icircumflex" unicode="&#xee;" horiz-adv-x="266" 
d="M56 0v534h154v-534h-154zM334 589h-99l-102 90l-101 -90h-99l128 185h145z" />
    <glyph glyph-name="idieresis" unicode="&#xef;" horiz-adv-x="266" 
d="M56 0v534h154v-534h-154zM178 594v120h120v-120h-120zM-32 594v120h120v-120h-120z" />
    <glyph glyph-name="eth" unicode="&#xf0;" horiz-adv-x="604" 
d="M227 556l83 40q-24 6 -53 6q-26 0 -60.5 -7.5t-69.5 -36.5l-57 120q41 27 89 38t95 11q62 0 110.5 -16.5t85.5 -47.5l107 51v-71l-61 -29q37 -51 55 -119.5t18 -151.5q0 -174 -73 -265t-204 -91q-63 0 -112.5 20.5t-83 55.5t-51.5 81.5t-18 98.5q0 53 18 96t49.5 73.5
t75 47t94.5 16.5q30 0 53.5 -5.5t41 -13t29.5 -16.5t19 -16q0 86 -33 130l-147 -70v71zM404 244q0 52 -30 80.5t-77 28.5q-27 0 -47 -9.5t-33 -26t-19.5 -38t-6.5 -45.5q0 -48 25.5 -80.5t76.5 -32.5q29 0 50 11t34.5 28t20 39t6.5 45z" />
    <glyph glyph-name="ntilde" unicode="&#xf1;" horiz-adv-x="591" 
d="M56 0v534h154v-58q24 31 63.5 50.5t89.5 19.5q43 0 75.5 -15t55 -40.5t34 -60.5t11.5 -75v-355h-154v320q0 17 -3.5 33.5t-12 29t-23.5 20t-38 7.5q-42 0 -70 -27t-28 -79v-304h-154zM91 622q18 51 50 84.5t88 33.5q24 0 44 -6t40 -17t36 -17t33 -6q26 0 41 14.5t20 31.5
l77 -36q-18 -51 -50 -84.5t-88 -33.5q-24 0 -44 6t-40 17t-36 17t-33 6q-26 0 -41 -14.5t-20 -31.5z" />
    <glyph glyph-name="ograve" unicode="&#xf2;" horiz-adv-x="604" 
d="M579 266q0 -62 -19.5 -113.5t-55.5 -88t-87.5 -56.5t-114.5 -20t-114 20t-87.5 56.5t-56 88t-19.5 113.5q0 63 19.5 114.5t56 88t87.5 57t114 20.5t114.5 -20.5t87.5 -57t55.5 -88t19.5 -114.5zM417 267q0 66 -29 108.5t-86 42.5q-56 0 -85 -42.5t-29 -108.5t29 -108.5
t85 -42.5q57 0 86 42.5t29 108.5zM361 589h-99l-102 138l116 57z" />
    <glyph glyph-name="oacute" unicode="&#xf3;" horiz-adv-x="604" 
d="M579 266q0 -62 -19.5 -113.5t-55.5 -88t-87.5 -56.5t-114.5 -20t-114 20t-87.5 56.5t-56 88t-19.5 113.5q0 63 19.5 114.5t56 88t87.5 57t114 20.5t114.5 -20.5t87.5 -57t55.5 -88t19.5 -114.5zM417 267q0 66 -29 108.5t-86 42.5q-56 0 -85 -42.5t-29 -108.5t29 -108.5
t85 -42.5q57 0 86 42.5t29 108.5zM311 784l116 -57l-102 -138h-99z" />
    <glyph glyph-name="ocircumflex" unicode="&#xf4;" horiz-adv-x="604" 
d="M579 266q0 -62 -19.5 -113.5t-55.5 -88t-87.5 -56.5t-114.5 -20t-114 20t-87.5 56.5t-56 88t-19.5 113.5q0 63 19.5 114.5t56 88t87.5 57t114 20.5t114.5 -20.5t87.5 -57t55.5 -88t19.5 -114.5zM417 267q0 66 -29 108.5t-86 42.5q-56 0 -85 -42.5t-29 -108.5t29 -108.5
t85 -42.5q57 0 86 42.5t29 108.5zM503 589h-99l-102 90l-101 -90h-99l128 185h145z" />
    <glyph glyph-name="otilde" unicode="&#xf5;" horiz-adv-x="604" 
d="M579 266q0 -62 -19.5 -113.5t-55.5 -88t-87.5 -56.5t-114.5 -20t-114 20t-87.5 56.5t-56 88t-19.5 113.5q0 63 19.5 114.5t56 88t87.5 57t114 20.5t114.5 -20.5t87.5 -57t55.5 -88t19.5 -114.5zM417 267q0 66 -29 108.5t-86 42.5q-56 0 -85 -42.5t-29 -108.5t29 -108.5
t85 -42.5q57 0 86 42.5t29 108.5zM88 622q18 51 50 84.5t88 33.5q24 0 44 -6t40 -17t36 -17t33 -6q26 0 41 14.5t20 31.5l77 -36q-18 -51 -50 -84.5t-88 -33.5q-24 0 -44 6t-40 17t-36 17t-33 6q-26 0 -41 -14.5t-20 -31.5z" />
    <glyph glyph-name="odieresis" unicode="&#xf6;" horiz-adv-x="604" 
d="M579 266q0 -62 -19.5 -113.5t-55.5 -88t-87.5 -56.5t-114.5 -20t-114 20t-87.5 56.5t-56 88t-19.5 113.5q0 63 19.5 114.5t56 88t87.5 57t114 20.5t114.5 -20.5t87.5 -57t55.5 -88t19.5 -114.5zM417 267q0 66 -29 108.5t-86 42.5q-56 0 -85 -42.5t-29 -108.5t29 -108.5
t85 -42.5q57 0 86 42.5t29 108.5zM347 594v120h120v-120h-120zM137 594v120h120v-120h-120z" />
    <glyph glyph-name="divide" unicode="&#xf7;" 
d="M374 459q0 -18 -6.5 -33.5t-18.5 -27t-27.5 -18.5t-33.5 -7t-33.5 7t-27.5 18.5t-18.5 27t-6.5 33.5q0 36 25 61.5t61 25.5t61 -25.5t25 -61.5zM374 73q0 -18 -6.5 -33.5t-18.5 -27t-27.5 -18.5t-33.5 -7t-33.5 7t-27.5 18.5t-18.5 27t-6.5 33.5q0 36 25 61.5t61 25.5
t61 -25.5t25 -61.5zM20 203v127h535v-127h-535z" />
    <glyph glyph-name="oslash" unicode="&#xf8;" horiz-adv-x="604" 
d="M90 24l21 30q-42 37 -64 91t-22 121q0 63 19.5 114.5t56 88t87.5 57t114 20.5q37 0 70 -8t62 -22l23 33l57 -39l-22 -31q42 -38 64.5 -91.5t22.5 -121.5q0 -62 -19.5 -113.5t-55.5 -88t-87.5 -56.5t-114.5 -20q-74 0 -134 29l-22 -32zM186 267q0 -23 4 -44t12 -38
l156 222q-26 16 -56 16q-28 0 -49.5 -11.5t-36.5 -32.5t-22.5 -49.5t-7.5 -62.5zM418 267q0 46 -16 83l-157 -223q26 -16 57 -16q57 0 86.5 43.5t29.5 112.5z" />
    <glyph glyph-name="ugrave" unicode="&#xf9;" horiz-adv-x="590" 
d="M534 534v-534h-153v58q-24 -32 -64 -51t-90 -19q-42 0 -75 15t-55.5 40.5t-34 60.5t-11.5 75v355h154v-319q0 -17 3.5 -33.5t12 -29.5t23.5 -20.5t38 -7.5q42 0 70.5 27t28.5 79v304h153zM341 589h-99l-102 138l116 57z" />
    <glyph glyph-name="uacute" unicode="&#xfa;" horiz-adv-x="590" 
d="M534 534v-534h-153v58q-24 -32 -64 -51t-90 -19q-42 0 -75 15t-55.5 40.5t-34 60.5t-11.5 75v355h154v-319q0 -17 3.5 -33.5t12 -29.5t23.5 -20.5t38 -7.5q42 0 70.5 27t28.5 79v304h153zM315 784l116 -57l-102 -138h-99z" />
    <glyph glyph-name="ucircumflex" unicode="&#xfb;" horiz-adv-x="590" 
d="M534 534v-534h-153v58q-24 -32 -64 -51t-90 -19q-42 0 -75 15t-55.5 40.5t-34 60.5t-11.5 75v355h154v-319q0 -17 3.5 -33.5t12 -29.5t23.5 -20.5t38 -7.5q42 0 70.5 27t28.5 79v304h153zM493 589h-99l-102 90l-101 -90h-99l128 185h145z" />
    <glyph glyph-name="udieresis" unicode="&#xfc;" horiz-adv-x="590" 
d="M534 534v-534h-153v58q-24 -32 -64 -51t-90 -19q-42 0 -75 15t-55.5 40.5t-34 60.5t-11.5 75v355h154v-319q0 -17 3.5 -33.5t12 -29.5t23.5 -20.5t38 -7.5q42 0 70.5 27t28.5 79v304h153zM337 594v120h120v-120h-120zM127 594v120h120v-120h-120z" />
    <glyph glyph-name="yacute" unicode="&#xfd;" horiz-adv-x="551" 
d="M354 -3q-21 -56 -42.5 -91.5t-46 -55.5t-53 -27t-64.5 -7t-58 5t-34 11l33 120q17 -10 39 -10q28 0 43 17t29 52l-205 523h174l110 -339l110 339h165zM305 784l116 -57l-102 -138h-99z" />
    <glyph glyph-name="thorn" unicode="&#xfe;" horiz-adv-x="630" 
d="M210 714v-239q26 35 66 53t88 18q54 0 98 -21t75.5 -58.5t48.5 -88.5t17 -110q0 -60 -17 -111t-48 -88.5t-75.5 -59t-98.5 -21.5q-48 0 -88 18t-66 53v-233h-154v888h154zM210 268q0 -30 7.5 -57t22.5 -47.5t37 -32t51 -11.5t50.5 12t35.5 32t21 47t7 57t-7 56.5
t-21 46.5t-35.5 31.5t-50.5 11.5q-30 0 -52 -11.5t-36.5 -31t-22 -46.5t-7.5 -57z" />
    <glyph glyph-name="ydieresis" unicode="&#xff;" horiz-adv-x="551" 
d="M354 -3q-21 -56 -42.5 -91.5t-46 -55.5t-53 -27t-64.5 -7t-58 5t-34 11l33 120q17 -10 39 -10q28 0 43 17t29 52l-205 523h174l110 -339l110 339h165zM324 594v120h120v-120h-120zM114 594v120h120v-120h-120z" />
    <glyph glyph-name="Amacron" unicode="&#x100;" horiz-adv-x="704" 
d="M525 0l-49 160h-253l-49 -160h-174l257 714h191l256 -714h-179zM350 579l-90 -290h178zM203 768v100h299v-100h-299z" />
    <glyph glyph-name="amacron" unicode="&#x101;" horiz-adv-x="550" 
d="M345 249q-14 -10 -38 -15t-57 -11q-14 -3 -27.5 -6.5t-24 -10.5t-16.5 -17.5t-6 -27.5q0 -57 68 -57q20 0 38 5.5t32 17.5t22.5 30t8.5 42v50zM262 421q-38 0 -83.5 -12.5t-82.5 -35.5l-52 111q44 27 105.5 44.5t125.5 17.5q49 0 90 -10t70.5 -32t46 -57t16.5 -85v-362
h-143v51q-22 -27 -55.5 -45t-89.5 -18q-41 0 -75 11t-59 32t-38.5 52t-13.5 71q0 50 20 81t49 48t63 24.5t61 11.5q28 4 51.5 7t40.5 8.5t26.5 15t9.5 24.5q0 14 -8 23t-20 14.5t-26.5 7.5t-28.5 2zM116 600v100h299v-100h-299z" />
    <glyph glyph-name="Abreve" unicode="&#x102;" horiz-adv-x="704" 
d="M525 0l-49 160h-253l-49 -160h-174l257 714h191l256 -714h-179zM350 579l-90 -290h178zM352 750q-45 0 -78.5 13t-57.5 32.5t-39.5 42.5t-24.5 44l87 40q17 -32 44 -52t69 -20t68.5 20t43.5 52l88 -40q-9 -21 -25 -44t-40 -42.5t-57.5 -32.5t-77.5 -13z" />
    <glyph glyph-name="abreve" unicode="&#x103;" horiz-adv-x="550" 
d="M345 249q-14 -10 -38 -15t-57 -11q-14 -3 -27.5 -6.5t-24 -10.5t-16.5 -17.5t-6 -27.5q0 -57 68 -57q20 0 38 5.5t32 17.5t22.5 30t8.5 42v50zM262 421q-38 0 -83.5 -12.5t-82.5 -35.5l-52 111q44 27 105.5 44.5t125.5 17.5q49 0 90 -10t70.5 -32t46 -57t16.5 -85v-362
h-143v51q-22 -27 -55.5 -45t-89.5 -18q-41 0 -75 11t-59 32t-38.5 52t-13.5 71q0 50 20 81t49 48t63 24.5t61 11.5q28 4 51.5 7t40.5 8.5t26.5 15t9.5 24.5q0 14 -8 23t-20 14.5t-26.5 7.5t-28.5 2zM265 582q-45 0 -78.5 13t-57.5 32.5t-39.5 42.5t-24.5 44l87 40
q17 -32 44 -52t69 -20t68.5 20t43.5 52l88 -40q-9 -21 -25 -44t-40 -42.5t-57.5 -32.5t-77.5 -13z" />
    <glyph glyph-name="Aogonek" unicode="&#x104;" horiz-adv-x="704" 
d="M602 0q-13 -13 -20 -26t-7 -28q0 -21 13.5 -31.5t36.5 -10.5q21 0 38.5 8t30.5 21v-90q-11 -10 -33.5 -18.5t-54.5 -8.5q-54 0 -88 28t-34 76q0 51 37 90l-45 150h-253l-49 -160h-174l257 714h191l256 -714h-102zM350 579l-90 -290h178z" />
    <glyph glyph-name="aogonek" unicode="&#x105;" horiz-adv-x="550" 
d="M262 421q-38 0 -83.5 -12.5t-82.5 -35.5l-52 111q44 27 105.5 44.5t129.5 17.5q47 0 87 -10t69.5 -32t46 -57t16.5 -85v-362q-47 0 -76 -18t-29 -44q0 -17 12 -25.5t30 -8.5q20 0 37 9t26 20v-90q-11 -10 -30 -18.5t-51 -8.5q-50 0 -82.5 24.5t-32.5 67.5q0 26 13.5 49
t39.5 43v51q-22 -27 -55.5 -45t-89.5 -18q-41 0 -75 11t-59 32t-38.5 52t-13.5 71q0 50 20 81t49 48t63 24.5t61 11.5q28 4 51.5 7t40.5 8.5t26.5 15t9.5 24.5q0 14 -8 23t-20 14.5t-26.5 7.5t-28.5 2zM345 249q-14 -10 -38 -15t-57 -11q-14 -3 -27.5 -6.5t-24 -10.5
t-16.5 -17.5t-6 -27.5q0 -57 68 -57q20 0 38 5.5t32 17.5t22.5 30t8.5 42v50z" />
    <glyph glyph-name="Cacute" unicode="&#x106;" horiz-adv-x="701" 
d="M556 480q-32 56 -75 81t-99 25q-44 0 -79 -17t-59.5 -47.5t-37.5 -72.5t-13 -91q0 -50 13 -92t37.5 -73t60 -48t79.5 -17q64 0 106.5 32t67.5 80l129 -69q-48 -88 -124 -136t-182 -48q-78 0 -143 26.5t-111.5 75.5t-72 117.5t-25.5 151.5t25.5 151t72 116.5t111 75
t141.5 26.5q93 0 171.5 -41t132.5 -132zM386 952l116 -57l-102 -138h-99z" />
    <glyph glyph-name="cacute" unicode="&#x107;" horiz-adv-x="542" 
d="M416 345q-18 33 -45.5 51t-63.5 18q-57 0 -88.5 -41t-31.5 -105q0 -67 32.5 -107.5t90.5 -40.5q40 0 68 19t49 48l101 -84q-17 -23 -39 -44t-50.5 -36.5t-63.5 -25t-77 -9.5q-62 0 -112.5 21t-86 58.5t-55 88t-19.5 110.5t19.5 111t55 88.5t85 59t110.5 21.5
q45 0 81 -11.5t64.5 -30t50 -42t35.5 -48.5zM295 784l116 -57l-102 -138h-99z" />
    <glyph glyph-name="Ccircumflex" unicode="&#x108;" horiz-adv-x="701" 
d="M556 480q-32 56 -75 81t-99 25q-44 0 -79 -17t-59.5 -47.5t-37.5 -72.5t-13 -91q0 -50 13 -92t37.5 -73t60 -48t79.5 -17q64 0 106.5 32t67.5 80l129 -69q-48 -88 -124 -136t-182 -48q-78 0 -143 26.5t-111.5 75.5t-72 117.5t-25.5 151.5t25.5 151t72 116.5t111 75
t141.5 26.5q93 0 171.5 -41t132.5 -132zM574 766h-99l-102 90l-101 -90h-99l128 185h145z" />
    <glyph glyph-name="ccircumflex" unicode="&#x109;" horiz-adv-x="542" 
d="M416 345q-18 33 -45.5 51t-63.5 18q-57 0 -88.5 -41t-31.5 -105q0 -67 32.5 -107.5t90.5 -40.5q40 0 68 19t49 48l101 -84q-17 -23 -39 -44t-50.5 -36.5t-63.5 -25t-77 -9.5q-62 0 -112.5 21t-86 58.5t-55 88t-19.5 110.5t19.5 111t55 88.5t85 59t110.5 21.5
q45 0 81 -11.5t64.5 -30t50 -42t35.5 -48.5zM484 589h-99l-102 90l-101 -90h-99l128 185h145z" />
    <glyph glyph-name="Cdotaccent" unicode="&#x10a;" horiz-adv-x="701" 
d="M556 480q-32 56 -75 81t-99 25q-44 0 -79 -17t-59.5 -47.5t-37.5 -72.5t-13 -91q0 -50 13 -92t37.5 -73t60 -48t79.5 -17q64 0 106.5 32t67.5 80l129 -69q-48 -88 -124 -136t-182 -48q-78 0 -143 26.5t-111.5 75.5t-72 117.5t-25.5 151.5t25.5 151t72 116.5t111 75
t141.5 26.5q93 0 171.5 -41t132.5 -132zM313 762v120h120v-120h-120z" />
    <glyph glyph-name="cdotaccent" unicode="&#x10b;" horiz-adv-x="542" 
d="M416 345q-18 33 -45.5 51t-63.5 18q-57 0 -88.5 -41t-31.5 -105q0 -67 32.5 -107.5t90.5 -40.5q40 0 68 19t49 48l101 -84q-17 -23 -39 -44t-50.5 -36.5t-63.5 -25t-77 -9.5q-62 0 -112.5 21t-86 58.5t-55 88t-19.5 110.5t19.5 111t55 88.5t85 59t110.5 21.5
q45 0 81 -11.5t64.5 -30t50 -42t35.5 -48.5zM223 594v120h120v-120h-120z" />
    <glyph glyph-name="Ccaron" unicode="&#x10c;" horiz-adv-x="701" 
d="M556 480q-32 56 -75 81t-99 25q-44 0 -79 -17t-59.5 -47.5t-37.5 -72.5t-13 -91q0 -50 13 -92t37.5 -73t60 -48t79.5 -17q64 0 106.5 32t67.5 80l129 -69q-48 -88 -124 -136t-182 -48q-78 0 -143 26.5t-111.5 75.5t-72 117.5t-25.5 151.5t25.5 151t72 116.5t111 75
t141.5 26.5q93 0 171.5 -41t132.5 -132zM443 757h-145l-128 185h99l101 -90l102 90h99z" />
    <glyph glyph-name="ccaron" unicode="&#x10d;" horiz-adv-x="547" 
d="M416 345q-18 33 -45.5 51t-63.5 18q-57 0 -88.5 -41t-31.5 -105q0 -67 32.5 -107.5t90.5 -40.5q40 0 68 19t49 48l101 -84q-17 -23 -39 -44t-50.5 -36.5t-63.5 -25t-77 -9.5q-62 0 -112.5 21t-86 58.5t-55 88t-19.5 110.5t19.5 111t55 88.5t85 59t110.5 21.5
q45 0 81 -11.5t64.5 -30t50 -42t35.5 -48.5zM358 589h-145l-128 185h99l101 -90l102 90h99z" />
    <glyph glyph-name="Dcaron" unicode="&#x10e;" horiz-adv-x="738" 
d="M353 143q94 0 142.5 57.5t48.5 156.5t-48.5 156t-142.5 57h-129v-427h129zM64 0v714h289q87 0 153.5 -27t111.5 -75t68 -113.5t23 -141.5t-23 -141.5t-68 -113.5t-111.5 -75t-153.5 -27h-289zM427 757h-145l-128 185h99l101 -90l102 90h99z" />
    <glyph glyph-name="dcaron" unicode="&#x10f;" horiz-adv-x="737" 
d="M708 418h-81v296h146zM421 0v59q-26 -35 -66.5 -53t-88.5 -18q-54 0 -98 21t-75.5 58.5t-48.5 88t-17 110.5q0 59 17 110.5t48.5 89t75.5 59t98 21.5q48 0 88.5 -18.5t66.5 -53.5v240h153v-714h-153zM421 266q0 30 -7.5 57t-22.5 47.5t-37.5 32t-51.5 11.5t-50 -12
t-35 -32t-21 -47t-7 -57t7 -56.5t21 -46.5t35 -31.5t50 -11.5q30 0 52 11.5t37 31.5t22.5 46.5t7.5 56.5z" />
    <glyph glyph-name="Dcroat" unicode="&#x110;" horiz-adv-x="763" 
d="M734 357q0 -77 -23 -142t-68 -113t-111 -75t-153 -27h-290v298h-66v127h66v289h290q87 0 153 -27t111 -75t68 -113.5t23 -141.5zM568 357q0 100 -48.5 156.5t-140.5 56.5h-130v-145h163v-127h-163v-155h130q92 0 140.5 56.5t48.5 157.5z" />
    <glyph glyph-name="dcroat" unicode="&#x111;" horiz-adv-x="630" 
d="M421 0v59q-26 -35 -66.5 -53t-88.5 -18q-54 0 -98 21t-75.5 58.5t-48.5 88t-17 110.5q0 59 17 110.5t48.5 89t75.5 59t98 21.5q48 0 88.5 -18.5t66.5 -53.5v125h-106v67h106v48h153v-48h33v-67h-33v-599h-153zM421 266q0 30 -7.5 57t-22.5 47.5t-37.5 32t-51.5 11.5
t-50 -12t-35 -32t-21 -47t-7 -57t7 -56.5t21 -46.5t35 -31.5t50 -11.5q30 0 52 11.5t37 31.5t22.5 46.5t7.5 56.5z" />
    <glyph glyph-name="Emacron" unicode="&#x112;" horiz-adv-x="636" 
d="M64 0v714h521v-144h-361v-140h321v-128h-321v-159h371v-143h-531zM181 768v100h299v-100h-299z" />
    <glyph glyph-name="emacron" unicode="&#x113;" horiz-adv-x="580" 
d="M402 331q-4 50 -32.5 75.5t-71.5 25.5q-46 0 -75 -27.5t-33 -73.5h212zM25 265q0 60 18 111t52.5 89t84.5 59.5t114 21.5q61 0 109.5 -20t81.5 -55.5t50.5 -84.5t17.5 -107q0 -17 -1 -29.5t-2 -22.5h-360q2 -54 36.5 -79t85.5 -25q82 0 130 62l95 -92
q-45 -54 -103.5 -79.5t-130.5 -25.5q-67 0 -118.5 21t-87 58t-54 87.5t-18.5 110.5zM140 600v100h299v-100h-299z" />
    <glyph glyph-name="Ebreve" unicode="&#x114;" horiz-adv-x="636" 
d="M64 0v714h521v-144h-361v-140h321v-128h-321v-159h371v-143h-531zM325 750q-45 0 -78.5 13t-57.5 32.5t-39.5 42.5t-24.5 44l87 40q17 -32 44 -52t69 -20t68.5 20t43.5 52l88 -40q-9 -21 -25 -44t-40 -42.5t-57.5 -32.5t-77.5 -13z" />
    <glyph glyph-name="ebreve" unicode="&#x115;" horiz-adv-x="580" 
d="M402 331q-4 50 -32.5 75.5t-71.5 25.5q-46 0 -75 -27.5t-33 -73.5h212zM25 265q0 60 18 111t52.5 89t84.5 59.5t114 21.5q61 0 109.5 -20t81.5 -55.5t50.5 -84.5t17.5 -107q0 -17 -1 -29.5t-2 -22.5h-360q2 -54 36.5 -79t85.5 -25q82 0 130 62l95 -92
q-45 -54 -103.5 -79.5t-130.5 -25.5q-67 0 -118.5 21t-87 58t-54 87.5t-18.5 110.5zM290 582q-45 0 -78.5 13t-57.5 32.5t-39.5 42.5t-24.5 44l87 40q17 -32 44 -52t69 -20t68.5 20t43.5 52l88 -40q-9 -21 -25 -44t-40 -42.5t-57.5 -32.5t-77.5 -13z" />
    <glyph glyph-name="Edotaccent" unicode="&#x116;" horiz-adv-x="636" 
d="M64 0v714h521v-144h-361v-140h321v-128h-321v-159h371v-143h-531zM250 762v120h120v-120h-120z" />
    <glyph glyph-name="edotaccent" unicode="&#x117;" horiz-adv-x="580" 
d="M402 331q-4 50 -32.5 75.5t-71.5 25.5q-46 0 -75 -27.5t-33 -73.5h212zM25 265q0 60 18 111t52.5 89t84.5 59.5t114 21.5q61 0 109.5 -20t81.5 -55.5t50.5 -84.5t17.5 -107q0 -17 -1 -29.5t-2 -22.5h-360q2 -54 36.5 -79t85.5 -25q82 0 130 62l95 -92
q-45 -54 -103.5 -79.5t-130.5 -25.5q-67 0 -118.5 21t-87 58t-54 87.5t-18.5 110.5zM229 594v120h120v-120h-120z" />
    <glyph glyph-name="Eogonek" unicode="&#x118;" horiz-adv-x="643" 
d="M510 0q-13 -13 -20 -26t-7 -28q0 -21 13.5 -31.5t36.5 -10.5q21 0 38.5 8t30.5 21v-90q-11 -10 -33.5 -18.5t-54.5 -8.5q-54 0 -88 28t-34 76q0 43 28 80h-356v714h536v-144h-376v-134h321v-128h-321v-165h378v-143h-92z" />
    <glyph glyph-name="eogonek" unicode="&#x119;" horiz-adv-x="580" 
d="M25 266q0 59 18 110.5t52.5 89t84.5 59t114 21.5q61 0 109.5 -20t81.5 -55.5t50.5 -84.5t17.5 -107q0 -17 -1 -29.5t-2 -22.5h-360q2 -54 36.5 -79t85.5 -25q82 0 130 62l95 -92q-14 -15 -31.5 -30.5t-31.5 -26.5q-32 -25 -52.5 -44.5t-20.5 -45.5q0 -21 13.5 -31.5
t36.5 -10.5q21 0 38.5 8t30.5 21v-90q-11 -10 -33.5 -18.5t-54.5 -8.5q-54 0 -88 28t-34 76q0 37 20 69q-8 0 -13 -0.5t-17 -0.5q-65 0 -116.5 21t-86.5 58t-53.5 88t-18.5 111zM402 331q-4 50 -32.5 75.5t-71.5 25.5q-46 0 -75 -27.5t-33 -73.5h212z" />
    <glyph glyph-name="Ecaron" unicode="&#x11a;" horiz-adv-x="636" 
d="M64 0v714h521v-144h-361v-140h321v-128h-321v-159h371v-143h-531zM393 757h-145l-128 185h99l101 -90l102 90h99z" />
    <glyph glyph-name="ecaron" unicode="&#x11b;" horiz-adv-x="580" 
d="M402 331q-4 50 -32.5 75.5t-71.5 25.5q-46 0 -75 -27.5t-33 -73.5h212zM25 265q0 60 18 111t52.5 89t84.5 59.5t114 21.5q61 0 109.5 -20t81.5 -55.5t50.5 -84.5t17.5 -107q0 -17 -1 -29.5t-2 -22.5h-360q2 -54 36.5 -79t85.5 -25q82 0 130 62l95 -92
q-45 -54 -103.5 -79.5t-130.5 -25.5q-67 0 -118.5 21t-87 58t-54 87.5t-18.5 110.5zM362 589h-145l-128 185h99l101 -90l102 90h99z" />
    <glyph glyph-name="Gcircumflex" unicode="&#x11c;" horiz-adv-x="743" 
d="M384 586q-47 0 -82.5 -17t-59.5 -47t-36.5 -72t-12.5 -91q0 -109 51.5 -170t140.5 -61q68 0 115 33.5t55 101.5h-164v128h326q3 -12 4.5 -30t1.5 -32q0 -71 -22 -133t-65 -108.5t-107 -73.5t-147 -27q-80 0 -145 27t-111.5 76t-72 117.5t-25.5 151.5t25.5 151t72.5 116
t112.5 74.5t146.5 26.5q101 0 177.5 -44.5t122.5 -123.5l-134 -71q-28 53 -70.5 75.5t-96.5 22.5zM578 757h-99l-102 90l-101 -90h-99l128 185h145z" />
    <glyph glyph-name="gcircumflex" unicode="&#x11d;" horiz-adv-x="602" 
d="M422 288q0 27 -7.5 51t-22 42t-36.5 28.5t-51 10.5q-56 0 -85 -38t-29 -94q0 -57 28.5 -96t85.5 -39t87 39t30 96zM422 98q-25 -34 -65.5 -52t-90.5 -18q-53 0 -96.5 20t-75 54.5t-48.5 82t-17 101.5t17.5 101.5t49 83t75 55.5t96.5 20q50 0 90 -18.5t65 -53.5v60h154
v-431q0 -57 -11.5 -107.5t-46.5 -90.5q-44 -50 -106.5 -69.5t-130.5 -19.5q-70 0 -127.5 15.5t-103.5 49.5l69 113q31 -23 68.5 -36.5t88.5 -13.5q71 0 108.5 30t37.5 96v28zM503 589h-99l-102 90l-101 -90h-99l128 185h145z" />
    <glyph glyph-name="Gbreve" unicode="&#x11e;" horiz-adv-x="743" 
d="M384 586q-47 0 -82.5 -17t-59.5 -47t-36.5 -72t-12.5 -91q0 -109 51.5 -170t140.5 -61q68 0 115 33.5t55 101.5h-164v128h326q3 -12 4.5 -30t1.5 -32q0 -71 -22 -133t-65 -108.5t-107 -73.5t-147 -27q-80 0 -145 27t-111.5 76t-72 117.5t-25.5 151.5t25.5 151t72.5 116
t112.5 74.5t146.5 26.5q101 0 177.5 -44.5t122.5 -123.5l-134 -71q-28 53 -70.5 75.5t-96.5 22.5zM373 750q-45 0 -78.5 13t-57.5 32.5t-39.5 42.5t-24.5 44l87 40q17 -32 44 -52t69 -20t68.5 20t43.5 52l88 -40q-9 -21 -25 -44t-40 -42.5t-57.5 -32.5t-77.5 -13z" />
    <glyph glyph-name="gbreve" unicode="&#x11f;" horiz-adv-x="602" 
d="M422 288q0 27 -7.5 51t-22 42t-36.5 28.5t-51 10.5q-56 0 -85 -38t-29 -94q0 -57 28.5 -96t85.5 -39t87 39t30 96zM422 98q-25 -34 -65.5 -52t-90.5 -18q-53 0 -96.5 20t-75 54.5t-48.5 82t-17 101.5t17.5 101.5t49 83t75 55.5t96.5 20q50 0 90 -18.5t65 -53.5v60h154
v-431q0 -57 -11.5 -107.5t-46.5 -90.5q-44 -50 -106.5 -69.5t-130.5 -19.5q-70 0 -127.5 15.5t-103.5 49.5l69 113q31 -23 68.5 -36.5t88.5 -13.5q71 0 108.5 30t37.5 96v28zM293 582q-45 0 -78.5 13t-57.5 32.5t-39.5 42.5t-24.5 44l87 40q17 -32 44 -52t69 -20t68.5 20
t43.5 52l88 -40q-9 -21 -25 -44t-40 -42.5t-57.5 -32.5t-77.5 -13z" />
    <glyph glyph-name="Gdotaccent" unicode="&#x120;" horiz-adv-x="743" 
d="M384 586q-47 0 -82.5 -17t-59.5 -47t-36.5 -72t-12.5 -91q0 -109 51.5 -170t140.5 -61q68 0 115 33.5t55 101.5h-164v128h326q3 -12 4.5 -30t1.5 -32q0 -71 -22 -133t-65 -108.5t-107 -73.5t-147 -27q-80 0 -145 27t-111.5 76t-72 117.5t-25.5 151.5t25.5 151t72.5 116
t112.5 74.5t146.5 26.5q101 0 177.5 -44.5t122.5 -123.5l-134 -71q-28 53 -70.5 75.5t-96.5 22.5zM312 762v120h120v-120h-120z" />
    <glyph glyph-name="gdotaccent" unicode="&#x121;" horiz-adv-x="602" 
d="M422 288q0 27 -7.5 51t-22 42t-36.5 28.5t-51 10.5q-56 0 -85 -38t-29 -94q0 -57 28.5 -96t85.5 -39t87 39t30 96zM422 98q-25 -34 -65.5 -52t-90.5 -18q-53 0 -96.5 20t-75 54.5t-48.5 82t-17 101.5t17.5 101.5t49 83t75 55.5t96.5 20q50 0 90 -18.5t65 -53.5v60h154
v-431q0 -57 -11.5 -107.5t-46.5 -90.5q-44 -50 -106.5 -69.5t-130.5 -19.5q-70 0 -127.5 15.5t-103.5 49.5l69 113q31 -23 68.5 -36.5t88.5 -13.5q71 0 108.5 30t37.5 96v28zM225 594v120h120v-120h-120z" />
    <glyph glyph-name="Gcommaaccent" unicode="&#x122;" horiz-adv-x="743" 
d="M384 586q-47 0 -82.5 -17t-59.5 -47t-36.5 -72t-12.5 -91q0 -109 51.5 -170t140.5 -61q68 0 115 33.5t55 101.5h-164v128h326q3 -12 4.5 -30t1.5 -32q0 -71 -22 -133t-65 -108.5t-107 -73.5t-147 -27q-80 0 -145 27t-111.5 76t-72 117.5t-25.5 151.5t25.5 151t72.5 116
t112.5 74.5t146.5 26.5q101 0 177.5 -44.5t122.5 -123.5l-134 -71q-28 53 -70.5 75.5t-96.5 22.5zM305 -30h156l-136 -170l-78 26z" />
    <glyph glyph-name="gcommaaccent" unicode="&#x123;" horiz-adv-x="602" 
d="M351 589h-156l136 170l78 -26zM422 288q0 27 -7.5 51t-22 42t-36.5 28.5t-51 10.5q-56 0 -85 -38t-29 -94q0 -57 28.5 -96t85.5 -39t87 39t30 96zM422 98q-25 -34 -65.5 -52t-90.5 -18q-53 0 -96.5 20t-75 54.5t-48.5 82t-17 101.5t17.5 101.5t49 83t75 55.5t96.5 20
q50 0 90 -18.5t65 -53.5v60h154v-431q0 -57 -11.5 -107.5t-46.5 -90.5q-44 -50 -106.5 -69.5t-130.5 -19.5q-70 0 -127.5 15.5t-103.5 49.5l69 113q31 -23 68.5 -36.5t88.5 -13.5q71 0 108.5 30t37.5 96v28z" />
    <glyph glyph-name="Hcircumflex" unicode="&#x124;" horiz-adv-x="713" 
d="M524 0v302h-300v-302h-160v714h160v-269h300v269h159v-714h-159zM574 757h-99l-102 90l-101 -90h-99l128 185h145z" />
    <glyph glyph-name="hcircumflex" unicode="&#x125;" horiz-adv-x="591" 
d="M56 0v714h154v-238q24 31 63.5 50.5t89.5 19.5q43 0 75.5 -15t55 -40.5t34 -60.5t11.5 -75v-355h-154v320q0 17 -3.5 33.5t-12 29t-23.5 20t-38 7.5q-42 0 -70 -27t-28 -79v-304h-154zM337 757h-99l-102 90l-101 -90h-99l128 185h145z" />
    <glyph glyph-name="Hbar" unicode="&#x126;" horiz-adv-x="714" 
d="M506 0v303h-299v-303h-160v570h-34v83h34v61h160v-61h299v61h161v-61h33v-83h-33v-570h-161zM506 446v124h-299v-124h299z" />
    <glyph glyph-name="hbar" unicode="&#x127;" horiz-adv-x="591" 
d="M56 0v599h-32v67h32v48h154v-48h106v-67h-106v-123q24 31 63.5 50.5t89.5 19.5q43 0 75.5 -15t55 -40.5t34 -60.5t11.5 -75v-355h-154v320q0 17 -3.5 33.5t-12 29t-23.5 20t-38 7.5q-42 0 -70 -27t-28 -79v-304h-154z" />
    <glyph glyph-name="Itilde" unicode="&#x128;" horiz-adv-x="288" 
d="M64 0v714h160v-714h-160zM-70 790q18 51 50 84.5t88 33.5q24 0 44 -6t40 -17t36 -17t33 -6q26 0 41 14.5t20 31.5l77 -36q-18 -51 -50 -84.5t-88 -33.5q-24 0 -44 6t-40 17t-36 17t-33 6q-26 0 -41 -14.5t-20 -31.5z" />
    <glyph glyph-name="itilde" unicode="&#x129;" horiz-adv-x="266" 
d="M56 0v534h154v-534h-154zM-81 622q18 51 50 84.5t88 33.5q24 0 44 -6t40 -17t36 -17t33 -6q26 0 41 14.5t20 31.5l77 -36q-18 -51 -50 -84.5t-88 -33.5q-24 0 -44 6t-40 17t-36 17t-33 6q-26 0 -41 -14.5t-20 -31.5z" />
    <glyph glyph-name="Imacron" unicode="&#x12a;" horiz-adv-x="288" 
d="M64 0v714h160v-714h-160zM-5 768v100h299v-100h-299z" />
    <glyph glyph-name="imacron" unicode="&#x12b;" horiz-adv-x="266" 
d="M56 0v534h154v-534h-154zM-16 600v100h299v-100h-299z" />
    <glyph glyph-name="Ibreve" unicode="&#x12c;" horiz-adv-x="288" 
d="M64 0v714h160v-714h-160zM144 750q-45 0 -78.5 13t-57.5 32.5t-39.5 42.5t-24.5 44l87 40q17 -32 44 -52t69 -20t68.5 20t43.5 52l88 -40q-9 -21 -25 -44t-40 -42.5t-57.5 -32.5t-77.5 -13z" />
    <glyph glyph-name="ibreve" unicode="&#x12d;" horiz-adv-x="266" 
d="M56 0v534h154v-534h-154zM133 582q-45 0 -78.5 13t-57.5 32.5t-39.5 42.5t-24.5 44l87 40q17 -32 44 -52t69 -20t68.5 20t43.5 52l88 -40q-9 -21 -25 -44t-40 -42.5t-57.5 -32.5t-77.5 -13z" />
    <glyph glyph-name="Iogonek" unicode="&#x12e;" horiz-adv-x="288" 
d="M64 714h160v-714q-48 0 -76.5 -18t-28.5 -44q0 -17 12 -25.5t30 -8.5q20 0 37 9t26 20v-90q-11 -10 -30 -18.5t-51 -8.5q-50 0 -82.5 24.5t-32.5 67.5q0 53 36 92v714z" />
    <glyph glyph-name="iogonek" unicode="&#x12f;" horiz-adv-x="266" 
d="M56 590v124h154v-124h-154zM56 534h154v-534q-48 0 -76.5 -18t-28.5 -44q0 -17 12 -25.5t30 -8.5q20 0 37 9t26 20v-90q-11 -10 -30 -18.5t-51 -8.5q-50 0 -82.5 24.5t-32.5 67.5q0 26 12.5 49t29.5 43v534z" />
    <glyph glyph-name="Idotaccent" unicode="&#x130;" horiz-adv-x="288" 
d="M64 0v714h160v-714h-160zM84 762v120h120v-120h-120z" />
    <glyph glyph-name="dotlessi" unicode="&#x131;" horiz-adv-x="266" 
d="M56 0v534h154v-534h-154z" />
    <glyph glyph-name="Jcircumflex" unicode="&#x134;" horiz-adv-x="551" 
d="M333 714h159v-463q0 -119 -59 -187q-32 -38 -81 -57.5t-111 -19.5q-91 0 -152.5 41t-89.5 117l129 63q12 -44 40 -63t66 -19q49 0 74 28.5t25 82.5v477zM611 757h-99l-102 90l-101 -90h-99l128 185h145z" />
    <glyph glyph-name="jcircumflex" unicode="&#x135;" horiz-adv-x="265" 
d="M209 -4q0 -91 -41.5 -135.5t-130.5 -44.5q-26 0 -50 3.5t-43 11.5l21 114q7 -3 15.5 -6t23.5 -3q26 0 39 14t13 53v531h153v-538zM331 589h-99l-102 90l-101 -90h-99l128 185h145z" />
    <glyph glyph-name="Kcommaaccent" unicode="&#x136;" horiz-adv-x="706" 
d="M523 0l-195 308l-104 -124v-184h-160v714h160v-321l269 321h193l-246 -287l273 -427h-190zM295 -30h156l-136 -170l-78 26z" />
    <glyph glyph-name="kcommaaccent" unicode="&#x137;" 
d="M401 534h180l-190 -209l212 -325h-182l-134 223l-77 -87v-136h-154v714h154v-403zM227 -30h156l-136 -170l-78 26z" />
    <glyph glyph-name="kgreenlandic" unicode="&#x138;" 
d="M401 534h180l-190 -209l212 -325h-182l-134 223l-77 -87v-136h-154v534h154v-223z" />
    <glyph glyph-name="Lacute" unicode="&#x139;" horiz-adv-x="577" 
d="M64 0v714h160v-571h338v-143h-498zM174 952l116 -57l-102 -138h-99z" />
    <glyph glyph-name="lacute" unicode="&#x13a;" horiz-adv-x="266" 
d="M56 0v714h154v-714h-154zM161 944l116 -57l-102 -138h-99z" />
    <glyph glyph-name="Lcommaaccent" unicode="&#x13b;" horiz-adv-x="577" 
d="M64 0v714h160v-571h338v-143h-498zM271 -30h156l-136 -170l-78 26z" />
    <glyph glyph-name="lcommaaccent" unicode="&#x13c;" horiz-adv-x="266" 
d="M56 0v714h154v-714h-154zM56 -30h156l-136 -170l-78 26z" />
    <glyph glyph-name="Lcaron" unicode="&#x13d;" horiz-adv-x="577" 
d="M64 0v714h160v-571h338v-143h-498zM378 418h-81v296h146z" />
    <glyph glyph-name="lcaron" unicode="&#x13e;" horiz-adv-x="390" 
d="M361 418h-81v296h146zM56 0v714h154v-714h-154z" />
    <glyph glyph-name="Ldot" unicode="&#x13f;" horiz-adv-x="577" 
d="M64 0v714h160v-571h338v-143h-498zM513 333q0 -20 -7.5 -37t-21 -30.5t-31 -21t-36.5 -7.5q-20 0 -37 7.5t-30.5 21t-21 30.5t-7.5 37t7.5 37.5t21 30.5t30.5 20.5t37 7.5q19 0 36.5 -7.5t31 -20.5t21 -30.5t7.5 -37.5z" />
    <glyph glyph-name="ldot" unicode="&#x140;" horiz-adv-x="529" 
d="M56 0v714h154v-714h-154zM492 266q0 -20 -7.5 -37t-21 -30.5t-31 -21t-36.5 -7.5q-20 0 -37 7.5t-30.5 21t-21 30.5t-7.5 37t7.5 37.5t21 30.5t30.5 20.5t37 7.5q19 0 36.5 -7.5t31 -20.5t21 -30.5t7.5 -37.5z" />
    <glyph glyph-name="Lslash" unicode="&#x141;" horiz-adv-x="590" 
d="M80 0v293l-56 -23v104l56 22v318h160v-258l161 65v-104l-161 -64v-210h338v-143h-498z" />
    <glyph glyph-name="lslash" unicode="&#x142;" horiz-adv-x="351" 
d="M244 0h-153v337l-67 -27v121l67 28v255h153v-202l87 34v-122l-87 -33v-391z" />
    <glyph glyph-name="Nacute" unicode="&#x143;" horiz-adv-x="747" 
d="M509 0l-291 493v-493h-154v714h192l274 -464v464h153v-714h-174zM395 952l116 -57l-102 -138h-99z" />
    <glyph glyph-name="nacute" unicode="&#x144;" horiz-adv-x="591" 
d="M56 0v534h154v-58q24 31 63.5 50.5t89.5 19.5q43 0 75.5 -15t55 -40.5t34 -60.5t11.5 -75v-355h-154v320q0 17 -3.5 33.5t-12 29t-23.5 20t-38 7.5q-42 0 -70 -27t-28 -79v-304h-154zM332 784l116 -57l-102 -138h-99z" />
    <glyph glyph-name="Ncommaaccent" unicode="&#x145;" horiz-adv-x="747" 
d="M509 0l-291 493v-493h-154v714h192l274 -464v464h153v-714h-174zM301 -30h156l-136 -170l-78 26z" />
    <glyph glyph-name="ncommaaccent" unicode="&#x146;" horiz-adv-x="591" 
d="M56 0v534h154v-58q24 31 63.5 50.5t89.5 19.5q43 0 75.5 -15t55 -40.5t34 -60.5t11.5 -75v-355h-154v320q0 17 -3.5 33.5t-12 29t-23.5 20t-38 7.5q-42 0 -70 -27t-28 -79v-304h-154zM230 -30h156l-136 -170l-78 26z" />
    <glyph glyph-name="Ncaron" unicode="&#x147;" horiz-adv-x="747" 
d="M509 0l-291 493v-493h-154v714h192l274 -464v464h153v-714h-174zM446 757h-145l-128 185h99l101 -90l102 90h99z" />
    <glyph glyph-name="ncaron" unicode="&#x148;" horiz-adv-x="591" 
d="M56 0v534h154v-58q24 31 63.5 50.5t89.5 19.5q43 0 75.5 -15t55 -40.5t34 -60.5t11.5 -75v-355h-154v320q0 17 -3.5 33.5t-12 29t-23.5 20t-38 7.5q-42 0 -70 -27t-28 -79v-304h-154zM373 589h-145l-128 185h99l101 -90l102 90h99z" />
    <glyph glyph-name="Eng" unicode="&#x14a;" horiz-adv-x="747" 
d="M683 82q0 -121 -60.5 -188.5t-176.5 -67.5q-31 0 -62 5.5t-60 19.5l41 129q15 -10 34 -13t33 -3q24 0 46 8t32 27l-292 494v-493h-154v714h192l274 -464v464h153v-632z" />
    <glyph glyph-name="eng" unicode="&#x14b;" horiz-adv-x="591" 
d="M539 -4q0 -91 -42 -135.5t-131 -44.5q-26 0 -50 3.5t-43 11.5l21 114q7 -3 15.5 -6t23.5 -3q26 0 39 14t13 53v317q0 17 -3.5 33.5t-12 29t-23.5 20t-38 7.5q-42 0 -70 -27t-28 -79v-304h-154v534h154v-58q24 31 63.5 50.5t89.5 19.5q43 0 75.5 -15t55 -40.5t34 -60.5
t11.5 -75v-359z" />
    <glyph glyph-name="Omacron" unicode="&#x14c;" horiz-adv-x="766" 
d="M739 357q0 -78 -24.5 -145.5t-70.5 -117.5t-112 -78.5t-149 -28.5t-149 28.5t-112 78.5t-70.5 117.5t-24.5 145.5t24.5 145.5t70.5 117.5t112 78.5t149 28.5t149 -28.5t112 -78.5t70.5 -117.5t24.5 -145.5zM574 357q0 47 -12.5 87.5t-37 70t-60 46.5t-81.5 17t-81.5 -17
t-59.5 -46.5t-36.5 -70t-12.5 -87.5t12.5 -87.5t36.5 -70t59.5 -46.5t81.5 -17t81.5 17t60 46.5t37 70t12.5 87.5zM229 768v100h299v-100h-299z" />
    <glyph glyph-name="omacron" unicode="&#x14d;" horiz-adv-x="604" 
d="M579 266q0 -62 -19.5 -113.5t-55.5 -88t-87.5 -56.5t-114.5 -20t-114 20t-87.5 56.5t-56 88t-19.5 113.5q0 63 19.5 114.5t56 88t87.5 57t114 20.5t114.5 -20.5t87.5 -57t55.5 -88t19.5 -114.5zM417 267q0 66 -29 108.5t-86 42.5q-56 0 -85 -42.5t-29 -108.5t29 -108.5
t85 -42.5q57 0 86 42.5t29 108.5zM153 600v100h299v-100h-299z" />
    <glyph glyph-name="Obreve" unicode="&#x14e;" horiz-adv-x="766" 
d="M739 357q0 -78 -24.5 -145.5t-70.5 -117.5t-112 -78.5t-149 -28.5t-149 28.5t-112 78.5t-70.5 117.5t-24.5 145.5t24.5 145.5t70.5 117.5t112 78.5t149 28.5t149 -28.5t112 -78.5t70.5 -117.5t24.5 -145.5zM574 357q0 47 -12.5 87.5t-37 70t-60 46.5t-81.5 17t-81.5 -17
t-59.5 -46.5t-36.5 -70t-12.5 -87.5t12.5 -87.5t36.5 -70t59.5 -46.5t81.5 -17t81.5 17t60 46.5t37 70t12.5 87.5zM383 750q-45 0 -78.5 13t-57.5 32.5t-39.5 42.5t-24.5 44l87 40q17 -32 44 -52t69 -20t68.5 20t43.5 52l88 -40q-9 -21 -25 -44t-40 -42.5t-57.5 -32.5
t-77.5 -13z" />
    <glyph glyph-name="obreve" unicode="&#x14f;" horiz-adv-x="604" 
d="M579 266q0 -62 -19.5 -113.5t-55.5 -88t-87.5 -56.5t-114.5 -20t-114 20t-87.5 56.5t-56 88t-19.5 113.5q0 63 19.5 114.5t56 88t87.5 57t114 20.5t114.5 -20.5t87.5 -57t55.5 -88t19.5 -114.5zM417 267q0 66 -29 108.5t-86 42.5q-56 0 -85 -42.5t-29 -108.5t29 -108.5
t85 -42.5q57 0 86 42.5t29 108.5zM302 582q-45 0 -78.5 13t-57.5 32.5t-39.5 42.5t-24.5 44l87 40q17 -32 44 -52t69 -20t68.5 20t43.5 52l88 -40q-9 -21 -25 -44t-40 -42.5t-57.5 -32.5t-77.5 -13z" />
    <glyph glyph-name="Ohungarumlaut" unicode="&#x150;" horiz-adv-x="766" 
d="M739 357q0 -78 -24.5 -145.5t-70.5 -117.5t-112 -78.5t-149 -28.5t-149 28.5t-112 78.5t-70.5 117.5t-24.5 145.5t24.5 145.5t70.5 117.5t112 78.5t149 28.5t149 -28.5t112 -78.5t70.5 -117.5t24.5 -145.5zM574 357q0 47 -12.5 87.5t-37 70t-60 46.5t-81.5 17t-81.5 -17
t-59.5 -46.5t-36.5 -70t-12.5 -87.5t12.5 -87.5t36.5 -70t59.5 -46.5t81.5 -17t81.5 17t60 46.5t37 70t12.5 87.5zM286 952l116 -57l-102 -138h-99zM483 952l116 -57l-102 -138h-99z" />
    <glyph glyph-name="ohungarumlaut" unicode="&#x151;" horiz-adv-x="604" 
d="M579 266q0 -62 -19.5 -113.5t-55.5 -88t-87.5 -56.5t-114.5 -20t-114 20t-87.5 56.5t-56 88t-19.5 113.5q0 63 19.5 114.5t56 88t87.5 57t114 20.5t114.5 -20.5t87.5 -57t55.5 -88t19.5 -114.5zM417 267q0 66 -29 108.5t-86 42.5q-56 0 -85 -42.5t-29 -108.5t29 -108.5
t85 -42.5q57 0 86 42.5t29 108.5zM226 784l116 -57l-102 -138h-99zM423 784l116 -57l-102 -138h-99z" />
    <glyph glyph-name="OE" unicode="&#x152;" horiz-adv-x="1065" 
d="M478 0q-23 -6 -48 -9.5t-53 -3.5q-83 0 -149 28.5t-111.5 78.5t-70 117.5t-24.5 145.5t24.5 145.5t70 117.5t111.5 78.5t149 28.5q28 0 53 -3.5t48 -9.5h550v-144h-361q45 -60 57 -140h265v-128h-262q-5 -45 -20 -85.5t-39 -73.5h370v-143h-560zM568 357q0 47 -12.5 87.5
t-36.5 70.5t-60 47.5t-82 17.5t-81 -17.5t-59 -47.5t-36.5 -70.5t-12.5 -87.5t12.5 -88t36.5 -71t59 -47t81 -17t82 17.5t60 47.5t36.5 70.5t12.5 87.5z" />
    <glyph glyph-name="oe" unicode="&#x153;" horiz-adv-x="972" 
d="M302 546q63 0 111.5 -23t81.5 -63q33 40 81 63t110 23q61 0 109.5 -20t81.5 -55.5t50.5 -84.5t17.5 -107q0 -17 -1 -29.5t-2 -22.5h-360q2 -54 36.5 -79t85.5 -25q82 0 130 62l95 -92q-45 -54 -103.5 -79.5t-130.5 -25.5q-66 0 -116 22.5t-84 62.5q-33 -40 -81.5 -62.5
t-111.5 -22.5t-114 20t-87.5 56.5t-56 88t-19.5 113.5q0 63 19.5 114.5t56 88t87.5 57t114 20.5zM417 267q0 66 -29 108.5t-86 42.5q-56 0 -85 -42.5t-29 -108.5t29 -108.5t85 -42.5q57 0 86 42.5t29 108.5zM794 331q-4 50 -32.5 75.5t-71.5 25.5q-46 0 -75 -27.5t-33 -73.5
h212z" />
    <glyph glyph-name="Racute" unicode="&#x154;" horiz-adv-x="677" 
d="M483 0l-131 254h-128v-254h-160v714h327q63 0 111.5 -16.5t81.5 -46t49.5 -71t16.5 -90.5q0 -80 -40 -131t-100 -77l148 -282h-175zM487 477q0 45 -28 69t-72 24h-163v-188h162q45 0 73 25t28 70zM348 952l116 -57l-102 -138h-99z" />
    <glyph glyph-name="racute" unicode="&#x155;" horiz-adv-x="420" 
d="M395 388q-10 7 -28 10.5t-35 3.5q-53 0 -87.5 -40.5t-34.5 -126.5v-235h-154v534h154v-66q25 35 61 55t78 20q22 0 41 -5t28 -12zM235 784l116 -57l-102 -138h-99z" />
    <glyph glyph-name="Rcommaaccent" unicode="&#x156;" horiz-adv-x="677" 
d="M483 0l-131 254h-128v-254h-160v714h327q63 0 111.5 -16.5t81.5 -46t49.5 -71t16.5 -90.5q0 -80 -40 -131t-100 -77l148 -282h-175zM487 477q0 45 -28 69t-72 24h-163v-188h162q45 0 73 25t28 70zM281 -30h156l-136 -170l-78 26z" />
    <glyph glyph-name="rcommaaccent" unicode="&#x157;" horiz-adv-x="420" 
d="M63 -30h156l-136 -170l-78 26zM395 388q-10 7 -28 10.5t-35 3.5q-53 0 -87.5 -40.5t-34.5 -126.5v-235h-154v534h154v-66q25 35 61 55t78 20q22 0 41 -5t28 -12z" />
    <glyph glyph-name="Rcaron" unicode="&#x158;" horiz-adv-x="677" 
d="M483 0l-131 254h-128v-254h-160v714h327q63 0 111.5 -16.5t81.5 -46t49.5 -71t16.5 -90.5q0 -80 -40 -131t-100 -77l148 -282h-175zM487 477q0 45 -28 69t-72 24h-163v-188h162q45 0 73 25t28 70zM413 757h-145l-128 185h99l101 -90l102 90h99z" />
    <glyph glyph-name="rcaron" unicode="&#x159;" horiz-adv-x="420" 
d="M292 589h-145l-128 185h99l101 -90l102 90h99zM395 388q-10 7 -28 10.5t-35 3.5q-53 0 -87.5 -40.5t-34.5 -126.5v-235h-154v534h154v-66q25 35 61 55t78 20q22 0 41 -5t28 -12z" />
    <glyph glyph-name="Sacute" unicode="&#x15a;" horiz-adv-x="640" 
d="M308 594q-46 0 -79 -18t-33 -53q0 -17 9 -29t24.5 -20.5t36.5 -14.5t45 -11q30 -6 64.5 -13.5t68 -18t64.5 -26.5t54.5 -39t37.5 -55t14 -74q0 -50 -19.5 -93t-56.5 -74.5t-91 -49.5t-123 -18q-105 0 -185 41.5t-122 113.5l123 82q14 -27 35.5 -46.5t46.5 -32.5t52.5 -19
t54.5 -6q60 0 94 22.5t34 61.5q0 23 -12.5 37.5t-33.5 23.5t-48.5 15t-56.5 11q-50 9 -98 23.5t-86 39.5t-61.5 63t-23.5 94q0 51 20.5 91.5t57 68t86.5 42t109 14.5q41 0 81.5 -7.5t78.5 -24t71 -43t59 -64.5l-118 -79q-26 40 -72.5 62.5t-101.5 22.5zM325 952l116 -57
l-102 -138h-99z" />
    <glyph glyph-name="sacute" unicode="&#x15b;" horiz-adv-x="525" 
d="M498 174q0 -44 -17 -78.5t-48.5 -58.5t-76 -36.5t-99.5 -12.5q-76 0 -138.5 23.5t-107.5 68.5l79 95q38 -38 85.5 -53.5t92.5 -15.5q34 0 58.5 10.5t24.5 36.5q0 13 -7 21t-21.5 13.5t-37.5 9.5t-55 9q-39 6 -75 16t-64.5 29t-45.5 48.5t-17 73.5q0 45 18.5 78t49.5 54
t72 31t87 10q81 0 138.5 -26t92.5 -57l-78 -95q-23 26 -67 43.5t-93 17.5q-32 0 -54.5 -9.5t-22.5 -30.5q0 -14 10 -22t26 -13t37 -8l42 -6q52 -8 92 -21t66.5 -32.5t40 -47t13.5 -65.5zM271 784l116 -57l-102 -138h-99z" />
    <glyph glyph-name="Scircumflex" unicode="&#x15c;" horiz-adv-x="640" 
d="M308 594q-46 0 -79 -18t-33 -53q0 -17 9 -29t24.5 -20.5t36.5 -14.5t45 -11q30 -6 64.5 -13.5t68 -18t64.5 -26.5t54.5 -39t37.5 -55t14 -74q0 -50 -19.5 -93t-56.5 -74.5t-91 -49.5t-123 -18q-105 0 -185 41.5t-122 113.5l123 82q14 -27 35.5 -46.5t46.5 -32.5t52.5 -19
t54.5 -6q60 0 94 22.5t34 61.5q0 23 -12.5 37.5t-33.5 23.5t-48.5 15t-56.5 11q-50 9 -98 23.5t-86 39.5t-61.5 63t-23.5 94q0 51 20.5 91.5t57 68t86.5 42t109 14.5q41 0 81.5 -7.5t78.5 -24t71 -43t59 -64.5l-118 -79q-26 40 -72.5 62.5t-101.5 22.5zM512 766h-99l-102 90
l-101 -90h-99l128 185h145z" />
    <glyph glyph-name="scircumflex" unicode="&#x15d;" horiz-adv-x="525" 
d="M498 174q0 -44 -17 -78.5t-48.5 -58.5t-76 -36.5t-99.5 -12.5q-76 0 -138.5 23.5t-107.5 68.5l79 95q38 -38 85.5 -53.5t92.5 -15.5q34 0 58.5 10.5t24.5 36.5q0 13 -7 21t-21.5 13.5t-37.5 9.5t-55 9q-39 6 -75 16t-64.5 29t-45.5 48.5t-17 73.5q0 45 18.5 78t49.5 54
t72 31t87 10q81 0 138.5 -26t92.5 -57l-78 -95q-23 26 -67 43.5t-93 17.5q-32 0 -54.5 -9.5t-22.5 -30.5q0 -14 10 -22t26 -13t37 -8l42 -6q52 -8 92 -21t66.5 -32.5t40 -47t13.5 -65.5zM451 589h-99l-102 90l-101 -90h-99l128 185h145z" />
    <glyph glyph-name="Scedilla" unicode="&#x15e;" horiz-adv-x="640" 
d="M308 594q-46 0 -79 -18t-33 -53q0 -17 9 -29t24.5 -20.5t36.5 -14.5t45 -11q30 -6 64.5 -13.5t68 -18t64.5 -26.5t54.5 -39t37.5 -55t14 -74q0 -50 -19.5 -93t-56.5 -74.5t-91 -49.5t-123 -18q-105 0 -185 41.5t-122 113.5l123 82q14 -27 35.5 -46.5t46.5 -32.5t52.5 -19
t54.5 -6q60 0 94 22.5t34 61.5q0 23 -12.5 37.5t-33.5 23.5t-48.5 15t-56.5 11q-50 9 -98 23.5t-86 39.5t-61.5 63t-23.5 94q0 51 20.5 91.5t57 68t86.5 42t109 14.5q41 0 81.5 -7.5t78.5 -24t71 -43t59 -64.5l-118 -79q-26 40 -72.5 62.5t-101.5 22.5zM277 -200
q-47 0 -77 14v66q13 -10 30 -13.5t30 -3.5q23 0 35 8.5t12 19.5q0 8 -4 10h-47v63q9 8 24.5 11.5t32.5 3.5q21 0 41 -5.5t35.5 -16.5t25 -27t9.5 -36q0 -43 -41 -68.5t-106 -25.5z" />
    <glyph glyph-name="scedilla" unicode="&#x15f;" horiz-adv-x="525" 
d="M498 174q0 -44 -17 -78.5t-48.5 -58.5t-76 -36.5t-99.5 -12.5q-76 0 -138.5 23.5t-107.5 68.5l79 95q38 -38 85.5 -53.5t92.5 -15.5q34 0 58.5 10.5t24.5 36.5q0 13 -7 21t-21.5 13.5t-37.5 9.5t-55 9q-39 6 -75 16t-64.5 29t-45.5 48.5t-17 73.5q0 45 18.5 78t49.5 54
t72 31t87 10q81 0 138.5 -26t92.5 -57l-78 -95q-23 26 -67 43.5t-93 17.5q-32 0 -54.5 -9.5t-22.5 -30.5q0 -14 10 -22t26 -13t37 -8l42 -6q52 -8 92 -21t66.5 -32.5t40 -47t13.5 -65.5zM214 -200q-47 0 -77 14v66q13 -10 30 -13.5t30 -3.5q23 0 35 8.5t12 19.5q0 8 -4 10
h-47v63q9 8 24.5 11.5t32.5 3.5q21 0 41 -5.5t35.5 -16.5t25 -27t9.5 -36q0 -43 -41 -68.5t-106 -25.5z" />
    <glyph glyph-name="Scaron" unicode="&#x160;" horiz-adv-x="640" 
d="M308 594q-46 0 -79 -18t-33 -53q0 -17 9 -29t24.5 -20.5t36.5 -14.5t45 -11q30 -6 64.5 -13.5t68 -18t64.5 -26.5t54.5 -39t37.5 -55t14 -74q0 -50 -19.5 -93t-56.5 -74.5t-91 -49.5t-123 -18q-105 0 -185 41.5t-122 113.5l123 82q14 -27 35.5 -46.5t46.5 -32.5t52.5 -19
t54.5 -6q60 0 94 22.5t34 61.5q0 23 -12.5 37.5t-33.5 23.5t-48.5 15t-56.5 11q-50 9 -98 23.5t-86 39.5t-61.5 63t-23.5 94q0 51 20.5 91.5t57 68t86.5 42t109 14.5q41 0 81.5 -7.5t78.5 -24t71 -43t59 -64.5l-118 -79q-26 40 -72.5 62.5t-101.5 22.5zM384 757h-145
l-128 185h99l101 -90l102 90h99z" />
    <glyph glyph-name="scaron" unicode="&#x161;" horiz-adv-x="525" 
d="M498 174q0 -44 -17 -78.5t-48.5 -58.5t-76 -36.5t-99.5 -12.5q-76 0 -138.5 23.5t-107.5 68.5l79 95q38 -38 85.5 -53.5t92.5 -15.5q34 0 58.5 10.5t24.5 36.5q0 13 -7 21t-21.5 13.5t-37.5 9.5t-55 9q-39 6 -75 16t-64.5 29t-45.5 48.5t-17 73.5q0 45 18.5 78t49.5 54
t72 31t87 10q81 0 138.5 -26t92.5 -57l-78 -95q-23 26 -67 43.5t-93 17.5q-32 0 -54.5 -9.5t-22.5 -30.5q0 -14 10 -22t26 -13t37 -8l42 -6q52 -8 92 -21t66.5 -32.5t40 -47t13.5 -65.5zM327 589h-145l-128 185h99l101 -90l102 90h99z" />
    <glyph glyph-name="Tcedilla" unicode="&#x162;" horiz-adv-x="650" 
d="M404 570v-570h-159v570h-219v144h598v-144h-220zM266 -200q-47 0 -77 14v66q13 -10 30 -13.5t30 -3.5q23 0 35 8.5t12 19.5q0 8 -4 10h-47v63q9 8 24.5 11.5t32.5 3.5q21 0 41 -5.5t35.5 -16.5t25 -27t9.5 -36q0 -43 -41 -68.5t-106 -25.5z" />
    <glyph glyph-name="tcedilla" unicode="&#x163;" horiz-adv-x="414" 
d="M409 17q-17 -11 -49 -20t-77 -9q-83 0 -127 39.5t-44 130.5v255h-96v121h96v180h153v-180h127v-121h-127v-230q0 -20 5 -33t13 -20t19 -9.5t22 -2.5q19 0 32 5t22 11zM195 -200q-47 0 -77 14v66q13 -10 30 -13.5t30 -3.5q23 0 35 8.5t12 19.5q0 8 -4 10h-47v63
q9 8 24.5 11.5t32.5 3.5q21 0 41 -5.5t35.5 -16.5t25 -27t9.5 -36q0 -43 -41 -68.5t-106 -25.5z" />
    <glyph glyph-name="Tcaron" unicode="&#x164;" horiz-adv-x="650" 
d="M404 570v-570h-159v570h-219v144h598v-144h-220zM398 757h-145l-128 185h99l101 -90l102 90h99z" />
    <glyph glyph-name="tcaron" unicode="&#x165;" horiz-adv-x="426" 
d="M408 17q-17 -11 -49 -20t-77 -9q-83 0 -127 39.5t-44 130.5v255h-96v121h96v180h153v-180h127v-121h-127v-230q0 -20 5 -33t13 -20t19 -9.5t22 -2.5q19 0 32 5t22 11zM389.897 578.5h-69.6592v222h125.559z" />
    <glyph glyph-name="Tbar" unicode="&#x166;" horiz-adv-x="650" 
d="M404 292v-292h-159v292h-105v82h105v196h-219v144h598v-144h-220v-196h106v-82h-106z" />
    <glyph glyph-name="tbar" unicode="&#x167;" horiz-adv-x="438" 
d="M416 17q-17 -11 -49 -20t-77 -9q-83 0 -127 39.5t-44 130.5v102h-81v82h81v71h-96v121h96v180h153v-180h127v-121h-127v-71h96v-82h-96v-77q0 -20 5 -33t13 -20t19 -9.5t22 -2.5q19 0 32 5t22 11z" />
    <glyph glyph-name="Utilde" unicode="&#x168;" horiz-adv-x="708" 
d="M650 273q0 -69 -21.5 -122t-60.5 -89.5t-93.5 -55.5t-121.5 -19t-121.5 19t-93 55.5t-59.5 89.5t-21 122v441h159v-441q0 -68 35 -104t102 -36q66 0 101.5 36t35.5 104v441h159v-441zM140 790q18 51 50 84.5t88 33.5q24 0 44 -6t40 -17t36 -17t33 -6q26 0 41 14.5
t20 31.5l77 -36q-18 -51 -50 -84.5t-88 -33.5q-24 0 -44 6t-40 17t-36 17t-33 6q-26 0 -41 -14.5t-20 -31.5z" />
    <glyph glyph-name="utilde" unicode="&#x169;" horiz-adv-x="590" 
d="M534 534v-534h-153v58q-24 -32 -64 -51t-90 -19q-42 0 -75 15t-55.5 40.5t-34 60.5t-11.5 75v355h154v-319q0 -17 3.5 -33.5t12 -29.5t23.5 -20.5t38 -7.5q42 0 70.5 27t28.5 79v304h153zM81 622q18 51 50 84.5t88 33.5q24 0 44 -6t40 -17t36 -17t33 -6q26 0 41 14.5
t20 31.5l77 -36q-18 -51 -50 -84.5t-88 -33.5q-24 0 -44 6t-40 17t-36 17t-33 6q-26 0 -41 -14.5t-20 -31.5z" />
    <glyph glyph-name="Umacron" unicode="&#x16a;" horiz-adv-x="708" 
d="M650 273q0 -69 -21.5 -122t-60.5 -89.5t-93.5 -55.5t-121.5 -19t-121.5 19t-93 55.5t-59.5 89.5t-21 122v441h159v-441q0 -68 35 -104t102 -36q66 0 101.5 36t35.5 104v441h159v-441zM205 768v100h299v-100h-299z" />
    <glyph glyph-name="umacron" unicode="&#x16b;" horiz-adv-x="590" 
d="M534 534v-534h-153v58q-24 -32 -64 -51t-90 -19q-42 0 -75 15t-55.5 40.5t-34 60.5t-11.5 75v355h154v-319q0 -17 3.5 -33.5t12 -29.5t23.5 -20.5t38 -7.5q42 0 70.5 27t28.5 79v304h153zM143 600v100h299v-100h-299z" />
    <glyph glyph-name="Ubreve" unicode="&#x16c;" horiz-adv-x="708" 
d="M650 273q0 -69 -21.5 -122t-60.5 -89.5t-93.5 -55.5t-121.5 -19t-121.5 19t-93 55.5t-59.5 89.5t-21 122v441h159v-441q0 -68 35 -104t102 -36q66 0 101.5 36t35.5 104v441h159v-441zM354 750q-45 0 -78.5 13t-57.5 32.5t-39.5 42.5t-24.5 44l87 40q17 -32 44 -52t69 -20
t68.5 20t43.5 52l88 -40q-9 -21 -25 -44t-40 -42.5t-57.5 -32.5t-77.5 -13z" />
    <glyph glyph-name="ubreve" unicode="&#x16d;" horiz-adv-x="590" 
d="M534 534v-534h-153v58q-24 -32 -64 -51t-90 -19q-42 0 -75 15t-55.5 40.5t-34 60.5t-11.5 75v355h154v-319q0 -17 3.5 -33.5t12 -29.5t23.5 -20.5t38 -7.5q42 0 70.5 27t28.5 79v304h153zM292 582q-45 0 -78.5 13t-57.5 32.5t-39.5 42.5t-24.5 44l87 40q17 -32 44 -52
t69 -20t68.5 20t43.5 52l88 -40q-9 -21 -25 -44t-40 -42.5t-57.5 -32.5t-77.5 -13z" />
    <glyph glyph-name="Uring" unicode="&#x16e;" horiz-adv-x="708" 
d="M650 273q0 -69 -21.5 -122t-60.5 -89.5t-93.5 -55.5t-121.5 -19t-121.5 19t-93 55.5t-59.5 89.5t-21 122v441h159v-441q0 -68 35 -104t102 -36q66 0 101.5 36t35.5 104v441h159v-441zM473 844q0 -24 -9.5 -46t-25.5 -38t-38 -25.5t-46 -9.5t-46 9.5t-38 25.5t-25.5 38
t-9.5 46q0 25 9.5 46.5t25.5 38t38 26t46 9.5t46 -9.5t38 -26t25.5 -38t9.5 -46.5zM403 844q0 20 -14.5 34.5t-34.5 14.5t-34 -14.5t-14 -34.5t14 -34.5t34 -14.5t34.5 14.5t14.5 34.5z" />
    <glyph glyph-name="uring" unicode="&#x16f;" horiz-adv-x="590" 
d="M534 534v-534h-153v58q-24 -32 -64 -51t-90 -19q-42 0 -75 15t-55.5 40.5t-34 60.5t-11.5 75v355h154v-319q0 -17 3.5 -33.5t12 -29.5t23.5 -20.5t38 -7.5q42 0 70.5 27t28.5 79v304h153zM411 676q0 -24 -9.5 -46t-25.5 -38t-38 -25.5t-46 -9.5t-46 9.5t-38 25.5
t-25.5 38t-9.5 46q0 25 9.5 46.5t25.5 38t38 26t46 9.5t46 -9.5t38 -26t25.5 -38t9.5 -46.5zM341 676q0 20 -14.5 34.5t-34.5 14.5t-34 -14.5t-14 -34.5t14 -34.5t34 -14.5t34.5 14.5t14.5 34.5z" />
    <glyph glyph-name="Uhungarumlaut" unicode="&#x170;" horiz-adv-x="708" 
d="M650 273q0 -69 -21.5 -122t-60.5 -89.5t-93.5 -55.5t-121.5 -19t-121.5 19t-93 55.5t-59.5 89.5t-21 122v441h159v-441q0 -68 35 -104t102 -36q66 0 101.5 36t35.5 104v441h159v-441zM292 952l116 -57l-102 -138h-99zM489 952l116 -57l-102 -138h-99z" />
    <glyph glyph-name="uhungarumlaut" unicode="&#x171;" horiz-adv-x="590" 
d="M534 534v-534h-153v58q-24 -32 -64 -51t-90 -19q-42 0 -75 15t-55.5 40.5t-34 60.5t-11.5 75v355h154v-319q0 -17 3.5 -33.5t12 -29.5t23.5 -20.5t38 -7.5q42 0 70.5 27t28.5 79v304h153zM221 784l116 -57l-102 -138h-99zM418 784l116 -57l-102 -138h-99z" />
    <glyph glyph-name="Uogonek" unicode="&#x172;" horiz-adv-x="708" 
d="M650 273q0 -85 -32 -145t-88 -96q-32 -20 -50 -40.5t-18 -45.5q0 -21 13.5 -31.5t36.5 -10.5q21 0 38.5 8t30.5 21v-90q-11 -10 -33.5 -18.5t-54.5 -8.5q-54 0 -88 28t-34 76q0 37 20 69q-9 -1 -18.5 -1.5t-19.5 -0.5q-67 0 -121.5 19t-93 55.5t-59.5 89.5t-21 122v441
h159v-441q0 -68 35 -104t102 -36q66 0 101.5 36t35.5 104v441h159v-441z" />
    <glyph glyph-name="uogonek" unicode="&#x173;" horiz-adv-x="590" 
d="M381 58q-24 -32 -64 -51t-90 -19q-42 0 -75 15t-55.5 40.5t-34 60.5t-11.5 75v355h154v-319q0 -17 3.5 -33.5t12 -29.5t23.5 -20.5t38 -7.5q42 0 70.5 27t28.5 79v304h153v-534q-48 0 -76.5 -18t-28.5 -44q0 -17 12 -25.5t30 -8.5q20 0 37 9t26 20v-90q-11 -10 -30 -18.5
t-51 -8.5q-50 0 -82.5 24.5t-32.5 67.5q0 26 12.5 49t30.5 43v58z" />
    <glyph glyph-name="Wcircumflex" unicode="&#x174;" horiz-adv-x="975" 
d="M774 0h-166l-123 457l-125 -457h-166l-181 714h173l102 -476l133 476h130l133 -478l102 478h176zM686 766h-99l-102 90l-101 -90h-99l128 185h145z" />
    <glyph glyph-name="wcircumflex" unicode="&#x175;" horiz-adv-x="802" 
d="M645 0h-156l-88 326l-90 -326h-155l-143 534h166l70 -321l90 321h127l89 -321l70 321h165zM602 589h-99l-102 90l-101 -90h-99l128 185h145z" />
    <glyph glyph-name="Ycircumflex" unicode="&#x176;" horiz-adv-x="659" 
d="M409 297v-297h-160v296l-255 418h185l151 -268l151 268h184zM530 766h-99l-102 90l-101 -90h-99l128 185h145z" />
    <glyph glyph-name="ycircumflex" unicode="&#x177;" horiz-adv-x="551" 
d="M354 -3q-21 -56 -42.5 -91.5t-46 -55.5t-53 -27t-64.5 -7t-58 5t-34 11l33 120q17 -10 39 -10q28 0 43 17t29 52l-205 523h174l110 -339l110 339h165zM480 589h-99l-102 90l-101 -90h-99l128 185h145z" />
    <glyph glyph-name="Ydieresis" unicode="&#x178;" horiz-adv-x="659" 
d="M409 297v-297h-160v296l-255 418h185l151 -268l151 268h184zM374 762v120h120v-120h-120zM164 762v120h120v-120h-120z" />
    <glyph glyph-name="Zacute" unicode="&#x179;" horiz-adv-x="657" 
d="M35 0v125l354 445h-339v144h561v-118l-359 -453h368v-143h-585zM335 952l116 -57l-102 -138h-99z" />
    <glyph glyph-name="zacute" unicode="&#x17a;" horiz-adv-x="523" 
d="M31 0v110l234 292h-223v132h438v-105l-236 -297h244v-132h-457zM285 784l116 -57l-102 -138h-99z" />
    <glyph glyph-name="Zdotaccent" unicode="&#x17b;" horiz-adv-x="657" 
d="M35 0v125l354 445h-339v144h561v-118l-359 -453h368v-143h-585zM250 762v120h120v-120h-120z" />
    <glyph glyph-name="zdotaccent" unicode="&#x17c;" horiz-adv-x="523" 
d="M31 0v110l234 292h-223v132h438v-105l-236 -297h244v-132h-457zM186 594v120h120v-120h-120z" />
    <glyph glyph-name="Zcaron" unicode="&#x17d;" horiz-adv-x="657" 
d="M35 0v125l354 445h-339v144h561v-118l-359 -453h368v-143h-585zM393 757h-145l-128 185h99l101 -90l102 90h99z" />
    <glyph glyph-name="zcaron" unicode="&#x17e;" horiz-adv-x="535" 
d="M31 0v110l234 292h-223v132h438v-105l-236 -297h244v-132h-457zM328 589h-145l-128 185h99l101 -90l102 90h99z" />
    <glyph glyph-name="florin" unicode="&#x192;" 
d="M536 579q-16 9 -28.5 13.5t-31.5 4.5q-59 0 -68 -58l-11 -64h124l-22 -119h-124l-50 -288q-7 -40 -21.5 -74t-39.5 -58.5t-60 -38t-83 -13.5q-41 0 -70.5 8t-53.5 21l51 118q16 -9 29 -13.5t32 -4.5q29 0 45.5 15.5t21.5 43.5l49 284h-106l21 119h107l11 68q7 40 22 74
t39.5 58.5t60 38t83.5 13.5q40 0 70 -8.5t53 -20.5z" />
    <glyph glyph-name="Aringacute" unicode="&#x1fa;" horiz-adv-x="704" 
d="M382 1000l111 -32l-87 -73h-97zM350 579l-90 -290h178zM402 763q0 20 -14.5 34.5t-34.5 14.5t-34 -14.5t-14 -34.5t14 -34.5t34 -14.5t34.5 14.5t14.5 34.5zM472 763q0 -34 -19 -64l251 -699h-179l-49 160h-253l-49 -160h-174l252 700q-18 27 -18 63q0 25 9.5 46.5
t25.5 38t38 26t46 9.5t46 -9.5t38 -26t25.5 -38t9.5 -46.5z" />
    <glyph glyph-name="aringacute" unicode="&#x1fb;" horiz-adv-x="550" 
d="M345 249q-14 -10 -38 -15t-57 -11q-14 -3 -27.5 -6.5t-24 -10.5t-16.5 -17.5t-6 -27.5q0 -57 68 -57q20 0 38 5.5t32 17.5t22.5 30t8.5 42v50zM262 421q-38 0 -83.5 -12.5t-82.5 -35.5l-52 111q44 27 105.5 44.5t125.5 17.5q49 0 90 -10t70.5 -32t46 -57t16.5 -85v-362
h-143v51q-22 -27 -55.5 -45t-89.5 -18q-41 0 -75 11t-59 32t-38.5 52t-13.5 71q0 50 20 81t49 48t63 24.5t61 11.5q28 4 51.5 7t40.5 8.5t26.5 15t9.5 24.5q0 14 -8 23t-20 14.5t-26.5 7.5t-28.5 2zM292 999.81l116 -54.1504l-102 -131.102h-99zM383 676q0 -24 -9.5 -46
t-25.5 -38t-38 -25.5t-46 -9.5t-46 9.5t-38 25.5t-25.5 38t-9.5 46q0 25 9.5 46.5t25.5 38t38 26t46 9.5t46 -9.5t38 -26t25.5 -38t9.5 -46.5zM313 676q0 20 -14.5 34.5t-34.5 14.5t-34 -14.5t-14 -34.5t14 -34.5t34 -14.5t34.5 14.5t14.5 34.5z" />
    <glyph glyph-name="AEacute" unicode="&#x1fc;" horiz-adv-x="961" 
d="M435 0v160h-225l-88 -160h-173l405 714h556v-144h-316v-134h277v-128h-277v-165h326v-143h-485zM435 587l-156 -298h156v298zM553 952l116 -57l-102 -138h-99z" />
    <glyph glyph-name="aeacute" unicode="&#x1fd;" horiz-adv-x="888" 
d="M262 421q-38 0 -83.5 -12.5t-82.5 -35.5l-52 111q44 27 105.5 44.5t126.5 17.5q54 0 97 -14t72 -43q32 26 72.5 41.5t92.5 15.5q59 0 105.5 -20t79 -55.5t49.5 -84.5t17 -107q0 -17 -1 -29.5t-2 -22.5h-360q2 -54 36.5 -79t85.5 -25q82 0 130 62l95 -92
q-45 -54 -103.5 -79.5t-129.5 -25.5q-63 0 -111 19.5t-82 54.5q-68 -74 -192 -74q-98 0 -150.5 42.5t-52.5 122.5q0 51 19.5 81.5t49 48t63 25t61.5 11.5t51.5 7t40.5 8.5t26.5 15t9.5 24.5q0 14 -8 23t-20 14.5t-26.5 7.5t-28.5 2zM345 249q-14 -10 -38 -15t-57 -11
q-14 -3 -27.5 -6.5t-24 -10.5t-16.5 -17.5t-6 -27.5q0 -57 68 -57q20 0 38 5.5t32 17.5t22.5 30t8.5 42v50zM710 331q-4 50 -32.5 75.5t-71.5 25.5q-46 0 -75 -27.5t-33 -73.5h212zM476 784l116 -57l-102 -138h-99z" />
    <glyph glyph-name="Oslashacute" unicode="&#x1fe;" horiz-adv-x="766" 
d="M105 29l34 47q-54 51 -83 123.5t-29 157.5q0 78 24.5 145.5t70.5 117.5t112 78.5t149 28.5q52 0 97 -12t83 -33l33 48l65 -45l-34 -49q55 -51 83.5 -122.5t28.5 -156.5q0 -78 -24.5 -145.5t-70.5 -117.5t-112 -78.5t-149 -28.5q-52 0 -97 11.5t-83 31.5l-33 -46zM574 357
q0 42 -11 79t-31 66l-241 -346q37 -22 92 -22q46 0 81.5 17t60 47t37 71t12.5 88zM193 357q0 -43 10 -80t30 -66l242 346q-20 11 -43 17t-49 6q-46 0 -81.5 -17.5t-59.5 -47.5t-36.5 -70.5t-12.5 -87.5zM390 952l116 -57l-102 -138h-99z" />
    <glyph glyph-name="oslashacute" unicode="&#x1ff;" horiz-adv-x="604" 
d="M90 24l21 30q-42 37 -64 91t-22 121q0 63 19.5 114.5t56 88t87.5 57t114 20.5q37 0 70 -8t62 -22l23 33l57 -39l-22 -31q42 -38 64.5 -91.5t22.5 -121.5q0 -62 -19.5 -113.5t-55.5 -88t-87.5 -56.5t-114.5 -20q-74 0 -134 29l-22 -32zM186 267q0 -23 4 -44t12 -38
l156 222q-26 16 -56 16q-28 0 -49.5 -11.5t-36.5 -32.5t-22.5 -49.5t-7.5 -62.5zM418 267q0 46 -16 83l-157 -223q26 -16 57 -16q57 0 86.5 43.5t29.5 112.5zM320 784l116 -57l-102 -138h-99z" />
    <glyph glyph-name="Scommaaccent" unicode="&#x218;" horiz-adv-x="640" 
d="M308 594q-46 0 -79 -18t-33 -53q0 -17 9 -29t24.5 -20.5t36.5 -14.5t45 -11q30 -6 64.5 -13.5t68 -18t64.5 -26.5t54.5 -39t37.5 -55t14 -74q0 -50 -19.5 -93t-56.5 -74.5t-91 -49.5t-123 -18q-105 0 -185 41.5t-122 113.5l123 82q14 -27 35.5 -46.5t46.5 -32.5t52.5 -19
t54.5 -6q60 0 94 22.5t34 61.5q0 23 -12.5 37.5t-33.5 23.5t-48.5 15t-56.5 11q-50 9 -98 23.5t-86 39.5t-61.5 63t-23.5 94q0 51 20.5 91.5t57 68t86.5 42t109 14.5q41 0 81.5 -7.5t78.5 -24t71 -43t59 -64.5l-118 -79q-26 40 -72.5 62.5t-101.5 22.5zM261 -30h156
l-136 -170l-78 26z" />
    <glyph glyph-name="scommaaccent" unicode="&#x219;" horiz-adv-x="525" 
d="M498 174q0 -44 -17 -78.5t-48.5 -58.5t-76 -36.5t-99.5 -12.5q-76 0 -138.5 23.5t-107.5 68.5l79 95q38 -38 85.5 -53.5t92.5 -15.5q34 0 58.5 10.5t24.5 36.5q0 13 -7 21t-21.5 13.5t-37.5 9.5t-55 9q-39 6 -75 16t-64.5 29t-45.5 48.5t-17 73.5q0 45 18.5 78t49.5 54
t72 31t87 10q81 0 138.5 -26t92.5 -57l-78 -95q-23 26 -67 43.5t-93 17.5q-32 0 -54.5 -9.5t-22.5 -30.5q0 -14 10 -22t26 -13t37 -8l42 -6q52 -8 92 -21t66.5 -32.5t40 -47t13.5 -65.5zM198 -30h156l-136 -170l-78 26z" />
    <glyph glyph-name="Tcommaaccent" unicode="&#x21a;" horiz-adv-x="650" 
d="M404 570v-570h-159v570h-219v144h598v-144h-220zM250 -30h156l-136 -170l-78 26z" />
    <glyph glyph-name="tcommaaccent" unicode="&#x21b;" horiz-adv-x="426" 
d="M408 17q-17 -11 -49 -20t-77 -9q-83 0 -127 39.5t-44 130.5v255h-96v121h96v180h153v-180h127v-121h-127v-230q0 -20 5 -33t13 -20t19 -9.5t22 -2.5q19 0 32 5t22 11zM179 -30h156l-136 -170l-78 26z" />
    <glyph glyph-name="dotlessj" unicode="&#x237;" horiz-adv-x="265" 
d="M209 -4q0 -91 -41.5 -135.5t-130.5 -44.5q-26 0 -50 3.5t-43 11.5l21 114q7 -3 15.5 -6t23.5 -3q26 0 39 14t13 53v531h153v-538z" />
    <glyph glyph-name="schwa" unicode="&#x259;" horiz-adv-x="580" 
d="M178 203q4 -50 32.5 -75.5t71.5 -25.5q46 0 75 27.5t33 73.5h-212zM555 269q0 -60 -18 -111t-52.5 -89t-84.5 -59.5t-114 -21.5q-62 0 -110 20t-81 55.5t-50.5 84.5t-17.5 107q0 17 1 29.5t2 22.5h360q-2 54 -36.5 79t-85.5 25q-82 0 -130 -62l-95 92q45 54 103.5 79.5
t130.5 25.5q67 0 118.5 -21t87 -58t54 -87.5t18.5 -110.5z" />
    <glyph glyph-name="circumflex" unicode="&#x2c6;" horiz-adv-x="441" 
d="M421 589h-99l-102 90l-101 -90h-99l128 185h145z" />
    <glyph glyph-name="caron" unicode="&#x2c7;" horiz-adv-x="441" 
d="M293 589h-145l-128 185h99l101 -90l102 90h99z" />
    <glyph glyph-name="breve" unicode="&#x2d8;" horiz-adv-x="440" 
d="M220 582q-45 0 -78.5 13t-57.5 32.5t-39.5 42.5t-24.5 44l87 40q17 -32 44 -52t69 -20t68.5 20t43.5 52l88 -40q-9 -21 -25 -44t-40 -42.5t-57.5 -32.5t-77.5 -13z" />
    <glyph glyph-name="dotaccent" unicode="&#x2d9;" horiz-adv-x="320" 
d="M100 594v120h120v-120h-120z" />
    <glyph glyph-name="ring" unicode="&#x2da;" horiz-adv-x="324" 
d="M283 676q0 -24 -9.5 -46t-25.5 -38t-38 -25.5t-46 -9.5t-46 9.5t-38 25.5t-25.5 38t-9.5 46q0 25 9.5 46.5t25.5 38t38 26t46 9.5t46 -9.5t38 -26t25.5 -38t9.5 -46.5zM213 676q0 20 -14.5 34.5t-34.5 14.5t-34 -14.5t-14 -34.5t14 -34.5t34 -14.5t34.5 14.5t14.5 34.5z
" />
    <glyph glyph-name="ogonek" unicode="&#x2db;" horiz-adv-x="323" 
d="M226 36q-33 -23 -53.5 -43.5t-20.5 -46.5q0 -21 13.5 -31.5t36.5 -10.5q21 0 38.5 8t30.5 21v-90q-11 -10 -33.5 -18.5t-54.5 -8.5q-54 0 -88 28t-34 76q0 49 35.5 88.5t99.5 62.5z" />
    <glyph glyph-name="tilde" unicode="&#x2dc;" horiz-adv-x="469" 
d="M20 622q18 51 50 84.5t88 33.5q24 0 44 -6t40 -17t36 -17t33 -6q26 0 41 14.5t20 31.5l77 -36q-18 -51 -50 -84.5t-88 -33.5q-24 0 -44 6t-40 17t-36 17t-33 6q-26 0 -41 -14.5t-20 -31.5z" />
    <glyph glyph-name="hungarumlaut" unicode="&#x2dd;" horiz-adv-x="435" 
d="M165 784l116 -57l-102 -138h-99zM362 784l116 -57l-102 -138h-99z" />
    <glyph glyph-name="pi" unicode="&#x3c0;" horiz-adv-x="586" 
d="M491 437v-437h-97v437h-202v-437h-97v437h-70v97h536v-97h-70z" />
    <glyph glyph-name="uni058F" unicode="&#x58f;" 
d="M200 441h106v70q0 50 -24.5 70.5t-57.5 20.5q-49 0 -69.5 -35.5t-20.5 -89.5l-124 32q0 31 10.5 69t36 71t68 55.5t105.5 22.5q48 0 88.5 -15t70 -43.5t45.5 -70t16 -95.5v-62h90v-68h-90v-86h90v-68h-90v-219h-144v219h-106v68h106v86h-106v68z" />
    <glyph glyph-name="uni09F3" unicode="&#x9f3;" 
d="M65 488h81v53q0 32 -12.5 46.5t-37.5 14.5q-21 0 -36 -7.5t-23 -15.5l-37 111q17 13 48 25t73 12q37 0 68 -11.5t53.5 -33.5t35 -54.5t12.5 -74.5v-65h70v-96h-70v-263q5 -4 13.5 -7t19.5 -3q18 0 34.5 9t29.5 25.5t20.5 40t7.5 53.5q0 35 -10 66t-27 51l119 57
q25 -31 42 -75t17 -100q0 -55 -18.5 -102.5t-52 -82t-80 -54.5t-103.5 -20q-102 0 -156 62v343h-81v96z" />
    <glyph glyph-name="uni0E3F" unicode="&#xe3f;" 
d="M64 714h196v51h60v-52q102 -7 156 -55.5t54 -127.5q0 -50 -26 -90t-74 -64q57 -23 86 -67t29 -102q0 -88 -58 -143.5t-167 -62.5v-61h-60v60h-196v714zM387 214q0 35 -14.5 59t-52.5 32v-182q36 7 51.5 30t15.5 61zM260 120v188h-41v-188h41zM260 424v170h-41v-170h41z
M375 512q0 32 -12.5 50.5t-42.5 26.5v-160q30 8 42.5 29.5t12.5 53.5z" />
    <glyph glyph-name="uni17DB" unicode="&#x17db;" 
d="M120 456h103q-13 32 -35.5 58.5t-57.5 46.5q1 22 13.5 51t37.5 54.5t63 43t91 17.5q66 0 110.5 -26.5t73.5 -60.5l-90 -86q-15 19 -34 32.5t-49 13.5q-27 0 -38.5 -10.5t-16.5 -21.5q61 -42 86 -112h93v-96h-77v-360h-193q-16 9 -43.5 22.5t-54 33.5t-46 47t-19.5 64
q0 25 9.5 49t29.5 42t50.5 27.5t73.5 5.5v-80q-16 0 -23 -9t-7 -20q0 -19 17.5 -33.5t40.5 -28.5h12v240h-120v96z" />
    <glyph glyph-name="Wgrave" unicode="&#x1e80;" horiz-adv-x="975" 
d="M774 0h-166l-123 457l-125 -457h-166l-181 714h173l102 -476l133 476h130l133 -478l102 478h176zM537 757h-99l-102 138l116 57z" />
    <glyph glyph-name="wgrave" unicode="&#x1e81;" horiz-adv-x="802" 
d="M645 0h-156l-88 326l-90 -326h-155l-143 534h166l70 -321l90 321h127l89 -321l70 321h165zM454 589h-99l-102 138l116 57z" />
    <glyph glyph-name="Wacute" unicode="&#x1e82;" horiz-adv-x="975" 
d="M774 0h-166l-123 457l-125 -457h-166l-181 714h173l102 -476l133 476h130l133 -478l102 478h176zM517 952l116 -57l-102 -138h-99z" />
    <glyph glyph-name="wacute" unicode="&#x1e83;" horiz-adv-x="802" 
d="M645 0h-156l-88 326l-90 -326h-155l-143 534h166l70 -321l90 321h127l89 -321l70 321h165zM435 784l116 -57l-102 -138h-99z" />
    <glyph glyph-name="Wdieresis" unicode="&#x1e84;" horiz-adv-x="975" 
d="M774 0h-166l-123 457l-125 -457h-166l-181 714h173l102 -476l133 476h130l133 -478l102 478h176zM529 762v120h120v-120h-120zM319 762v120h120v-120h-120z" />
    <glyph glyph-name="wdieresis" unicode="&#x1e85;" horiz-adv-x="802" 
d="M645 0h-156l-88 326l-90 -326h-155l-143 534h166l70 -321l90 321h127l89 -321l70 321h165zM446 594v120h120v-120h-120zM236 594v120h120v-120h-120z" />
    <glyph glyph-name="Ygrave" unicode="&#x1ef2;" horiz-adv-x="659" 
d="M409 297v-297h-160v296l-255 418h185l151 -268l151 268h184zM391 757h-99l-102 138l116 57z" />
    <glyph glyph-name="ygrave" unicode="&#x1ef3;" horiz-adv-x="551" 
d="M354 -3q-21 -56 -42.5 -91.5t-46 -55.5t-53 -27t-64.5 -7t-58 5t-34 11l33 120q17 -10 39 -10q28 0 43 17t29 52l-205 523h174l110 -339l110 339h165zM336 589h-99l-102 138l116 57z" />
    <glyph glyph-name="uni2000" unicode="&#x2000;" horiz-adv-x="500" 
 />
    <glyph glyph-name="uni2001" unicode="&#x2001;" horiz-adv-x="1000" 
 />
    <glyph glyph-name="uni2002" unicode="&#x2002;" horiz-adv-x="500" 
 />
    <glyph glyph-name="uni2003" unicode="&#x2003;" horiz-adv-x="1000" 
 />
    <glyph glyph-name="uni2004" unicode="&#x2004;" horiz-adv-x="333" 
 />
    <glyph glyph-name="uni2005" unicode="&#x2005;" horiz-adv-x="250" 
 />
    <glyph glyph-name="uni2006" unicode="&#x2006;" horiz-adv-x="166" 
 />
    <glyph glyph-name="uni2007" unicode="&#x2007;" horiz-adv-x="166" 
 />
    <glyph glyph-name="uni2008" unicode="&#x2008;" horiz-adv-x="125" 
 />
    <glyph glyph-name="uni2009" unicode="&#x2009;" horiz-adv-x="200" 
 />
    <glyph glyph-name="uni200A" unicode="&#x200a;" horiz-adv-x="55" 
 />
    <glyph glyph-name="uni2010" unicode="&#x2010;" horiz-adv-x="387" 
d="M48 203v127h290v-127h-290z" />
    <glyph glyph-name="uni2011" unicode="&#x2011;" horiz-adv-x="387" 
d="M48 203v127h290v-127h-290z" />
    <glyph glyph-name="figuredash" unicode="&#x2012;" horiz-adv-x="387" 
d="M48 203v127h290v-127h-290z" />
    <glyph glyph-name="endash" unicode="&#x2013;" 
d="M14 218v127h547v-127h-547z" />
    <glyph glyph-name="emdash" unicode="&#x2014;" horiz-adv-x="920" 
d="M50 218v127h820v-127h-820z" />
    <glyph glyph-name="quoteleft" unicode="&#x2018;" horiz-adv-x="265" 
d="M48 507q0 35 7 64t21.5 55t37 50.5t54.5 50.5l48 -61q-33 -23 -54 -55t-21 -70v-6h74v-146h-167v118z" />
    <glyph glyph-name="quoteright" unicode="&#x2019;" horiz-adv-x="246" 
d="M212 596q0 -35 -7 -64t-21.5 -55t-37.5 -50.5t-55 -50.5l-48 61q34 23 54.5 55t20.5 70v6h-74v146h168v-118z" />
    <glyph glyph-name="quotesinglbase" unicode="&#x201a;" horiz-adv-x="282" 
d="M224 54q0 -69 -28.5 -122t-92.5 -102l-48 60q34 23 54.5 54t20.5 67v2h-74v148h168v-107z" />
    <glyph glyph-name="quotedblleft" unicode="&#x201c;" horiz-adv-x="487" 
d="M269 507q0 35 7 64t21.5 55t37 50.5t54.5 50.5l49 -61q-34 -23 -55 -55t-21 -70v-6h75v-146h-168v118zM48 497q0 71 28 124.5t91 105.5l49 -61q-34 -23 -55 -55t-21 -70v-6h74v-146h-166v108z" />
    <glyph glyph-name="quotedblright" unicode="&#x201d;" horiz-adv-x="467" 
d="M212 596q0 -35 -7 -64t-21.5 -55t-37.5 -50.5t-55 -50.5l-48 61q34 23 54.5 55t20.5 70v6h-74v146h168v-118zM433 606q0 -71 -28 -124.5t-91 -105.5l-50 61q35 23 56 55t21 70v6h-75v146h167v-108z" />
    <glyph glyph-name="quotedblbase" unicode="&#x201e;" horiz-adv-x="503" 
d="M224 54q0 -69 -28.5 -122t-92.5 -102l-48 60q34 23 54.5 54t20.5 67v2h-74v148h168v-107zM445 54q0 -69 -28 -121.5t-91 -102.5l-50 60q35 23 56 54t21 67v2h-75v148h167v-107z" />
    <glyph glyph-name="dagger" unicode="&#x2020;" horiz-adv-x="541" 
d="M343 424v-424h-144v424h-165v128h165v162h144v-162h164v-128h-164z" />
    <glyph glyph-name="daggerdbl" unicode="&#x2021;" horiz-adv-x="557" 
d="M351 163v-163h-144v163h-165v127h165v134h-165v127h165v163h144v-163h164v-127h-164v-134h164v-127h-164z" />
    <glyph glyph-name="bullet" unicode="&#x2022;" horiz-adv-x="384" 
d="M363 357q0 -36 -13.5 -67t-37 -54.5t-54.5 -37t-67 -13.5q-35 0 -66 13.5t-54 37t-36.5 54.5t-13.5 67t13.5 67.5t36.5 55t54 37t66 13.5q36 0 67 -13.5t54.5 -37t37 -55t13.5 -67.5z" />
    <glyph glyph-name="twodotenleader" unicode="&#x2025;" horiz-adv-x="523" 
d="M42 0v162h165v-162h-165zM316 0v162h165v-162h-165z" />
    <glyph glyph-name="ellipsis" unicode="&#x2026;" horiz-adv-x="793" 
d="M42 0v162h165v-162h-165zM314 0v162h165v-162h-165zM586 0v162h165v-162h-165z" />
    <glyph glyph-name="uni202F" unicode="&#x202f;" horiz-adv-x="200" 
 />
    <glyph glyph-name="perthousand" unicode="&#x2030;" horiz-adv-x="1186" 
d="M378 548q0 -36 -13.5 -68t-36.5 -55.5t-55 -37t-68 -13.5q-37 0 -68.5 13.5t-55 37t-37 55.5t-13.5 68q0 37 13.5 69t37 55.5t55 37t68.5 13.5q36 0 68 -13.5t55 -37t36.5 -55.5t13.5 -69zM240 0h-115l446 714h115zM780 166q0 -37 -13.5 -69t-36.5 -55.5t-54.5 -37
t-68.5 -13.5q-36 0 -68 13.5t-55 37t-36.5 55.5t-13.5 69q0 36 13.5 68t36.5 55.5t55 37t68 13.5q37 0 68.5 -13.5t54.5 -37t36.5 -55.5t13.5 -68zM278 548q0 32 -20.5 53.5t-52.5 21.5t-53 -21.5t-21 -53.5t21 -53.5t53 -21.5t52.5 21.5t20.5 53.5zM680 166q0 32 -20.5 53
t-52.5 21t-52.5 -21t-20.5 -53t20.5 -53.5t52.5 -21.5t52.5 21.5t20.5 53.5zM1156 166q0 -37 -13.5 -69t-36.5 -55.5t-54.5 -37t-68.5 -13.5q-36 0 -68 13.5t-55 37t-36.5 55.5t-13.5 69q0 36 13.5 68t36.5 55.5t55 37t68 13.5q37 0 68.5 -13.5t54.5 -37t36.5 -55.5
t13.5 -68zM1056 166q0 32 -20.5 53t-52.5 21t-52.5 -21t-20.5 -53t20.5 -53.5t52.5 -21.5t52.5 21.5t20.5 53.5z" />
    <glyph glyph-name="guilsinglleft" unicode="&#x2039;" horiz-adv-x="315" 
d="M36 315l168 217l75 -57l-119 -188l119 -188l-75 -56l-168 216v56z" />
    <glyph glyph-name="guilsinglright" unicode="&#x203a;" horiz-adv-x="314" 
d="M278 259l-167 -216l-75 56l118 188l-118 188l75 57l167 -217v-56z" />
    <glyph glyph-name="fraction" unicode="&#x2044;" horiz-adv-x="222" 
d="M-57 0h-113l450 714h113z" />
    <glyph glyph-name="uni205F" unicode="&#x205f;" horiz-adv-x="250" 
 />
    <glyph glyph-name="zerosuperior" unicode="&#x2070;" horiz-adv-x="452" 
d="M405 593q0 -44 -9.5 -84t-31 -70.5t-56 -48.5t-83.5 -18t-83 18t-55 48.5t-30 70.5t-9 84t9 84.5t30 71t55 49t83 18.5t83.5 -18.5t56 -49t31 -71t9.5 -84.5zM289 594q0 59 -13 95.5t-51 36.5q-19 0 -31 -9.5t-19 -27t-9.5 -42t-2.5 -53.5t2.5 -53t9.5 -41.5t19 -27
t31 -9.5q38 0 51 36.5t13 94.5z" />
    <glyph glyph-name="foursuperior" unicode="&#x2074;" horiz-adv-x="452" 
d="M355 463v-83h-113v83h-199v82l192 263h120v-253h52v-92h-52zM244 555v128l-96 -128h96z" />
    <glyph glyph-name="fivesuperior" unicode="&#x2075;" horiz-adv-x="452" 
d="M223 372q-66 0 -108 26t-64 68l83 52q8 -16 27 -32.5t57 -16.5q35 0 55 16.5t20 41.5q0 26 -21 40.5t-57 14.5q-29 0 -51 -9.5t-38 -23.5l-60 27l17 232h299v-102h-210l-9 -58q14 8 36.5 12.5t45.5 4.5q34 0 63.5 -9t51.5 -27t35 -43.5t13 -58.5q0 -30 -12 -58t-35 -49.5
t-57.5 -34.5t-80.5 -13z" />
    <glyph glyph-name="sixsuperior" unicode="&#x2076;" horiz-adv-x="452" 
d="M344 701q-19 11 -39.5 15t-39.5 4q-47 0 -77 -19t-30 -62q27 19 52 24t43 5q34 0 63 -10t50.5 -28.5t33.5 -44.5t12 -58q0 -31 -12 -59t-35 -49.5t-57 -34t-77 -12.5q-88 0 -137 54.5t-49 163.5t52 165q26 28 65.5 44t97.5 16q29 0 62.5 -6t62.5 -24zM162 526
q0 -23 17 -41.5t54 -18.5q34 0 50 16.5t16 39.5q0 24 -16.5 42t-51.5 18q-32 0 -50.5 -15t-18.5 -41z" />
    <glyph glyph-name="sevensuperior" unicode="&#x2077;" horiz-adv-x="452" 
d="M407 731l-208 -351h-124l202 326h-225v102h355v-77z" />
    <glyph glyph-name="eightsuperior" unicode="&#x2078;" horiz-adv-x="452" 
d="M225 457q25 0 42 12t17 41t-16.5 41t-42.5 12t-42.5 -12t-16.5 -41t17.5 -41t41.5 -12zM225 642q20 0 36.5 10t16.5 35t-16 35t-37 10t-36.5 -10t-15.5 -35t16 -35t36 -10zM225 372q-43 0 -75.5 10.5t-54.5 28.5t-33.5 42t-11.5 51q0 38 20 64.5t53 37.5q-25 12 -44 33.5
t-19 59.5q0 29 13.5 51t36 36.5t52.5 22t63 7.5q34 0 64 -7.5t52.5 -22t36 -36.5t13.5 -51q0 -38 -19 -59.5t-45 -33.5q34 -11 54 -37.5t20 -64.5q0 -27 -11.5 -51t-33.5 -42t-55 -28.5t-76 -10.5z" />
    <glyph glyph-name="ninesuperior" unicode="&#x2079;" horiz-adv-x="452" 
d="M108 487q19 -11 39.5 -15t39.5 -4q47 0 77 19t30 62q-27 -19 -52 -24t-43 -5q-34 0 -63 10t-50.5 28.5t-33.5 44.5t-12 58q0 31 12 59t35 49.5t56.5 34t77.5 12.5q88 0 137 -54.5t49 -163.5t-52 -165q-26 -28 -65.5 -44t-97.5 -16q-29 0 -62.5 6t-62.5 24zM290 662
q0 23 -17 41.5t-54 18.5q-34 0 -50 -16.5t-16 -39.5q0 -24 16.5 -42t51.5 -18q32 0 50.5 15t18.5 41z" />
    <glyph glyph-name="zeroinferior" unicode="&#x2080;" horiz-adv-x="452" 
d="M405 119q0 -44 -9.5 -84t-31 -70.5t-56 -48.5t-83.5 -18t-83 18t-55 48.5t-30 70.5t-9 84t9 84.5t30 71t55 49t83 18.5t83.5 -18.5t56 -49t31 -71t9.5 -84.5zM289 120q0 59 -13 95.5t-51 36.5q-19 0 -31 -9.5t-19 -27t-9.5 -42t-2.5 -53.5t2.5 -53t9.5 -41.5t19 -27
t31 -9.5q38 0 51 36.5t13 94.5z" />
    <glyph glyph-name="oneinferior" unicode="&#x2081;" horiz-adv-x="390" 
d="M47 245l148 89h99v-428h-113v298l-78 -45z" />
    <glyph glyph-name="twoinferior" unicode="&#x2082;" horiz-adv-x="452" 
d="M45 -94v14q0 46 31.5 89t102.5 96q21 15 39 27.5t30.5 23.5t20 22t7.5 24q0 19 -15.5 30.5t-43.5 11.5t-52.5 -14t-37.5 -46l-90 48q25 48 73 79t118 31q75 0 121.5 -38t46.5 -104q0 -42 -21 -70.5t-63 -54.5q-14 -8 -30 -17t-31.5 -18t-30 -17.5t-23.5 -15.5h201v-101
h-353z" />
    <glyph glyph-name="threeinferior" unicode="&#x2083;" horiz-adv-x="452" 
d="M155 133l97 99h-182v102h322v-68l-87 -91q50 -13 79 -45.5t29 -80.5q0 -30 -12 -57.5t-35.5 -48t-58.5 -33t-80 -12.5q-37 0 -65.5 8t-50.5 22.5t-38 33.5t-28 41l84 52q6 -10 14.5 -20.5t19.5 -19.5t26.5 -14.5t36.5 -5.5q35 0 53.5 15.5t18.5 40.5q0 24 -17 37t-42 13
q-21 0 -39 -10z" />
    <glyph glyph-name="fourinferior" unicode="&#x2084;" horiz-adv-x="452" 
d="M355 -11v-83h-113v83h-199v82l192 263h120v-253h52v-92h-52zM244 81v128l-96 -128h96z" />
    <glyph glyph-name="fiveinferior" unicode="&#x2085;" horiz-adv-x="452" 
d="M223 -102q-66 0 -108 26t-64 68l83 52q8 -16 27 -32.5t57 -16.5q35 0 55 16.5t20 41.5q0 26 -21 40.5t-57 14.5q-29 0 -51 -9.5t-38 -23.5l-60 27l17 232h299v-102h-210l-9 -58q14 8 36.5 12.5t45.5 4.5q34 0 63.5 -9t51.5 -27t35 -43.5t13 -58.5q0 -30 -12 -58
t-35 -49.5t-57.5 -34.5t-80.5 -13z" />
    <glyph glyph-name="sixinferior" unicode="&#x2086;" horiz-adv-x="452" 
d="M344 227q-19 11 -39.5 15t-39.5 4q-47 0 -77 -19t-30 -62q27 19 52 24t43 5q34 0 63 -10t50.5 -28.5t33.5 -44.5t12 -58q0 -31 -12 -59t-35 -49.5t-57 -34t-77 -12.5q-88 0 -137 54.5t-49 163.5t52 165q26 28 65.5 44t97.5 16q29 0 62.5 -6t62.5 -24zM162 52
q0 -23 17 -41.5t54 -18.5q34 0 50 16.5t16 39.5q0 24 -16.5 42t-51.5 18q-32 0 -50.5 -15t-18.5 -41z" />
    <glyph glyph-name="seveninferior" unicode="&#x2087;" horiz-adv-x="452" 
d="M407 257l-208 -351h-124l202 326h-225v102h355v-77z" />
    <glyph glyph-name="eightinferior" unicode="&#x2088;" horiz-adv-x="452" 
d="M225 -17q25 0 42 12t17 41t-16.5 41t-42.5 12t-42.5 -12t-16.5 -41t17.5 -41t41.5 -12zM225 168q20 0 36.5 10t16.5 35t-16 35t-37 10t-36.5 -10t-15.5 -35t16 -35t36 -10zM225 -102q-43 0 -75.5 10.5t-54.5 28.5t-33.5 42t-11.5 51q0 38 20 64.5t53 37.5
q-25 12 -44 33.5t-19 59.5q0 29 13.5 51t36 36.5t52.5 22t63 7.5q34 0 64 -7.5t52.5 -22t36 -36.5t13.5 -51q0 -38 -19 -59.5t-45 -33.5q34 -11 54 -37.5t20 -64.5q0 -27 -11.5 -51t-33.5 -42t-55 -28.5t-76 -10.5z" />
    <glyph glyph-name="nineinferior" unicode="&#x2089;" horiz-adv-x="452" 
d="M108 13q19 -11 39.5 -15t39.5 -4q47 0 77 19t30 62q-27 -19 -52 -24t-43 -5q-34 0 -63 10t-50.5 28.5t-33.5 44.5t-12 58q0 31 12 59t35 49.5t56.5 34t77.5 12.5q88 0 137 -54.5t49 -163.5t-52 -165q-26 -28 -65.5 -44t-97.5 -16q-29 0 -62.5 6t-62.5 24zM290 188
q0 23 -17 41.5t-54 18.5q-34 0 -50 -16.5t-16 -39.5q0 -24 16.5 -42t51.5 -18q32 0 50.5 15t18.5 41z" />
    <glyph glyph-name="colonmonetary" unicode="&#x20a1;" 
d="M157 57q-60 50 -91 126t-31 167q0 74 21 140.5t60 117.5t95 82t125 36l11 39h66l-11 -41q10 -2 19 -4l18 -4l13 49h66l-20 -72q36 -20 63 -48l-74 -109q-12 11 -25 22l-116 -431q8 -2 15.5 -2h15.5q51 0 89 20.5t66 58.5v-166q-32 -24 -71 -37.5t-94 -13.5q-15 0 -29.5 1
t-28.5 3l-13 -49h-65l17 64q-9 4 -18 7t-18 8l-21 -79h-65zM253 173q16 -16 33 -26l117 438q-8 2 -17.5 3t-19.5 1h-1zM196 353q0 -57 13 -100l86 320q-26 -14 -45 -36.5t-31 -51.5t-17.5 -63t-5.5 -69z" />
    <glyph glyph-name="uni20A6" unicode="&#x20a6;" 
d="M10 481h56v233h135l103 -233h67v233h139v-233h56v-68h-56v-86h56v-68h-56v-259h-120l-115 259h-69v-259h-140v259h-56v68h56v86h-56v68zM206 327h38l-38 86v-86zM371 330v83h-37z" />
    <glyph glyph-name="uni20A9" unicode="&#x20a9;" 
d="M10 534h23l-27 180h126l20 -180h71l21 132h89l21 -132h70l20 180h125l-28 -180h25v-68h-36l-13 -86h49v-68h-60l-48 -312h-109l-47 312h-31l-47 -312h-108l-48 312h-58v68h47l-13 86h-34v68zM169 380h29l14 86h-53zM378 380h29l9 86h-52zM181 273l6 39h-11zM395 273l4 39
h-10zM281 380h11l-5 37z" />
    <glyph glyph-name="uni20AA" unicode="&#x20aa;" horiz-adv-x="623" 
d="M211 481h82v-358h47q35 0 58.5 7t37 21.5t19 35t5.5 47.5v480h123v-480q0 -57 -11.5 -100.5t-40 -73.5t-76 -45t-119.5 -15h-125v481zM40 714h145q66 0 109.5 -15t69.5 -45t37 -73.5t11 -100.5v-247h-82v247q0 27 -5.5 47.5t-19 35t-37 21.5t-58.5 7h-47v-591h-123v714z
" />
    <glyph glyph-name="dong" unicode="&#x20ab;" 
d="M246 -12q-50 0 -90 21t-69 58.5t-44.5 88t-15.5 110.5q0 59 15.5 110.5t44.5 89t69 59t90 21.5q42 0 77 -18.5t58 -53.5v125h-106v67h106v48h143v-48h43v-67h-43v-599h-143v59q-23 -35 -58 -53t-77 -18zM55 -73h469v-67h-469v67zM277 115q49 0 76.5 40.5t27.5 110.5
q0 71 -28 112t-76 41q-47 0 -72.5 -41.5t-25.5 -111.5t25 -110.5t73 -40.5z" />
    <glyph glyph-name="Euro" unicode="&#x20ac;" 
d="M374 -13q-57 0 -107 17.5t-90.5 51.5t-69.5 85t-44 119h-63v67h55q-1 7 -1 12.5v17.5v17.5t1 10.5h-55v65h63q13 68 42.5 120t71 87t92 52.5t106.5 17.5q62 0 107 -19t77 -48l-82 -107q-39 36 -95 36q-118 0 -155 -139h197v-65h-208q-1 -7 -1 -11.5v-15.5v-17.5t1 -13.5
h208v-67h-196q17 -66 57.5 -100.5t94.5 -34.5q40 0 67 16t44 33l80 -106q-36 -38 -83.5 -59.5t-113.5 -21.5z" />
    <glyph glyph-name="uni20AD" unicode="&#x20ad;" 
d="M20 448h60v266h156v-226l160 226h168l-201 -266h178v-96h-176l210 -352h-175l-164 298v-298h-156v352h-60v96z" />
    <glyph glyph-name="uni20AE" unicode="&#x20ae;" 
d="M100 351l110 49v193h-178v121h511v-121h-178v-124l110 49v-74l-110 -49v-62l110 49v-74l-110 -49v-259h-155v190l-110 -49v74l110 49v62l-110 -49v74z" />
    <glyph glyph-name="uni20B1" unicode="&#x20b1;" 
d="M10 534h60v180h165q112 0 181.5 -49t95.5 -131h54v-68h-42q0 -7 0.5 -13t0.5 -13q0 -8 -0.5 -15t-1.5 -15h43v-68h-56q-26 -84 -97 -132t-177 -48h-11v-162h-155v342h-60v68h60v56h-60v68zM372 438q0 7 -0.5 14t-1.5 14h-145v-56h145q1 7 1.5 13.5t0.5 14.5zM243 299
q39 0 64.5 11t40.5 32h-123v-43h18zM225 534h122q-15 20 -40.5 31.5t-64.5 11.5h-17v-43z" />
    <glyph glyph-name="uni20B4" unicode="&#x20b4;" 
d="M30 481h292q26 24 26 53q0 21 -15.5 41t-51.5 20q-31 0 -57.5 -17.5t-45.5 -48.5l-98 83q41 54 94.5 84.5t116.5 30.5q40 0 77.5 -13.5t67 -39t47 -61.5t17.5 -82q0 -29 -7 -50h53v-68h-91q-21 -23 -50.5 -43t-66.5 -40l-6 -3h214v-68h-315q-21 -26 -21 -59q0 -36 23 -58
t65 -22q40 0 78.5 22t63.5 67l100 -79q-35 -66 -99.5 -104.5t-147.5 -38.5q-48 0 -90.5 13.5t-74.5 39.5t-51 64.5t-19 88.5q0 37 10 66h-38v68h76q23 27 51.5 48t57.5 38h-185v68z" />
    <glyph glyph-name="uni20B8" unicode="&#x20b8;" 
d="M210 413h-178v121h512v-121h-179v-413h-155v413zM32 714h512v-121h-512v121z" />
    <glyph glyph-name="uni20B9" unicode="&#x20b9;" 
d="M40 300v108h164q101 0 125 59h-289v67h290q-20 59 -115 59h-175v121h510v-67h-127q52 -45 63 -113h64v-67h-66q-6 -39 -26 -72t-50.5 -57t-70.5 -37.5t-88 -13.5h-13l260 -287h-188z" />
    <glyph glyph-name="uni20BA" unicode="&#x20ba;" 
d="M80 235l-70 -27v104l70 27v60l-70 -27v104l70 27v211h155v-151l165 64v-104l-165 -64v-60l165 64v-104l-165 -64v-157h7q81 0 126 44t59 121l136 -40q-13 -57 -37 -105t-63 -83.5t-94.5 -55t-131.5 -19.5h-157v235z" />
    <glyph glyph-name="uni20BC" unicode="&#x20bc;" 
d="M247 502q-32 -22 -49.5 -88t-17.5 -190q0 -122 18 -224h-153q-8 50 -13 108t-5 111q0 87 14.5 160t42.5 127.5t69 88.5t94 44v75l82 13v-88q53 -10 94 -44t69 -88t42.5 -127t14.5 -161q0 -53 -5 -111t-13 -108h-154q9 51 14 106.5t5 121.5q0 121 -17.5 186.5t-49.5 87.5
v-339l-82 -13v352z" />
    <glyph glyph-name="uni20BD" unicode="&#x20bd;" 
d="M81 153h-61v87h61v52h-61v137h61v285h225q58 0 104.5 -15.5t78.5 -43t49.5 -66.5t17.5 -86t-17.5 -86t-49 -66.5t-75.5 -43t-98 -15.5h-80v-52h262v-87h-262v-153h-155v153zM314 429q42 0 65.5 20.5t23.5 53.5q0 35 -27 54.5t-72 19.5h-68v-148h78z" />
    <glyph glyph-name="litre" unicode="&#x2113;" horiz-adv-x="555" 
d="M519 86q-12 -17 -30 -34t-42 -31.5t-55.5 -23.5t-71.5 -9q-88 0 -133.5 45.5t-45.5 134.5v14q-19 -8 -37 -15.5t-36 -12.5l-37 101q29 10 56.5 21.5t53.5 24.5v166q0 42 9 80t29.5 67.5t54 46.5t82.5 17q41 0 72 -12.5t52 -35t32 -53t11 -65.5q0 -34 -11 -69t-36.5 -69
t-66 -67.5t-99.5 -64.5v-68q0 -37 18 -52t46 -15q19 0 35 6t28.5 15t22 19.5t15.5 19.5zM270 375q48 35 69.5 72t21.5 68q0 55 -44 55q-26 0 -36.5 -21t-10.5 -50v-124z" />
    <glyph glyph-name="uni2117" unicode="&#x2117;" horiz-adv-x="826" 
d="M379 281v-122h-116v397h186q40 0 69 -11t48 -30t28 -44t9 -53t-9 -53t-28 -43.5t-49 -29.5t-71 -11h-67zM487 417q0 25 -14.5 39t-44.5 14h-49v-106h49q59 0 59 53zM37 357q0 78 29.5 146.5t80.5 119.5t119.5 80.5t146.5 29.5t146.5 -29.5t119.5 -80.5t80.5 -119.5
t29.5 -146.5t-29.5 -146.5t-80.5 -119.5t-119.5 -80.5t-146.5 -29.5t-146.5 29.5t-119.5 80.5t-80.5 119.5t-29.5 146.5zM94 357q0 -66 25 -124.5t68.5 -101.5t101.5 -68t124 -25t124.5 25t101.5 68t68 101.5t25 124.5t-25 124t-68 101.5t-101.5 68.5t-124.5 25t-124 -25
t-101.5 -68.5t-68.5 -101.5t-25 -124z" />
    <glyph glyph-name="uni2120" unicode="&#x2120;" horiz-adv-x="719" 
d="M592 413v208l-66 -208h-55l-66 208v-208h-75v301h105l64 -207l64 207h104v-301h-75zM161 653q-17 0 -27.5 -6t-10.5 -17q0 -14 13 -18t29 -7q21 -4 44 -10t41.5 -17t31 -28t12.5 -44q0 -42 -32.5 -70.5t-94.5 -28.5q-46 0 -81.5 17.5t-56.5 51.5l61 39q12 -20 33.5 -30.5
t47.5 -10.5q21 0 34 6.5t13 19.5q0 15 -17.5 20.5t-39.5 9.5q-24 4 -45 10.5t-36.5 17t-25 26.5t-9.5 40q0 47 34 71.5t85 24.5q41 0 74 -16t53 -46l-58 -39q-12 17 -31.5 25.5t-40.5 8.5z" />
    <glyph glyph-name="uni2121" unicode="&#x2121;" horiz-adv-x="719" 
d="M312 413v208l-66 -208h-55l-66 208v-208h-75v301h105l64 -207l64 207h104v-301h-75zM639 605q-27 46 -70 46q-34 0 -53.5 -25t-19.5 -63t19.5 -63t53.5 -25q25 0 42 14t28 34l62 -33q-47 -84 -135 -84q-32 0 -59 11t-47 31.5t-31.5 49.5t-11.5 65t12 65t32 49.5
t47.5 31.5t57.5 11q41 0 75 -18.5t58 -60.5z" />
    <glyph glyph-name="trademark" unicode="&#x2122;" horiz-adv-x="719" 
d="M592 413v208l-66 -208h-55l-66 208v-208h-75v301h105l64 -207l64 207h104v-301h-75zM202 643v-230h-77v230h-90v71h258v-71h-91z" />
    <glyph glyph-name="uni2123" unicode="&#x2123;" horiz-adv-x="719" 
d="M312 413v208l-66 -208h-55l-66 208v-208h-75v301h105l64 -207l64 207h104v-301h-75zM555 482q35 0 53.5 22t18.5 60t-18.5 59t-53.5 21h-42v-162h42zM435 413v301h119q37 0 65 -11.5t47.5 -31.5t29.5 -47.5t10 -59.5t-10 -60t-29.5 -48t-47.5 -31.5t-65 -11.5h-119z" />
    <glyph glyph-name="uni2124" unicode="&#x2124;" horiz-adv-x="719" 
d="M312 413v208l-66 -208h-55l-66 208v-208h-75v301h105l64 -207l64 207h104v-301h-75zM557 653q-17 0 -27.5 -6t-10.5 -17q0 -14 13 -18t29 -7q21 -4 44 -10t41.5 -17t31 -28t12.5 -44q0 -42 -32.5 -70.5t-94.5 -28.5q-46 0 -81.5 17.5t-56.5 51.5l61 39q12 -20 33.5 -30.5
t47.5 -10.5q21 0 34 6.5t13 19.5q0 15 -17.5 20.5t-39.5 9.5q-24 4 -45 10.5t-36.5 17t-25 26.5t-9.5 40q0 47 34 71.5t85 24.5q41 0 74 -16t53 -46l-58 -39q-12 17 -31.5 25.5t-40.5 8.5z" />
    <glyph glyph-name="uni2125" unicode="&#x2125;" horiz-adv-x="719" 
d="M312 413v208l-66 -208h-55l-66 208v-208h-75v301h105l64 -207l64 207h104v-301h-75zM610 413l-54 103h-43v-103h-78v301h140q56 0 84 -26t28 -70q0 -32 -16 -53.5t-39 -34.5l63 -117h-85zM609 612q0 16 -10 24t-25 8h-61v-65h60q16 0 26 9t10 24z" />
    <glyph glyph-name="Omega" unicode="&#x2126;" horiz-adv-x="625" 
d="M313 727q60 0 109.5 -22.5t85 -63t55 -96t19.5 -121.5q0 -58 -13.5 -106t-33.5 -88.5t-43.5 -74.5t-44.5 -65h120v-90h-213l-15 86q34 49 61.5 91t46 82t28.5 81t10 89q0 45 -12 83.5t-34.5 66.5t-54.5 44t-71 16t-71 -16t-54.5 -44t-34.5 -66.5t-12 -83.5q0 -48 10 -89
t28.5 -81t45.5 -82t62 -91l-16 -86h-212v90h120q-21 31 -45 65.5t-44 75t-33.5 88.5t-13.5 106q0 66 19.5 121t55 95.5t85.5 63t110 22.5z" />
    <glyph glyph-name="estimated" unicode="&#x212e;" horiz-adv-x="610" 
d="M158 273v-187q31 -30 68 -45.5t82 -15.5q65 0 113 29t86 95l36 -22q-24 -37 -48.5 -63t-52.5 -43t-61 -25t-73 -8q-61 0 -110 22t-83.5 60.5t-53.5 90.5t-19 112t19 112t53.5 90.5t83.5 60.5t110 22q60 0 109 -21t84 -59t54.5 -90t19.5 -115h-417zM459 310v150
q-67 62 -152 62q-45 0 -81.5 -16t-67.5 -46v-150h301z" />
    <glyph glyph-name="uni2150" unicode="&#x2150;" horiz-adv-x="950" 
d="M640 714h113l-450 -714h-113zM242 333q-44 0 -79.5 14.5t-60.5 40.5t-38.5 61.5t-13.5 77.5t13.5 78t38.5 62t60 41t77 15q31 0 57 -8t46 -21t34.5 -29.5t24.5 -33.5l-77 -49q-13 23 -32 36t-44 13q-40 0 -62 -28.5t-22 -73.5q0 -48 22.5 -76t63.5 -28q28 0 47.5 13.5
t34.5 33.5l71 -59q-24 -32 -62.5 -56t-98.5 -24zM711 -9q-44 0 -79.5 14t-61 39.5t-39.5 61t-14 79.5t14 80t39.5 62t61 40t79.5 14q45 0 80.5 -14t61 -40t39 -62t13.5 -80t-13.5 -79.5t-39 -61t-61 -39.5t-80.5 -14zM711 80q40 0 60.5 29.5t20.5 76.5q0 46 -20.5 76
t-60.5 30q-38 0 -58.5 -30t-20.5 -76q0 -47 20.5 -76.5t58.5 -29.5z" />
    <glyph glyph-name="partialdiff" unicode="&#x2202;" horiz-adv-x="611" 
d="M105 679q32 23 75.5 35.5t92.5 12.5q64 0 118 -23.5t92.5 -67.5t60 -108t21.5 -146q0 -64 -15 -133.5t-49 -127.5t-89 -96t-136 -38q-54 0 -97.5 18t-74 49.5t-46.5 74.5t-16 94q0 56 19.5 101.5t52.5 78t77.5 50t95.5 17.5q62 0 110 -24.5t71 -63.5q0 56 -11 102t-35 79
t-61.5 51.5t-89.5 18.5q-31 0 -63 -8t-62 -29zM280 82q35 0 63.5 13t49 35.5t31.5 52.5t11 64q0 62 -35.5 95t-96.5 33q-39 0 -67.5 -13t-47 -34.5t-28 -49.5t-9.5 -59q0 -62 34.5 -99.5t94.5 -37.5z" />
    <glyph glyph-name="Delta" unicode="&#x2206;" horiz-adv-x="624" 
d="M594 0h-564v14l276 748h12l276 -748v-14zM168 97h288l-144 416z" />
    <glyph glyph-name="product" unicode="&#x220f;" horiz-adv-x="612" 
d="M504 616v-616h-97v616h-202v-616h-97v616h-70v98h536v-98h-70z" />
    <glyph glyph-name="summation" unicode="&#x2211;" horiz-adv-x="585" 
d="M537 0h-503v24l280 333l-280 333v24h503v-98h-307l214 -259l-214 -260h307v-97z" />
    <glyph glyph-name="minus" unicode="&#x2212;" 
d="M20 203v127h535v-127h-535z" />
    <glyph glyph-name="radical" unicode="&#x221a;" horiz-adv-x="582" 
d="M590 714l-382 -768h-12l-189 370l87 44l107 -211l302 608z" />
    <glyph glyph-name="infinity" unicode="&#x221e;" horiz-adv-x="793" 
d="M752 275q0 -37 -14 -69t-38 -56t-56 -37.5t-68 -13.5q-35 0 -64.5 11t-57.5 39l-57 58l-58 -58q-28 -28 -57.5 -39t-64.5 -11q-36 0 -68 13.5t-56 37.5t-38 56t-14 69t14 69t38 55.5t56 37t68 13.5q35 0 64.5 -10.5t57.5 -38.5l58 -58l57 58q28 28 57.5 38.5t64.5 10.5
q36 0 68 -13.5t56 -37t38 -55.5t14 -69zM654 275q0 16 -6 30t-16.5 24.5t-25 16.5t-30.5 6q-18 0 -33 -8t-28 -19.5t-25 -25t-24 -24.5l54 -53q23 -24 56 -24q32 0 55 22.5t23 54.5zM274 329q-24 23 -57 23q-32 0 -54.5 -22.5t-22.5 -54.5t22.5 -54.5t54.5 -22.5q18 0 33 8
t28.5 19.5t25.5 25t24 25.5z" />
    <glyph glyph-name="integral" unicode="&#x222b;" horiz-adv-x="329" 
d="M268 672q-17 17 -37 17q-40 0 -40 -49q0 -17 2.5 -48t6.5 -70.5t8.5 -84t9.5 -87.5q5 -50 9.5 -96.5t8 -86.5t5.5 -71t2 -50q0 -60 -32 -91.5t-88 -31.5q-38 0 -63.5 11.5t-43.5 27.5l48 61q16 -16 36 -16q40 0 40 49q0 16 -2.5 47t-6.5 71t-9 84.5t-9 87.5
q-5 49 -9.5 96t-8 87t-5.5 71t-2 50q0 60 32 91.5t89 31.5q38 0 63.5 -11.5t42.5 -27.5z" />
    <glyph glyph-name="approxequal" unicode="&#x2248;" 
d="M24 195q11 15 26.5 32t34.5 31.5t41.5 24t49.5 9.5q29 0 55 -9t64 -25q34 -14 58.5 -22.5t46.5 -8.5q55 0 111 45l41 -50q-11 -15 -26.5 -32.5t-34.5 -32.5t-41.5 -24.5t-49.5 -9.5q-30 0 -55.5 9t-63.5 26q-34 15 -58.5 23t-46.5 8q-56 0 -111 -46zM24 389
q11 15 26.5 32t34.5 31.5t41.5 24t49.5 9.5q29 0 55 -9t64 -25q34 -14 58.5 -23t46.5 -9q54 0 111 46l41 -51q-11 -15 -26.5 -32t-34.5 -32t-41.5 -24.5t-49.5 -9.5q-30 0 -55.5 9t-63.5 26q-34 14 -58.5 22.5t-46.5 8.5q-28 0 -56 -12t-55 -34z" />
    <glyph glyph-name="notequal" unicode="&#x2260;" 
d="M287 133l-47 -143h-95l48 143h-171v105h205l26 76h-231v106h266l48 144h95l-48 -144h170v-106h-205l-26 -76h231v-105h-266z" />
    <glyph glyph-name="lessequal" unicode="&#x2264;" 
d="M472 705l56 -113l-269 -165l279 -170l-66 -108l-442 278zM20 0v127h535v-127h-535z" />
    <glyph glyph-name="greaterequal" unicode="&#x2265;" 
d="M545 427l-442 -278l-66 108l279 170l-269 165l56 113zM20 0v127h535v-127h-535z" />
    <glyph glyph-name="lozenge" unicode="&#x25ca;" horiz-adv-x="603" 
d="M306 -48h-12l-266 405l266 405h12l266 -405zM300 600l-153 -243l153 -244l153 244z" />
    <glyph glyph-name="uni25FC" unicode="&#x25fc;" horiz-adv-x="535" 
d="M0 535h535v-535h-535v535z" />
    <glyph glyph-name="commaaccent" unicode="&#xf6c3;" horiz-adv-x="270" 
d="M78 -30h156l-136 -170l-78 26z" />
    <glyph glyph-name="apple" unicode="&#xf8ff;" horiz-adv-x="874" 
d="M675 714q25 0 46.5 -9.5t37.5 -25.5t25.5 -37.5t9.5 -46.5v-476q0 -25 -9.5 -46.5t-25.5 -37.5t-37.5 -25.5t-46.5 -9.5h-476q-25 0 -46.5 9.5t-37.5 25.5t-25.5 37.5t-9.5 46.5v476q0 25 9.5 46.5t25.5 37.5t37.5 25.5t46.5 9.5h476zM664 547q0 15 -11 26t-27 11h-379
q-15 0 -26 -11t-11 -26v-380q0 -15 11 -26t26 -11h379q16 0 27 11t11 26v380zM361 260q-9 0 -15 6t-6 15v152q0 9 6 15t15 6h152q9 0 15 -6t6 -15v-152q0 -9 -6 -15t-15 -6h-152z" />
    <glyph glyph-name="f_f" unicode="&#xfb00;" horiz-adv-x="716" 
d="M439 576q0 81 43 115t134 34q24 0 47 -2.5t44 -8.5l-16 -114q-6 2 -18.5 5t-29.5 3q-23 0 -37 -8.5t-14 -29.5v-36h107v-121h-107v-413h-153v413h-191v-413h-153v413h-76v121h76v42q0 81 43 115t134 34q24 0 47 -2.5t44 -8.5l-16 -114q-6 2 -18.5 5t-29.5 3
q-23 0 -37 -8.5t-14 -29.5v-36h191v42z" />
    <glyph glyph-name="uniFEFF" unicode="&#xfeff;" horiz-adv-x="0" 
 />
    <glyph glyph-name="zero.lin" 
d="M548 356q0 -72 -14 -139t-44.5 -118t-80.5 -81.5t-122 -30.5t-121.5 30.5t-80 81.5t-44 118t-13.5 139t13.5 139t44 118.5t80 82.5t121.5 31t122 -31t80.5 -82.5t44.5 -118.5t14 -139zM387 357q0 52 -4.5 96t-16 76.5t-31 50.5t-48.5 18t-48.5 -18t-30.5 -50.5
t-15.5 -76.5t-4.5 -96t4.5 -96t15.5 -76.5t30.5 -50.5t48.5 -18t48.5 18t31 50.5t16 76.5t4.5 96z" />
    <glyph glyph-name="one.lin" 
d="M62 558l230 156h138v-714h-158v530l-132 -92z" />
    <glyph glyph-name="two.lin" 
d="M25 0v20q0 36 11 71t35 71t61.5 76t90.5 87q31 27 57 50t45.5 44.5t30.5 42.5t11 44q0 40 -28.5 61t-68.5 21q-42 0 -78 -24t-54 -69l-125 70q17 34 43 64t60 51.5t76 34t92 12.5q56 0 102 -16t79 -45t51.5 -70.5t18.5 -93.5q0 -36 -8.5 -65t-24.5 -53.5t-38.5 -47
t-50.5 -44.5q-27 -22 -52.5 -39.5t-48.5 -34.5t-43.5 -35t-36.5 -40h307v-143h-514z" />
    <glyph glyph-name="three.lin" 
d="M176 382l148 188h-274v144h470v-98l-132 -169q35 -8 65 -25.5t51.5 -44.5t34 -62.5t12.5 -77.5q0 -49 -17.5 -94t-52 -79.5t-86 -55.5t-119.5 -21q-52 0 -92.5 12t-72 34t-55.5 51t-42 64l120 71q19 -38 52.5 -66t84.5 -28q53 0 86 31t33 82q0 45 -26 72.5t-67 27.5
q-31 0 -57 -18z" />
    <glyph glyph-name="four.lin" 
d="M473 148v-148h-157v148h-296v118l286 448h167v-435h79v-131h-79zM319 279v244l-155 -244h155z" />
    <glyph glyph-name="five.lin" 
d="M553 242q0 -49 -17 -95t-51 -81.5t-85 -57t-119 -21.5q-94 0 -158 42t-95 120l130 65q12 -37 41.5 -63t77.5 -26q51 0 83 31.5t32 83.5t-33 82.5t-87 30.5q-43 0 -75.5 -18t-57.5 -46l-84 40l25 385h435v-144h-311l-13 -129q21 17 54.5 25t68.5 8q50 0 93.5 -16t76 -46
t51 -73t18.5 -97z" />
    <glyph glyph-name="six.lin" 
d="M463 557q-29 20 -60 27t-57 7q-75 0 -119 -41.5t-44 -124.5q7 7 19 16t29.5 16.5t41 13t53.5 5.5q50 0 92.5 -16.5t74 -47t49 -74t17.5 -96.5q0 -51 -17.5 -97.5t-51 -81.5t-83 -55.5t-113.5 -20.5q-127 0 -198 91t-71 267q0 179 75 277q38 50 96.5 77t139.5 27
q47 0 95 -11t89 -38zM186 244q0 -23 6.5 -45t20 -39t34.5 -28t50 -11q51 0 76.5 32.5t25.5 80.5q0 24 -6.5 45.5t-19.5 38t-33 26t-47 9.5q-47 0 -77 -28.5t-30 -80.5z" />
    <glyph glyph-name="seven.lin" 
d="M551 602l-308 -602h-173l300 570h-337v144h518v-112z" />
    <glyph glyph-name="eight.lin" 
d="M287 110q41 0 67.5 25t26.5 78q0 52 -25.5 77.5t-68.5 25.5q-42 0 -68 -26t-26 -78t27 -77t67 -25zM287 431q16 0 31 4.5t27 14.5t19 26.5t7 41.5q0 47 -25.5 67t-58.5 20t-58 -20t-25 -67q0 -25 7 -41.5t18.5 -26.5t26.5 -14.5t31 -4.5zM287 -13q-62 0 -110 17
t-80.5 46.5t-49 69t-16.5 85.5q0 62 29.5 107.5t80.5 66.5q-41 20 -68 58t-27 98q0 47 19.5 83t52.5 60t76.5 36.5t92.5 12.5t93 -12.5t77 -36.5t52.5 -60t19.5 -83q0 -60 -27 -98t-69 -58q52 -21 81.5 -66.5t29.5 -107.5q0 -46 -16.5 -85.5t-49 -69t-80.5 -46.5t-111 -17z
" />
    <glyph glyph-name="nine.lin" 
d="M113 157q29 -20 60 -27t57 -7q75 0 119 41.5t44 124.5q-7 -7 -19 -16t-29.5 -16.5t-41 -13t-53.5 -5.5q-50 0 -92.5 16.5t-74 47t-49 74t-17.5 96.5q0 51 17.5 97.5t51 81.5t83 55.5t113.5 20.5q127 0 198 -91t71 -267q0 -180 -75 -277q-38 -50 -96.5 -77t-139.5 -27
q-47 0 -95 11t-89 38zM390 470q0 22 -6.5 44.5t-20 39.5t-34.5 28t-50 11q-51 0 -76.5 -32.5t-25.5 -80.5q0 -24 6.5 -45.5t19.5 -38t33 -26t47 -9.5q47 0 77 28.5t30 80.5z" />
    <glyph glyph-name="exclamdown.lin" horiz-adv-x="297" 
d="M231 154v-154h-165v154l43 330h80zM231 714v-164h-165v164h165z" />
    <glyph glyph-name="questiondown.lin" horiz-adv-x="551" 
d="M45 198q0 42 13.5 73t33.5 54t43.5 40t43.5 33t33.5 32.5t13.5 38.5v15h160v-11q0 -38 -13 -66t-33 -49.5t-42.5 -39.5t-42.5 -35.5t-33 -37t-13 -44.5q0 -40 29.5 -60t73.5 -20q43 0 74.5 17t57.5 41l78 -107q-40 -35 -97 -60t-134 -25q-55 0 -100 14.5t-77.5 41.5
t-50.5 66t-18 89zM386 714v-164h-165v164h165z" />
    <glyph glyph-name="hyphen.lin" horiz-adv-x="387" 
d="M48 269v127h290v-127h-290z" />
    <glyph glyph-name="endash.lin" 
d="M28 269v127h519v-127h-519z" />
    <glyph glyph-name="emdash.lin" horiz-adv-x="920" 
d="M50 269v127h820v-127h-820z" />
    <glyph glyph-name="registered.alt" horiz-adv-x="826" 
d="M258 552h179q81 0 119.5 -36t38.5 -93q0 -42 -19 -69t-48 -41l73 -151h-120l-50 126h-57v-126h-116v390zM433 371q21 0 32 12.5t11 34.5t-11 35t-32 13h-59v-95h59zM413 -19q-78 0 -146.5 29.5t-119.5 80.5t-80.5 119.5t-29.5 146.5t29.5 146.5t80.5 119.5t119.5 80.5
t146.5 29.5t146.5 -29.5t119.5 -80.5t80.5 -119.5t29.5 -146.5t-29.5 -146.5t-80.5 -119.5t-119.5 -80.5t-146.5 -29.5zM413 38q66 0 124.5 25t101.5 68t68 101.5t25 124.5t-25 124t-68 101.5t-101.5 68.5t-124.5 25t-124 -25t-101.5 -68.5t-68.5 -101.5t-25 -124t25 -124.5
t68.5 -101.5t101.5 -68t124 -25z" />
    <glyph glyph-name="periodcentered.lin" horiz-adv-x="255" 
d="M223 333q0 -20 -7.5 -37t-21 -30.5t-31 -21t-36.5 -7.5q-20 0 -37 7.5t-30.5 21t-21 30.5t-7.5 37t7.5 37.5t21 30.5t30.5 20.5t37 7.5q19 0 36.5 -7.5t31 -20.5t21 -30.5t7.5 -37.5z" />
    <glyph glyph-name="plus.lin" 
d="M351 270v-203h-127v203h-204v127h204v204h127v-204h204v-127h-204z" />
    <glyph glyph-name="minus.lin" 
d="M20 270v127h535v-127h-535z" />
    <glyph glyph-name="divide.lin" 
d="M374 526q0 -18 -6.5 -33.5t-18.5 -27t-27.5 -18.5t-33.5 -7t-33.5 7t-27.5 18.5t-18.5 27t-6.5 33.5q0 36 25 61.5t61 25.5t61 -25.5t25 -61.5zM374 140q0 -18 -6.5 -33.5t-18.5 -27t-27.5 -18.5t-33.5 -7t-33.5 7t-27.5 18.5t-18.5 27t-6.5 33.5q0 36 25 61.5t61 25.5
t61 -25.5t25 -61.5zM20 270v127h535v-127h-535z" />
    <glyph glyph-name="equal.lin" 
d="M32 377v127h511v-127h-511zM32 164v127h511v-127h-511z" />
    <glyph glyph-name="multiply.lin" 
d="M470 62l-182 182l-183 -182l-89 90l182 182l-182 182l89 90l183 -182l182 182l89 -90l-181 -182l181 -182z" />
    <glyph glyph-name="less.lin" 
d="M383 55l-279 279l279 279l89 -90l-188 -189l188 -189z" />
    <glyph glyph-name="greater.lin" 
d="M104 145l188 189l-188 189l89 90l279 -279l-279 -279z" />
    <glyph glyph-name="zero.num" horiz-adv-x="452" 
d="M405 499q0 -44 -9.5 -84t-31 -70.5t-56 -48.5t-83.5 -18t-83 18t-55 48.5t-30 70.5t-9 84t9 84.5t30 71t55 49t83 18.5t83.5 -18.5t56 -49t31 -71t9.5 -84.5zM289 500q0 59 -13 95.5t-51 36.5q-19 0 -31 -9.5t-19 -27t-9.5 -42t-2.5 -53.5t2.5 -53t9.5 -41.5t19 -27
t31 -9.5q38 0 51 36.5t13 94.5z" />
    <glyph glyph-name="one.num" horiz-adv-x="390" 
d="M47 625l148 89h99v-428h-113v298l-78 -45z" />
    <glyph glyph-name="two.num" horiz-adv-x="452" 
d="M45 286v14q0 46 31.5 89t102.5 96q21 15 39 27.5t30.5 23.5t20 22t7.5 24q0 19 -15.5 30.5t-43.5 11.5t-52.5 -14t-37.5 -46l-90 48q25 48 73 79t118 31q75 0 121.5 -38t46.5 -104q0 -42 -21 -70.5t-63 -54.5q-14 -8 -30 -17t-31.5 -18t-30 -17.5t-23.5 -15.5h201v-101
h-353z" />
    <glyph glyph-name="three.num" horiz-adv-x="452" 
d="M155 513l97 99h-182v102h322v-68l-87 -91q50 -13 79 -45.5t29 -80.5q0 -30 -12 -57.5t-35.5 -48t-58.5 -33t-80 -12.5q-37 0 -65.5 8t-50.5 22.5t-38 33.5t-28 41l84 52q6 -10 14.5 -20.5t19.5 -19.5t26.5 -14.5t36.5 -5.5q35 0 53.5 15.5t18.5 40.5q0 24 -17 37t-42 13
q-21 0 -39 -10z" />
    <glyph glyph-name="four.num" horiz-adv-x="452" 
d="M355 369v-83h-113v83h-199v82l192 263h120v-253h52v-92h-52zM244 461v128l-96 -128h96z" />
    <glyph glyph-name="five.num" horiz-adv-x="452" 
d="M223 278q-66 0 -108 26t-64 68l83 52q8 -16 27 -32.5t57 -16.5q35 0 55 16.5t20 41.5q0 26 -21 40.5t-57 14.5q-29 0 -51 -9.5t-38 -23.5l-60 27l17 232h299v-102h-210l-9 -58q14 8 36.5 12.5t45.5 4.5q34 0 63.5 -9t51.5 -27t35 -43.5t13 -58.5q0 -30 -12 -58t-35 -49.5
t-57.5 -34.5t-80.5 -13z" />
    <glyph glyph-name="six.num" horiz-adv-x="452" 
d="M344 607q-19 11 -39.5 15t-39.5 4q-47 0 -77 -19t-30 -62q27 19 52 24t43 5q34 0 63 -10t50.5 -28.5t33.5 -44.5t12 -58q0 -31 -12 -59t-35 -49.5t-57 -34t-77 -12.5q-88 0 -137 54.5t-49 163.5t52 165q26 28 65.5 44t97.5 16q29 0 62.5 -6t62.5 -24zM162 432
q0 -23 17 -41.5t54 -18.5q34 0 50 16.5t16 39.5q0 24 -16.5 42t-51.5 18q-32 0 -50.5 -15t-18.5 -41z" />
    <glyph glyph-name="seven.num" horiz-adv-x="452" 
d="M407 637l-208 -351h-124l202 326h-225v102h355v-77z" />
    <glyph glyph-name="eight.num" horiz-adv-x="452" 
d="M225 363q25 0 42 12t17 41t-16.5 41t-42.5 12t-42.5 -12t-16.5 -41t17.5 -41t41.5 -12zM225 548q20 0 36.5 10t16.5 35t-16 35t-37 10t-36.5 -10t-15.5 -35t16 -35t36 -10zM225 278q-43 0 -75.5 10.5t-54.5 28.5t-33.5 42t-11.5 51q0 38 20 64.5t53 37.5q-25 12 -44 33.5
t-19 59.5q0 29 13.5 51t36 36.5t52.5 22t63 7.5q34 0 64 -7.5t52.5 -22t36 -36.5t13.5 -51q0 -38 -19 -59.5t-45 -33.5q34 -11 54 -37.5t20 -64.5q0 -27 -11.5 -51t-33.5 -42t-55 -28.5t-76 -10.5z" />
    <glyph glyph-name="nine.num" horiz-adv-x="452" 
d="M108 393q19 -11 39.5 -15t39.5 -4q47 0 77 19t30 62q-27 -19 -52 -24t-43 -5q-34 0 -63 10t-50.5 28.5t-33.5 44.5t-12 58q0 31 12 59t35 49.5t56.5 34t77.5 12.5q88 0 137 -54.5t49 -163.5t-52 -165q-26 -28 -65.5 -44t-97.5 -16q-29 0 -62.5 6t-62.5 24zM290 568
q0 23 -17 41.5t-54 18.5q-34 0 -50 -16.5t-16 -39.5q0 -24 16.5 -42t51.5 -18q32 0 50.5 15t18.5 41z" />
    <glyph glyph-name="zero.den" horiz-adv-x="452" 
d="M405 213q0 -44 -9.5 -84t-31 -70.5t-56 -48.5t-83.5 -18t-83 18t-55 48.5t-30 70.5t-9 84t9 84.5t30 71t55 49t83 18.5t83.5 -18.5t56 -49t31 -71t9.5 -84.5zM289 214q0 59 -13 95.5t-51 36.5q-19 0 -31 -9.5t-19 -27t-9.5 -42t-2.5 -53.5t2.5 -53t9.5 -41.5t19 -27
t31 -9.5q38 0 51 36.5t13 94.5z" />
    <glyph glyph-name="one.den" horiz-adv-x="390" 
d="M47 339l148 89h99v-428h-113v298l-78 -45z" />
    <glyph glyph-name="two.den" horiz-adv-x="452" 
d="M45 0v14q0 46 31.5 89t102.5 96q21 15 39 27.5t30.5 23.5t20 22t7.5 24q0 19 -15.5 30.5t-43.5 11.5t-52.5 -14t-37.5 -46l-90 48q25 48 73 79t118 31q75 0 121.5 -38t46.5 -104q0 -42 -21 -70.5t-63 -54.5q-14 -8 -30 -17t-31.5 -18t-30 -17.5t-23.5 -15.5h201v-101
h-353z" />
    <glyph glyph-name="three.den" horiz-adv-x="452" 
d="M155 227l97 99h-182v102h322v-68l-87 -91q50 -13 79 -45.5t29 -80.5q0 -30 -12 -57.5t-35.5 -48t-58.5 -33t-80 -12.5q-37 0 -65.5 8t-50.5 22.5t-38 33.5t-28 41l84 52q6 -10 14.5 -20.5t19.5 -19.5t26.5 -14.5t36.5 -5.5q35 0 53.5 15.5t18.5 40.5q0 24 -17 37t-42 13
q-21 0 -39 -10z" />
    <glyph glyph-name="four.den" horiz-adv-x="452" 
d="M355 83v-83h-113v83h-199v82l192 263h120v-253h52v-92h-52zM244 175v128l-96 -128h96z" />
    <glyph glyph-name="five.den" horiz-adv-x="452" 
d="M223 -8q-66 0 -108 26t-64 68l83 52q8 -16 27 -32.5t57 -16.5q35 0 55 16.5t20 41.5q0 26 -21 40.5t-57 14.5q-29 0 -51 -9.5t-38 -23.5l-60 27l17 232h299v-102h-210l-9 -58q14 8 36.5 12.5t45.5 4.5q34 0 63.5 -9t51.5 -27t35 -43.5t13 -58.5q0 -30 -12 -58t-35 -49.5
t-57.5 -34.5t-80.5 -13z" />
    <glyph glyph-name="six.den" horiz-adv-x="452" 
d="M344 321q-19 11 -39.5 15t-39.5 4q-47 0 -77 -19t-30 -62q27 19 52 24t43 5q34 0 63 -10t50.5 -28.5t33.5 -44.5t12 -58q0 -31 -12 -59t-35 -49.5t-57 -34t-77 -12.5q-88 0 -137 54.5t-49 163.5t52 165q26 28 65.5 44t97.5 16q29 0 62.5 -6t62.5 -24zM162 146
q0 -23 17 -41.5t54 -18.5q34 0 50 16.5t16 39.5q0 24 -16.5 42t-51.5 18q-32 0 -50.5 -15t-18.5 -41z" />
    <glyph glyph-name="seven.den" horiz-adv-x="452" 
d="M407 351l-208 -351h-124l202 326h-225v102h355v-77z" />
    <glyph glyph-name="eight.den" horiz-adv-x="452" 
d="M225 77q25 0 42 12t17 41t-16.5 41t-42.5 12t-42.5 -12t-16.5 -41t17.5 -41t41.5 -12zM225 262q20 0 36.5 10t16.5 35t-16 35t-37 10t-36.5 -10t-15.5 -35t16 -35t36 -10zM225 -8q-43 0 -75.5 10.5t-54.5 28.5t-33.5 42t-11.5 51q0 38 20 64.5t53 37.5q-25 12 -44 33.5
t-19 59.5q0 29 13.5 51t36 36.5t52.5 22t63 7.5q34 0 64 -7.5t52.5 -22t36 -36.5t13.5 -51q0 -38 -19 -59.5t-45 -33.5q34 -11 54 -37.5t20 -64.5q0 -27 -11.5 -51t-33.5 -42t-55 -28.5t-76 -10.5z" />
    <glyph glyph-name="nine.den" horiz-adv-x="452" 
d="M108 107q19 -11 39.5 -15t39.5 -4q47 0 77 19t30 62q-27 -19 -52 -24t-43 -5q-34 0 -63 10t-50.5 28.5t-33.5 44.5t-12 58q0 31 12 59t35 49.5t56.5 34t77.5 12.5q88 0 137 -54.5t49 -163.5t-52 -165q-26 -28 -65.5 -44t-97.5 -16q-29 0 -62.5 6t-62.5 24zM290 282
q0 23 -17 41.5t-54 18.5q-34 0 -50 -16.5t-16 -39.5q0 -24 16.5 -42t51.5 -18q32 0 50.5 15t18.5 41z" />
    <glyph glyph-name="S_S" horiz-adv-x="1280" 
d="M308 594q-46 0 -79 -18t-33 -53q0 -17 9 -29t24.5 -20.5t36.5 -14.5t45 -11q30 -6 64.5 -13.5t68 -18t64.5 -26.5t54.5 -39t37.5 -55t14 -74q0 -50 -19.5 -93t-56.5 -74.5t-91 -49.5t-123 -18q-105 0 -185 41.5t-122 113.5l123 82q14 -27 35.5 -46.5t46.5 -32.5t52.5 -19
t54.5 -6q60 0 94 22.5t34 61.5q0 23 -12.5 37.5t-33.5 23.5t-48.5 15t-56.5 11q-50 9 -98 23.5t-86 39.5t-61.5 63t-23.5 94q0 51 20.5 91.5t57 68t86.5 42t109 14.5q41 0 81.5 -7.5t78.5 -24t71 -43t59 -64.5l-118 -79q-26 40 -72.5 62.5t-101.5 22.5zM948 594
q-46 0 -79 -18t-33 -53q0 -17 9 -29t24.5 -20.5t36.5 -14.5t45 -11q30 -6 64.5 -13.5t68 -18t64.5 -26.5t54.5 -39t37.5 -55t14 -74q0 -50 -19.5 -93t-56.5 -74.5t-91 -49.5t-123 -18q-105 0 -185 41.5t-122 113.5l123 82q14 -27 35.5 -46.5t46.5 -32.5t52.5 -19t54.5 -6
q60 0 94 22.5t34 61.5q0 23 -12.5 37.5t-33.5 23.5t-48.5 15t-56.5 11q-50 9 -98 23.5t-86 39.5t-61.5 63t-23.5 94q0 51 20.5 91.5t57 68t86.5 42t109 14.5q41 0 81.5 -7.5t78.5 -24t71 -43t59 -64.5l-118 -79q-26 40 -72.5 62.5t-101.5 22.5z" />
    <glyph glyph-name="f_t" horiz-adv-x="762" 
d="M744 17q-17 -11 -49 -20t-77 -9q-83 0 -127 39.5t-44 130.5v255h-199v-413h-153v413h-76v121h76v42q0 80 42 115.5t130 35.5q29 0 52 -3.5t44 -9.5l-16 -114q-6 2 -18.5 5t-29.5 3q-23 0 -37 -8.5t-14 -29.5v-36h199v180h153v-180h127v-121h-127v-230q0 -20 5 -33t13 -20
t19 -9.5t22 -2.5q19 0 32 5t22 11z" />
    <glyph glyph-name="f_f_t" horiz-adv-x="1106" 
d="M1088 17q-17 -11 -49 -20t-77 -9q-83 0 -127 39.5t-44 130.5v255h-199v-413h-153v413h-191v-413h-153v413h-76v121h76v42q0 81 43 115t134 34q24 0 47 -2.5t44 -8.5l-16 -114q-6 2 -18.5 5t-29.5 3q-23 0 -37 -8.5t-14 -29.5v-36h191v42q0 81 43 115t134 34q24 0 47 -2.5
t44 -8.5l-16 -114q-6 2 -18.5 5t-29.5 3q-23 0 -37 -8.5t-14 -29.5v-36h199v180h153v-180h127v-121h-127v-230q0 -20 5 -33t13 -20t19 -9.5t22 -2.5q19 0 32 5t22 11z" />
    <glyph glyph-name="r_f_f" horiz-adv-x="1111" 
d="M380 413q-34 0 -65 -8t-54 -28t-37 -53t-14 -84v-240h-154v534h154v-64q22 39 57.5 56.5t78.5 17.5q14 0 22 -1.5t12 -3.5v-126zM834 576q0 81 43 115t134 34q24 0 47 -2.5t44 -8.5l-16 -114q-6 2 -18.5 5t-29.5 3q-23 0 -37 -8.5t-14 -29.5v-36h107v-121h-107v-413h-153
v413h-191v-413h-153v413h-76v121h76v42q0 81 43 115t134 34q24 0 47 -2.5t44 -8.5l-16 -114q-6 2 -18.5 5t-29.5 3q-23 0 -37 -8.5t-14 -29.5v-36h191v42z" />
    <glyph glyph-name="caron.alt" horiz-adv-x="278" 
d="M165 418h-81v296h146z" />
    <glyph glyph-name="i.trk" horiz-adv-x="266" 
d="M56 0v534h154v-534h-154zM73 594v120h120v-120h-120z" />
    <glyph glyph-name="apple.alt" horiz-adv-x="3250" 
d="M675 714q25 0 46.5 -9.5t37.5 -25.5t25.5 -37.5t9.5 -46.5v-476q0 -25 -9.5 -46.5t-25.5 -37.5t-37.5 -25.5t-46.5 -9.5h-476q-25 0 -46.5 9.5t-37.5 25.5t-25.5 37.5t-9.5 46.5v476q0 25 9.5 46.5t25.5 37.5t37.5 25.5t46.5 9.5h476zM664 547q0 15 -11 26t-27 11h-379
q-15 0 -26 -11t-11 -26v-380q0 -15 11 -26t26 -11h379q16 0 27 11t11 26v380zM1634 177q-21 -26 -52.5 -40.5t-68.5 -14.5t-68.5 13t-55 36.5t-37 54.5t-13.5 67t13.5 67t37 54t55 36t68.5 13q38 0 69 -15t52 -41v42q0 6 5 6h38q6 0 6 -6v-443q0 -6 -6 -6h-38q-5 0 -5 6v171
zM2433 455q5 0 5 -6v-314q0 -5 -5 -5h-38q-6 0 -6 5v42q-21 -26 -52 -40.5t-68 -14.5t-69 13t-55.5 36.5t-37 54.5t-13.5 67t13.5 67t37 54t55.5 36t69 13q38 0 69 -14.5t51 -41.5v42q0 6 6 6h38zM2744 273q4 -20 13 -39t25 -34t38 -24t52 -9q28 0 52.5 13t38.5 30q6 8 10 8
h39q9 0 6 -8q-21 -39 -60 -63.5t-88 -24.5q-36 0 -68 13t-55.5 36t-37.5 54t-14 67q0 35 13.5 66t36.5 54.5t53.5 37t65.5 13.5t66.5 -13.5t55 -36.5t37 -55t13.5 -69v-3q0 -2 -0.5 -3t-0.5 -3q0 -7 -7 -7h-284zM1135 394q29 -7 57.5 -16.5t50.5 -25t36 -38.5t14 -56
q0 -58 -46 -98q-44 -39 -106 -39h-1q-46 1 -75.5 18t-46 38.5t-23 42.5t-6.5 32q0 8 7 8h36q7 0 7 -8q1 -11 7.5 -25t18.5 -26t30.5 -20.5t44.5 -8.5q20 0 38.5 6.5t32.5 18.5t22.5 27.5t8.5 33.5q0 13 -5 25.5t-18 23t-36 20t-60 18.5q-61 15 -89 41q-31 30 -31 81
q0 25 10.5 48t28.5 40t42.5 27t52.5 10q27 0 52 -9.5t44 -26.5q20 -17 31 -40t11 -46q0 -7 -7 -7h-37q-7 0 -7 7q-2 28 -24 49.5t-63 21.5q-35 0 -59 -22t-24 -52q0 -14 3 -25t11.5 -19.5t24.5 -15.5t42 -13zM2269 167q26 0 48.5 9.5t39 26.5t26 40t9.5 49t-9.5 49t-26.5 40
t-39.5 27t-47.5 10q-55 0 -90 -36t-35 -91q0 -27 9.5 -50t26 -39.5t39.5 -25.5t50 -9zM1513 167q26 0 48.5 9.5t39 26.5t26 40t9.5 49t-9.5 49t-26.5 40t-39.5 27t-47.5 10q-27 0 -50 -9.5t-39.5 -26.5t-26 -40.5t-9.5 -50.5t9.5 -50t26 -39.5t39.5 -25.5t50 -9zM1991 166
q-15 -21 -40 -33t-56 -12q-35 0 -65 13t-48 37q-29 35 -29 105v173q0 6 5 6h39q5 0 5 -6v-173q0 -110 93 -110q38 0 64 25q20 19 26 41.5t6 50.5v166q0 6 6 6h38q5 0 5 -6v-314q0 -5 -5 -5h-38q-6 0 -6 5v31zM361 260q-9 0 -15 6t-6 15v152q0 9 6 15t15 6h152q9 0 15 -6
t6 -15v-152q0 -9 -6 -15t-15 -6h-152zM2568 407q44 56 121 56q7 -1 7 -8v-30q0 -7 -7 -7q-26 0 -48 -10t-38 -27t-25.5 -39.5t-9.5 -48.5v-158q0 -5 -5 -5h-38q-6 0 -6 5v314q0 6 6 6h38q5 0 5 -6v-42zM2984 318q-10 43 -42.5 71.5t-77.5 28.5t-78 -28.5t-42 -71.5h240z" />
    </font>
</defs>
</svg>
